%TF.GenerationSoftware,KiCad,Pcbnew,9.0.7*%
%TF.CreationDate,2026-03-20T04:33:47+09:00*%
%TF.ProjectId,KiCad_HD63701Y0_27256_EPROM_Adapter,4b694361-645f-4484-9436-333730315930,rev?*%
%TF.SameCoordinates,Original*%
%TF.FileFunction,Soldermask,Bot*%
%TF.FilePolarity,Negative*%
%FSLAX46Y46*%
G04 Gerber Fmt 4.6, Leading zero omitted, Abs format (unit mm)*
G04 Created by KiCad (PCBNEW 9.0.7) date 2026-03-20 04:33:47*
%MOMM*%
%LPD*%
G01*
G04 APERTURE LIST*
G04 Aperture macros list*
%AMRoundRect*
0 Rectangle with rounded corners*
0 $1 Rounding radius*
0 $2 $3 $4 $5 $6 $7 $8 $9 X,Y pos of 4 corners*
0 Add a 4 corners polygon primitive as box body*
4,1,4,$2,$3,$4,$5,$6,$7,$8,$9,$2,$3,0*
0 Add four circle primitives for the rounded corners*
1,1,$1+$1,$2,$3*
1,1,$1+$1,$4,$5*
1,1,$1+$1,$6,$7*
1,1,$1+$1,$8,$9*
0 Add four rect primitives between the rounded corners*
20,1,$1+$1,$2,$3,$4,$5,0*
20,1,$1+$1,$4,$5,$6,$7,0*
20,1,$1+$1,$6,$7,$8,$9,0*
20,1,$1+$1,$8,$9,$2,$3,0*%
G04 Aperture macros list end*
%ADD10C,1.700000*%
%ADD11R,1.700000X1.700000*%
%ADD12O,2.400000X1.600000*%
%ADD13RoundRect,0.250000X-0.950000X-0.550000X0.950000X-0.550000X0.950000X0.550000X-0.950000X0.550000X0*%
%ADD14O,2.200000X1.300000*%
%ADD15R,2.200000X1.300000*%
G04 APERTURE END LIST*
D10*
%TO.C,J1*%
X117094000Y-87635000D03*
D11*
X117094000Y-90175000D03*
%TD*%
D10*
%TO.C,J2*%
X78232000Y-37338000D03*
X78232000Y-39878000D03*
D11*
X78232000Y-42418000D03*
%TD*%
D10*
%TO.C,J3*%
X81915000Y-42413000D03*
D11*
X81915000Y-39873000D03*
%TD*%
D12*
%TO.C,U2*%
X73533000Y-37084000D03*
X73533000Y-39624000D03*
X73533000Y-42164000D03*
X73533000Y-44704000D03*
X73533000Y-47244000D03*
X73533000Y-49784000D03*
X73533000Y-52324000D03*
X73533000Y-54864000D03*
X73533000Y-57404000D03*
X73533000Y-59944000D03*
X73533000Y-62484000D03*
X73533000Y-65024000D03*
X73533000Y-67564000D03*
X73533000Y-70104000D03*
X58293000Y-70104000D03*
X58293000Y-67564000D03*
X58293000Y-65024000D03*
X58293000Y-62484000D03*
X58293000Y-59944000D03*
X58293000Y-57404000D03*
X58293000Y-54864000D03*
X58293000Y-52324000D03*
X58293000Y-49784000D03*
X58293000Y-47244000D03*
X58293000Y-44704000D03*
X58293000Y-42164000D03*
X58293000Y-39624000D03*
D13*
X58293000Y-37084000D03*
%TD*%
D14*
%TO.C,U1*%
X87630000Y-97328000D03*
X87630000Y-95548000D03*
X87630000Y-93768000D03*
X87630000Y-91988000D03*
X87630000Y-90208000D03*
X87630000Y-88428000D03*
X87630000Y-86648000D03*
X87630000Y-84868000D03*
X87630000Y-83088000D03*
X87630000Y-81308000D03*
X87630000Y-79528000D03*
X87630000Y-77748000D03*
X87630000Y-75968000D03*
X87630000Y-74188000D03*
X87630000Y-72408000D03*
X87630000Y-70628000D03*
X87630000Y-68848000D03*
X87630000Y-67068000D03*
X87630000Y-65288000D03*
X87630000Y-63508000D03*
X87630000Y-61728000D03*
X87630000Y-59948000D03*
X87630000Y-58168000D03*
X87630000Y-56388000D03*
X87630000Y-54608000D03*
X87630000Y-52828000D03*
X87630000Y-51048000D03*
X87630000Y-49268000D03*
X87630000Y-47488000D03*
X87630000Y-45708000D03*
X87630000Y-43928000D03*
X87630000Y-42148000D03*
X108330000Y-42148000D03*
X108330000Y-43928000D03*
X108330000Y-45708000D03*
X108330000Y-47488000D03*
X108330000Y-49268000D03*
X108330000Y-51048000D03*
X108330000Y-52828000D03*
X108330000Y-54608000D03*
X108330000Y-56388000D03*
X108330000Y-58168000D03*
X108330000Y-59948000D03*
X108330000Y-61728000D03*
X108330000Y-63508000D03*
X108330000Y-65288000D03*
X108330000Y-67068000D03*
X108330000Y-68848000D03*
X108330000Y-70628000D03*
X108330000Y-72408000D03*
X108330000Y-74188000D03*
X108330000Y-75968000D03*
X108330000Y-77748000D03*
X108330000Y-79528000D03*
X108330000Y-81308000D03*
X108330000Y-83088000D03*
X108330000Y-84868000D03*
X108330000Y-86648000D03*
X108330000Y-88428000D03*
X108330000Y-90208000D03*
X108330000Y-91988000D03*
X108330000Y-93768000D03*
X108330000Y-95548000D03*
D15*
X108330000Y-97328000D03*
%TD*%
M02*
