%TF.GenerationSoftware,KiCad,Pcbnew,9.0.7*%
%TF.CreationDate,2026-03-20T04:33:47+09:00*%
%TF.ProjectId,KiCad_HD63701Y0_27256_EPROM_Adapter,4b694361-645f-4484-9436-333730315930,rev?*%
%TF.SameCoordinates,Original*%
%TF.FileFunction,Copper,L2,Bot*%
%TF.FilePolarity,Positive*%
%FSLAX46Y46*%
G04 Gerber Fmt 4.6, Leading zero omitted, Abs format (unit mm)*
G04 Created by KiCad (PCBNEW 9.0.7) date 2026-03-20 04:33:47*
%MOMM*%
%LPD*%
G01*
G04 APERTURE LIST*
G04 Aperture macros list*
%AMRoundRect*
0 Rectangle with rounded corners*
0 $1 Rounding radius*
0 $2 $3 $4 $5 $6 $7 $8 $9 X,Y pos of 4 corners*
0 Add a 4 corners polygon primitive as box body*
4,1,4,$2,$3,$4,$5,$6,$7,$8,$9,$2,$3,0*
0 Add four circle primitives for the rounded corners*
1,1,$1+$1,$2,$3*
1,1,$1+$1,$4,$5*
1,1,$1+$1,$6,$7*
1,1,$1+$1,$8,$9*
0 Add four rect primitives between the rounded corners*
20,1,$1+$1,$2,$3,$4,$5,0*
20,1,$1+$1,$4,$5,$6,$7,0*
20,1,$1+$1,$6,$7,$8,$9,0*
20,1,$1+$1,$8,$9,$2,$3,0*%
G04 Aperture macros list end*
%TA.AperFunction,ComponentPad*%
%ADD10C,1.700000*%
%TD*%
%TA.AperFunction,ComponentPad*%
%ADD11R,1.700000X1.700000*%
%TD*%
%TA.AperFunction,ComponentPad*%
%ADD12O,2.400000X1.600000*%
%TD*%
%TA.AperFunction,ComponentPad*%
%ADD13RoundRect,0.250000X-0.950000X-0.550000X0.950000X-0.550000X0.950000X0.550000X-0.950000X0.550000X0*%
%TD*%
%TA.AperFunction,ComponentPad*%
%ADD14O,2.200000X1.300000*%
%TD*%
%TA.AperFunction,ComponentPad*%
%ADD15R,2.200000X1.300000*%
%TD*%
%TA.AperFunction,ViaPad*%
%ADD16C,0.609600*%
%TD*%
%TA.AperFunction,Conductor*%
%ADD17C,0.304800*%
%TD*%
G04 APERTURE END LIST*
D10*
%TO.P,J1,2,Pin_2*%
%TO.N,/VPP_TARGET*%
X117094000Y-87635000D03*
D11*
%TO.P,J1,1,Pin_1*%
%TO.N,/VPP*%
X117094000Y-90175000D03*
%TD*%
D10*
%TO.P,J2,3,Pin_3*%
%TO.N,Net-(J2-Pin_3)*%
X78232000Y-37338000D03*
%TO.P,J2,2,Pin_2*%
%TO.N,+6V*%
X78232000Y-39878000D03*
D11*
%TO.P,J2,1,Pin_1*%
%TO.N,Net-(J2-Pin_1)*%
X78232000Y-42418000D03*
%TD*%
D10*
%TO.P,J3,2,Pin_2*%
%TO.N,GND*%
X81915000Y-42413000D03*
D11*
%TO.P,J3,1,Pin_1*%
%TO.N,Net-(J2-Pin_1)*%
X81915000Y-39873000D03*
%TD*%
D12*
%TO.P,U2,28,VCC*%
%TO.N,Net-(J2-Pin_3)*%
X73533000Y-37084000D03*
%TO.P,U2,27,A14*%
%TO.N,/A14*%
X73533000Y-39624000D03*
%TO.P,U2,26,A13*%
%TO.N,/A13*%
X73533000Y-42164000D03*
%TO.P,U2,25,A8*%
%TO.N,/A8*%
X73533000Y-44704000D03*
%TO.P,U2,24,A9*%
%TO.N,/A9*%
X73533000Y-47244000D03*
%TO.P,U2,23,A11*%
%TO.N,/A11*%
X73533000Y-49784000D03*
%TO.P,U2,22,~{OE}*%
%TO.N,/~{OE}*%
X73533000Y-52324000D03*
%TO.P,U2,21,A10*%
%TO.N,/A10*%
X73533000Y-54864000D03*
%TO.P,U2,20,~{CE}*%
%TO.N,/~{CE}*%
X73533000Y-57404000D03*
%TO.P,U2,19,D7*%
%TO.N,/D7*%
X73533000Y-59944000D03*
%TO.P,U2,18,D6*%
%TO.N,/D6*%
X73533000Y-62484000D03*
%TO.P,U2,17,D5*%
%TO.N,/D5*%
X73533000Y-65024000D03*
%TO.P,U2,16,D4*%
%TO.N,/D4*%
X73533000Y-67564000D03*
%TO.P,U2,15,D3*%
%TO.N,/D3*%
X73533000Y-70104000D03*
%TO.P,U2,14,GND*%
%TO.N,GND*%
X58293000Y-70104000D03*
%TO.P,U2,13,D2*%
%TO.N,/D2*%
X58293000Y-67564000D03*
%TO.P,U2,12,D1*%
%TO.N,/D1*%
X58293000Y-65024000D03*
%TO.P,U2,11,D0*%
%TO.N,/D0*%
X58293000Y-62484000D03*
%TO.P,U2,10,A0*%
%TO.N,/A0*%
X58293000Y-59944000D03*
%TO.P,U2,9,A1*%
%TO.N,/A1*%
X58293000Y-57404000D03*
%TO.P,U2,8,A2*%
%TO.N,/A2*%
X58293000Y-54864000D03*
%TO.P,U2,7,A3*%
%TO.N,/A3*%
X58293000Y-52324000D03*
%TO.P,U2,6,A4*%
%TO.N,/A4*%
X58293000Y-49784000D03*
%TO.P,U2,5,A5*%
%TO.N,/A5*%
X58293000Y-47244000D03*
%TO.P,U2,4,A6*%
%TO.N,/A6*%
X58293000Y-44704000D03*
%TO.P,U2,3,A7*%
%TO.N,/A7*%
X58293000Y-42164000D03*
%TO.P,U2,2,A12*%
%TO.N,/A12*%
X58293000Y-39624000D03*
D13*
%TO.P,U2,1,VPP*%
%TO.N,/VPP*%
X58293000Y-37084000D03*
%TD*%
D14*
%TO.P,U1,64,E*%
%TO.N,Net-(JP8-B)*%
X87630000Y-97328000D03*
%TO.P,U1,63,~{RD}/P_{70}*%
%TO.N,Net-(JP9-B)*%
X87630000Y-95548000D03*
%TO.P,U1,62,~{WR}/P_{71}*%
%TO.N,Net-(JP10-B)*%
X87630000Y-93768000D03*
%TO.P,U1,61,R/~{W}/P_{72}*%
%TO.N,Net-(JP11-B)*%
X87630000Y-91988000D03*
%TO.P,U1,60,~{LIR}/P_{73}*%
%TO.N,Net-(JP12-B)*%
X87630000Y-90208000D03*
%TO.P,U1,59,BA/P_{74}*%
%TO.N,Net-(JP13-B)*%
X87630000Y-88428000D03*
%TO.P,U1,58,D_{0}/P_{30}/EO_{0}*%
%TO.N,/D0*%
X87630000Y-86648000D03*
%TO.P,U1,57,D_{1}/P_{31}/EO_{1}*%
%TO.N,/D1*%
X87630000Y-84868000D03*
%TO.P,U1,56,D_{2}/P_{32}/EO_{2}*%
%TO.N,/D2*%
X87630000Y-83088000D03*
%TO.P,U1,55,D_{3}/P_{33}/EO_{3}*%
%TO.N,/D3*%
X87630000Y-81308000D03*
%TO.P,U1,54,D_{4}/P_{34}/EO_{4}*%
%TO.N,/D4*%
X87630000Y-79528000D03*
%TO.P,U1,53,D_{5}/P_{35}/EO_{5}*%
%TO.N,/D5*%
X87630000Y-77748000D03*
%TO.P,U1,52,D_{6}/P_{36}/EO_{6}*%
%TO.N,/D6*%
X87630000Y-75968000D03*
%TO.P,U1,51,D_{7}/P_{37}/EO_{7}*%
%TO.N,/D7*%
X87630000Y-74188000D03*
%TO.P,U1,50,A_{0}/P_{10}/EA_{0}*%
%TO.N,/A0*%
X87630000Y-72408000D03*
%TO.P,U1,49,A_{1}/P_{11}/EA_{1}*%
%TO.N,/A1*%
X87630000Y-70628000D03*
%TO.P,U1,48,A_{2}/P_{12}/EA_{2}*%
%TO.N,/A2*%
X87630000Y-68848000D03*
%TO.P,U1,47,A_{3}/P_{13}/EA_{3}*%
%TO.N,/A3*%
X87630000Y-67068000D03*
%TO.P,U1,46,A_{4}/P_{14}/EA_{4}*%
%TO.N,/A4*%
X87630000Y-65288000D03*
%TO.P,U1,45,A_{5}/P_{15}/EA_{5}*%
%TO.N,/A5*%
X87630000Y-63508000D03*
%TO.P,U1,44,A_{6}/P_{16}/EA_{6}*%
%TO.N,/A6*%
X87630000Y-61728000D03*
%TO.P,U1,43,A_{7}/P_{17}/EA_{7}*%
%TO.N,/A7*%
X87630000Y-59948000D03*
%TO.P,U1,42,Vss*%
%TO.N,GND*%
X87630000Y-58168000D03*
%TO.P,U1,41,A_{8}/P_{40}/EA_{8}*%
%TO.N,/A8*%
X87630000Y-56388000D03*
%TO.P,U1,40,A_{9}/P_{41}/~{OE}*%
%TO.N,/~{OE}*%
X87630000Y-54608000D03*
%TO.P,U1,39,A_{10}/P_{42}/EA_{10}*%
%TO.N,/A10*%
X87630000Y-52828000D03*
%TO.P,U1,38,A_{11}/P_{43}/EA_{11}*%
%TO.N,/A11*%
X87630000Y-51048000D03*
%TO.P,U1,37,A_{12}/P_{44}/EA_{12}*%
%TO.N,/A12*%
X87630000Y-49268000D03*
%TO.P,U1,36,A_{13}/P_{45}/EA_{13}*%
%TO.N,/A13*%
X87630000Y-47488000D03*
%TO.P,U1,35,A_{14}/P_{46}/EA_{14}*%
%TO.N,/A14*%
X87630000Y-45708000D03*
%TO.P,U1,34,A_{15}/P_{47}/~{CE}*%
%TO.N,/~{CE}*%
X87630000Y-43928000D03*
%TO.P,U1,33,Vcc*%
%TO.N,+6V*%
X87630000Y-42148000D03*
%TO.P,U1,32,P_{67}*%
%TO.N,Net-(JP7-B)*%
X108330000Y-42148000D03*
%TO.P,U1,31,P_{66}*%
%TO.N,Net-(JP6-B)*%
X108330000Y-43928000D03*
%TO.P,U1,30,P_{65}*%
%TO.N,unconnected-(U1-P_{65}-Pad30)*%
X108330000Y-45708000D03*
%TO.P,U1,29,P_{64}*%
%TO.N,unconnected-(U1-P_{64}-Pad29)*%
X108330000Y-47488000D03*
%TO.P,U1,28,P_{63}*%
%TO.N,Net-(JP5-B)*%
X108330000Y-49268000D03*
%TO.P,U1,27,P_{62}*%
%TO.N,Net-(JP4-B)*%
X108330000Y-51048000D03*
%TO.P,U1,26,P_{61}*%
%TO.N,unconnected-(U1-P_{61}-Pad26)*%
X108330000Y-52828000D03*
%TO.P,U1,25,P_{60}*%
%TO.N,unconnected-(U1-P_{60}-Pad25)*%
X108330000Y-54608000D03*
%TO.P,U1,24,P_{57}*%
%TO.N,unconnected-(U1-P_{57}-Pad24)*%
X108330000Y-56388000D03*
%TO.P,U1,23,P_{56}*%
%TO.N,unconnected-(U1-P_{56}-Pad23)*%
X108330000Y-58168000D03*
%TO.P,U1,22,P_{55}/~{OS}*%
%TO.N,unconnected-(U1-P_{55}{slash}~{OS}-Pad22)*%
X108330000Y-59948000D03*
%TO.P,U1,21,P_{54}/~{IS}*%
%TO.N,unconnected-(U1-P_{54}{slash}~{IS}-Pad21)*%
X108330000Y-61728000D03*
%TO.P,U1,20,P_{53}/~{HALT}*%
%TO.N,unconnected-(U1-P_{53}{slash}~{HALT}-Pad20)*%
X108330000Y-63508000D03*
%TO.P,U1,19,P_{52}/MR*%
%TO.N,unconnected-(U1-P_{52}{slash}MR-Pad19)*%
X108330000Y-65288000D03*
%TO.P,U1,18,P_{51}/~{IRQ_{2}}*%
%TO.N,unconnected-(U1-P_{51}{slash}~{IRQ_{2}}-Pad18)*%
X108330000Y-67068000D03*
%TO.P,U1,17,P_{50}/~{IRQ_{1}}*%
%TO.N,unconnected-(U1-P_{50}{slash}~{IRQ_{1}}-Pad17)*%
X108330000Y-68848000D03*
%TO.P,U1,16,P_{27}/TCLK*%
%TO.N,unconnected-(U1-P_{27}{slash}TCLK-Pad16)*%
X108330000Y-70628000D03*
%TO.P,U1,15,P_{26}/Tout3*%
%TO.N,unconnected-(U1-P_{26}{slash}Tout3-Pad15)*%
X108330000Y-72408000D03*
%TO.P,U1,14,P_{25}/Tout2*%
%TO.N,unconnected-(U1-P_{25}{slash}Tout2-Pad14)*%
X108330000Y-74188000D03*
%TO.P,U1,13,P_{24}/Tx*%
%TO.N,unconnected-(U1-P_{24}{slash}Tx-Pad13)*%
X108330000Y-75968000D03*
%TO.P,U1,12,P_{23}/Rx*%
%TO.N,unconnected-(U1-P_{23}{slash}Rx-Pad12)*%
X108330000Y-77748000D03*
%TO.P,U1,11,P_{22}/SCLK*%
%TO.N,unconnected-(U1-P_{22}{slash}SCLK-Pad11)*%
X108330000Y-79528000D03*
%TO.P,U1,10,P_{21}/Tout1*%
%TO.N,unconnected-(U1-P_{21}{slash}Tout1-Pad10)*%
X108330000Y-81308000D03*
%TO.P,U1,9,P_{20}/Tin*%
%TO.N,unconnected-(U1-P_{20}{slash}Tin-Pad9)*%
X108330000Y-83088000D03*
%TO.P,U1,8,~{NMI}/EA9*%
%TO.N,/A9*%
X108330000Y-84868000D03*
%TO.P,U1,7,~{STBY}*%
%TO.N,Net-(JP3-B)*%
X108330000Y-86648000D03*
%TO.P,U1,6,~{RES}/Vpp*%
%TO.N,/VPP_TARGET*%
X108330000Y-88428000D03*
%TO.P,U1,5,MP1*%
%TO.N,GND*%
X108330000Y-90208000D03*
%TO.P,U1,4,MP0*%
X108330000Y-91988000D03*
%TO.P,U1,3,EXTAL*%
%TO.N,Net-(JP2-B)*%
X108330000Y-93768000D03*
%TO.P,U1,2,XTAL*%
%TO.N,Net-(JP1-B)*%
X108330000Y-95548000D03*
D15*
%TO.P,U1,1,Vss*%
%TO.N,GND*%
X108330000Y-97328000D03*
%TD*%
D16*
%TO.N,/~{CE}*%
X77597000Y-44958000D03*
%TO.N,GND*%
X55880000Y-94742000D03*
X63500000Y-102616000D03*
X63500000Y-105156000D03*
X54356000Y-97028000D03*
X88138000Y-105156000D03*
X84582000Y-102362000D03*
X91948000Y-101600000D03*
X91948000Y-99060000D03*
X81788000Y-87122000D03*
X68580000Y-73914000D03*
X55880000Y-72390000D03*
X68580000Y-71374000D03*
X89662000Y-85852000D03*
X89662000Y-73152000D03*
X89662000Y-60706000D03*
X106426000Y-85852000D03*
X98552000Y-85852000D03*
X98044000Y-73152000D03*
X106426000Y-73152000D03*
X100330000Y-73152000D03*
X98044000Y-60706000D03*
X100330000Y-60706000D03*
X106426000Y-60706000D03*
X106426000Y-46482000D03*
X100330000Y-46482000D03*
X98044000Y-46482000D03*
X89662000Y-46482000D03*
X85598000Y-41656000D03*
X83820000Y-39116000D03*
X80518000Y-36576000D03*
X88392000Y-38608000D03*
X89154000Y-40894000D03*
X96774000Y-40894000D03*
X100076000Y-40894000D03*
X106426000Y-40640000D03*
X106426000Y-36830000D03*
X100076000Y-36576000D03*
X120650000Y-36830000D03*
X120650000Y-45720000D03*
X110236000Y-46482000D03*
X110236000Y-60706000D03*
X120650000Y-60706000D03*
X120650000Y-73152000D03*
X110236000Y-73152000D03*
X102108000Y-83312000D03*
X106426000Y-83312000D03*
X110490000Y-83312000D03*
X120650000Y-83312000D03*
X120650000Y-90170000D03*
X115316000Y-87122000D03*
X111252000Y-89662000D03*
X111252000Y-92456000D03*
X118364000Y-92202000D03*
X118364000Y-99060000D03*
X106426000Y-99314000D03*
X98552000Y-99060000D03*
X98552000Y-101600000D03*
X106426000Y-101600000D03*
X118364000Y-101600000D03*
X84937600Y-57251600D03*
X77978000Y-57200800D03*
X78130400Y-53949600D03*
X84937600Y-53949600D03*
X78435200Y-102362000D03*
%TD*%
D17*
%TO.N,/A8*%
X85344000Y-56134000D02*
X85598000Y-56388000D01*
X72390000Y-44704000D02*
X70993000Y-46101000D01*
X73533000Y-44704000D02*
X72390000Y-44704000D01*
X71755000Y-56134000D02*
X85344000Y-56134000D01*
X70993000Y-46101000D02*
X70993000Y-55372000D01*
X70993000Y-55372000D02*
X71755000Y-56134000D01*
X85598000Y-56388000D02*
X87630000Y-56388000D01*
%TO.N,/~{CE}*%
X69850000Y-56007000D02*
X69850000Y-45339000D01*
X73533000Y-57404000D02*
X71247000Y-57404000D01*
X75184000Y-43434000D02*
X76708000Y-44958000D01*
X71247000Y-57404000D02*
X69850000Y-56007000D01*
X69850000Y-45339000D02*
X71755000Y-43434000D01*
X76708000Y-44958000D02*
X77597000Y-44958000D01*
X71755000Y-43434000D02*
X75184000Y-43434000D01*
%TO.N,/A9*%
X73533000Y-47244000D02*
X81788000Y-47244000D01*
X81788000Y-47244000D02*
X84328000Y-44704000D01*
X84328000Y-44704000D02*
X84328000Y-40640000D01*
X84328000Y-40640000D02*
X85217000Y-39751000D01*
X85217000Y-39751000D02*
X97282000Y-39751000D01*
X97282000Y-39751000D02*
X99314000Y-41783000D01*
X99314000Y-41783000D02*
X99314000Y-82677000D01*
X99314000Y-82677000D02*
X101505000Y-84868000D01*
X101505000Y-84868000D02*
X108330000Y-84868000D01*
%TO.N,/~{OE}*%
X74930000Y-52324000D02*
X73533000Y-52324000D01*
X74980800Y-52324000D02*
X77724000Y-55067200D01*
X73533000Y-52324000D02*
X74980800Y-52324000D01*
X77724000Y-55067200D02*
X87170800Y-55067200D01*
X87170800Y-55067200D02*
X87630000Y-54608000D01*
%TO.N,/A0*%
X59436000Y-59944000D02*
X71900000Y-72408000D01*
X58293000Y-59944000D02*
X59436000Y-59944000D01*
X71900000Y-72408000D02*
X87630000Y-72408000D01*
%TO.N,/A1*%
X69850000Y-68834000D02*
X74828400Y-68834000D01*
X58293000Y-57404000D02*
X59791600Y-57404000D01*
X59791600Y-57404000D02*
X60706000Y-58318400D01*
X60706000Y-59690000D02*
X69850000Y-68834000D01*
X60706000Y-58318400D02*
X60706000Y-59690000D01*
X76622400Y-70628000D02*
X87630000Y-70628000D01*
X74828400Y-68834000D02*
X76622400Y-70628000D01*
%TO.N,/A2*%
X75031600Y-66294000D02*
X77585600Y-68848000D01*
X58293000Y-54864000D02*
X59893200Y-54864000D01*
X69342000Y-66294000D02*
X75031600Y-66294000D01*
X59893200Y-54864000D02*
X61620400Y-56591200D01*
X61620400Y-56591200D02*
X61620400Y-58572400D01*
X77585600Y-68848000D02*
X87630000Y-68848000D01*
X61620400Y-58572400D02*
X69342000Y-66294000D01*
%TO.N,/A3*%
X58293000Y-52324000D02*
X59893200Y-52324000D01*
X59893200Y-52324000D02*
X62738000Y-55168800D01*
X62738000Y-55168800D02*
X62738000Y-57277000D01*
X62738000Y-57277000D02*
X69215000Y-63754000D01*
X69215000Y-63754000D02*
X74930000Y-63754000D01*
X74930000Y-63754000D02*
X78244000Y-67068000D01*
X78244000Y-67068000D02*
X87630000Y-67068000D01*
%TO.N,/A4*%
X58293000Y-49784000D02*
X59791600Y-49784000D01*
X75016600Y-61097400D02*
X79207200Y-65288000D01*
X69098400Y-61097400D02*
X75016600Y-61097400D01*
X59791600Y-49784000D02*
X63703200Y-53695600D01*
X63703200Y-53695600D02*
X63703200Y-55702200D01*
X63703200Y-55702200D02*
X69098400Y-61097400D01*
X79207200Y-65288000D02*
X87630000Y-65288000D01*
%TO.N,/A5*%
X87630000Y-63508000D02*
X80018000Y-63508000D01*
X80018000Y-63508000D02*
X75067400Y-58557400D01*
X64465200Y-54051200D02*
X64465200Y-51917600D01*
X68971400Y-58557400D02*
X64465200Y-54051200D01*
X75067400Y-58557400D02*
X68971400Y-58557400D01*
X64465200Y-51917600D02*
X59791600Y-47244000D01*
X59791600Y-47244000D02*
X58293000Y-47244000D01*
%TD*%
%TA.AperFunction,Conductor*%
%TO.N,GND*%
G36*
X56602106Y-36087685D02*
G01*
X56647861Y-36140489D01*
X56657805Y-36209647D01*
X56652775Y-36230994D01*
X56638789Y-36273203D01*
X56603000Y-36381204D01*
X56592500Y-36483983D01*
X56592500Y-37684001D01*
X56592501Y-37684018D01*
X56603000Y-37786796D01*
X56603001Y-37786799D01*
X56650856Y-37931213D01*
X56658186Y-37953334D01*
X56750288Y-38102656D01*
X56874344Y-38226712D01*
X57023666Y-38318814D01*
X57105570Y-38345954D01*
X57163015Y-38385727D01*
X57189838Y-38450243D01*
X57177523Y-38519018D01*
X57139451Y-38563978D01*
X57045787Y-38632028D01*
X57045782Y-38632032D01*
X56901028Y-38776786D01*
X56780715Y-38942386D01*
X56687781Y-39124776D01*
X56624522Y-39319465D01*
X56592500Y-39521648D01*
X56592500Y-39726351D01*
X56624522Y-39928534D01*
X56687781Y-40123223D01*
X56780715Y-40305613D01*
X56901028Y-40471213D01*
X57045786Y-40615971D01*
X57200749Y-40728556D01*
X57211390Y-40736287D01*
X57302840Y-40782883D01*
X57304080Y-40783515D01*
X57354876Y-40831490D01*
X57371671Y-40899311D01*
X57349134Y-40965446D01*
X57304080Y-41004485D01*
X57211386Y-41051715D01*
X57045786Y-41172028D01*
X56901028Y-41316786D01*
X56780715Y-41482386D01*
X56687781Y-41664776D01*
X56624522Y-41859465D01*
X56592500Y-42061648D01*
X56592500Y-42266351D01*
X56624522Y-42468534D01*
X56687781Y-42663223D01*
X56732505Y-42750997D01*
X56760628Y-42806192D01*
X56780715Y-42845613D01*
X56901028Y-43011213D01*
X57045786Y-43155971D01*
X57171425Y-43247251D01*
X57211390Y-43276287D01*
X57302840Y-43322883D01*
X57304080Y-43323515D01*
X57354876Y-43371490D01*
X57371671Y-43439311D01*
X57349134Y-43505446D01*
X57304080Y-43544485D01*
X57211386Y-43591715D01*
X57045786Y-43712028D01*
X56901028Y-43856786D01*
X56780715Y-44022386D01*
X56687781Y-44204776D01*
X56624522Y-44399465D01*
X56592500Y-44601648D01*
X56592500Y-44806351D01*
X56624522Y-45008534D01*
X56687781Y-45203223D01*
X56780715Y-45385613D01*
X56901028Y-45551213D01*
X57045786Y-45695971D01*
X57186971Y-45798546D01*
X57211390Y-45816287D01*
X57302840Y-45862883D01*
X57304080Y-45863515D01*
X57354876Y-45911490D01*
X57371671Y-45979311D01*
X57349134Y-46045446D01*
X57304080Y-46084485D01*
X57211386Y-46131715D01*
X57045786Y-46252028D01*
X56901028Y-46396786D01*
X56780715Y-46562386D01*
X56687781Y-46744776D01*
X56624522Y-46939465D01*
X56592500Y-47141648D01*
X56592500Y-47346351D01*
X56624522Y-47548534D01*
X56687781Y-47743223D01*
X56728223Y-47822593D01*
X56770389Y-47905349D01*
X56780715Y-47925613D01*
X56901028Y-48091213D01*
X57045786Y-48235971D01*
X57181631Y-48334666D01*
X57211390Y-48356287D01*
X57278433Y-48390447D01*
X57304080Y-48403515D01*
X57354876Y-48451490D01*
X57371671Y-48519311D01*
X57349134Y-48585446D01*
X57304080Y-48624485D01*
X57211386Y-48671715D01*
X57045786Y-48792028D01*
X56901028Y-48936786D01*
X56780715Y-49102386D01*
X56687781Y-49284776D01*
X56624522Y-49479465D01*
X56592500Y-49681648D01*
X56592500Y-49886351D01*
X56624522Y-50088534D01*
X56687781Y-50283223D01*
X56780715Y-50465613D01*
X56901028Y-50631213D01*
X57045786Y-50775971D01*
X57200749Y-50888556D01*
X57211390Y-50896287D01*
X57302840Y-50942883D01*
X57304080Y-50943515D01*
X57354876Y-50991490D01*
X57371671Y-51059311D01*
X57349134Y-51125446D01*
X57304080Y-51164485D01*
X57211386Y-51211715D01*
X57045786Y-51332028D01*
X56901028Y-51476786D01*
X56780715Y-51642386D01*
X56687781Y-51824776D01*
X56624522Y-52019465D01*
X56592500Y-52221648D01*
X56592500Y-52426351D01*
X56624522Y-52628534D01*
X56687781Y-52823223D01*
X56780715Y-53005613D01*
X56901028Y-53171213D01*
X57045786Y-53315971D01*
X57200749Y-53428556D01*
X57211390Y-53436287D01*
X57302840Y-53482883D01*
X57304080Y-53483515D01*
X57354876Y-53531490D01*
X57371671Y-53599311D01*
X57349134Y-53665446D01*
X57304080Y-53704485D01*
X57211386Y-53751715D01*
X57045786Y-53872028D01*
X56901028Y-54016786D01*
X56780715Y-54182386D01*
X56687781Y-54364776D01*
X56624522Y-54559465D01*
X56592500Y-54761648D01*
X56592500Y-54966351D01*
X56624522Y-55168534D01*
X56687781Y-55363223D01*
X56735241Y-55456367D01*
X56756454Y-55498000D01*
X56780715Y-55545613D01*
X56901028Y-55711213D01*
X57045786Y-55855971D01*
X57183376Y-55955934D01*
X57211390Y-55976287D01*
X57302840Y-56022883D01*
X57304080Y-56023515D01*
X57354876Y-56071490D01*
X57371671Y-56139311D01*
X57349134Y-56205446D01*
X57304080Y-56244485D01*
X57211386Y-56291715D01*
X57045786Y-56412028D01*
X56901028Y-56556786D01*
X56780715Y-56722386D01*
X56687781Y-56904776D01*
X56624522Y-57099465D01*
X56592500Y-57301648D01*
X56592500Y-57506351D01*
X56624522Y-57708534D01*
X56687781Y-57903223D01*
X56751691Y-58028653D01*
X56776557Y-58077454D01*
X56780715Y-58085613D01*
X56901028Y-58251213D01*
X57045786Y-58395971D01*
X57154572Y-58475007D01*
X57211390Y-58516287D01*
X57302840Y-58562883D01*
X57304080Y-58563515D01*
X57354876Y-58611490D01*
X57371671Y-58679311D01*
X57349134Y-58745446D01*
X57304080Y-58784485D01*
X57211386Y-58831715D01*
X57045786Y-58952028D01*
X56901028Y-59096786D01*
X56780715Y-59262386D01*
X56687781Y-59444776D01*
X56624522Y-59639465D01*
X56592500Y-59841648D01*
X56592500Y-60046351D01*
X56624522Y-60248534D01*
X56687781Y-60443223D01*
X56780715Y-60625613D01*
X56901028Y-60791213D01*
X57045786Y-60935971D01*
X57169469Y-61025830D01*
X57211390Y-61056287D01*
X57302840Y-61102883D01*
X57304080Y-61103515D01*
X57354876Y-61151490D01*
X57371671Y-61219311D01*
X57349134Y-61285446D01*
X57304080Y-61324485D01*
X57211386Y-61371715D01*
X57045786Y-61492028D01*
X56901028Y-61636786D01*
X56780715Y-61802386D01*
X56687781Y-61984776D01*
X56624522Y-62179465D01*
X56592500Y-62381648D01*
X56592500Y-62586351D01*
X56624522Y-62788534D01*
X56687781Y-62983223D01*
X56780715Y-63165613D01*
X56901028Y-63331213D01*
X57045786Y-63475971D01*
X57200749Y-63588556D01*
X57211390Y-63596287D01*
X57302840Y-63642883D01*
X57304080Y-63643515D01*
X57354876Y-63691490D01*
X57371671Y-63759311D01*
X57349134Y-63825446D01*
X57304080Y-63864485D01*
X57211386Y-63911715D01*
X57045786Y-64032028D01*
X56901028Y-64176786D01*
X56780715Y-64342386D01*
X56687781Y-64524776D01*
X56624522Y-64719465D01*
X56592500Y-64921648D01*
X56592500Y-65126351D01*
X56624522Y-65328534D01*
X56687781Y-65523223D01*
X56780715Y-65705613D01*
X56901028Y-65871213D01*
X57045786Y-66015971D01*
X57148121Y-66090320D01*
X57211390Y-66136287D01*
X57268828Y-66165553D01*
X57304080Y-66183515D01*
X57354876Y-66231490D01*
X57371671Y-66299311D01*
X57349134Y-66365446D01*
X57304080Y-66404485D01*
X57211386Y-66451715D01*
X57045786Y-66572028D01*
X56901028Y-66716786D01*
X56780715Y-66882386D01*
X56687781Y-67064776D01*
X56624522Y-67259465D01*
X56592500Y-67461648D01*
X56592500Y-67666351D01*
X56624522Y-67868534D01*
X56687781Y-68063223D01*
X56731210Y-68148456D01*
X56780405Y-68245006D01*
X56780715Y-68245613D01*
X56901028Y-68411213D01*
X57045786Y-68555971D01*
X57200749Y-68668556D01*
X57211390Y-68676287D01*
X57327607Y-68735503D01*
X57393776Y-68769218D01*
X57393778Y-68769218D01*
X57393781Y-68769220D01*
X57498137Y-68803127D01*
X57588465Y-68832477D01*
X57689557Y-68848488D01*
X57790648Y-68864500D01*
X57790649Y-68864500D01*
X58795351Y-68864500D01*
X58795352Y-68864500D01*
X58997534Y-68832477D01*
X59192219Y-68769220D01*
X59374610Y-68676287D01*
X59467590Y-68608732D01*
X59540213Y-68555971D01*
X59540215Y-68555968D01*
X59540219Y-68555966D01*
X59684966Y-68411219D01*
X59684968Y-68411215D01*
X59684971Y-68411213D01*
X59798168Y-68255408D01*
X59805287Y-68245610D01*
X59898220Y-68063219D01*
X59961477Y-67868534D01*
X59993500Y-67666352D01*
X59993500Y-67461648D01*
X59961477Y-67259466D01*
X59961476Y-67259464D01*
X59905942Y-67088547D01*
X59898220Y-67064781D01*
X59898218Y-67064778D01*
X59898218Y-67064776D01*
X59864503Y-66998607D01*
X59805287Y-66882390D01*
X59792315Y-66864536D01*
X59684971Y-66716786D01*
X59540213Y-66572028D01*
X59374614Y-66451715D01*
X59368006Y-66448348D01*
X59281917Y-66404483D01*
X59231123Y-66356511D01*
X59214328Y-66288690D01*
X59236865Y-66222555D01*
X59281917Y-66183516D01*
X59374610Y-66136287D01*
X59437880Y-66090319D01*
X59540213Y-66015971D01*
X59540215Y-66015968D01*
X59540219Y-66015966D01*
X59684966Y-65871219D01*
X59684968Y-65871215D01*
X59684971Y-65871213D01*
X59746257Y-65786859D01*
X59805287Y-65705610D01*
X59898220Y-65523219D01*
X59961477Y-65328534D01*
X59993500Y-65126352D01*
X59993500Y-64921648D01*
X59961477Y-64719466D01*
X59961476Y-64719464D01*
X59922264Y-64598781D01*
X59898220Y-64524781D01*
X59898218Y-64524778D01*
X59898218Y-64524776D01*
X59855702Y-64441335D01*
X59805287Y-64342390D01*
X59781986Y-64310319D01*
X59684971Y-64176786D01*
X59540213Y-64032028D01*
X59374614Y-63911715D01*
X59368006Y-63908348D01*
X59281917Y-63864483D01*
X59231123Y-63816511D01*
X59214328Y-63748690D01*
X59236865Y-63682555D01*
X59281917Y-63643516D01*
X59374610Y-63596287D01*
X59395770Y-63580913D01*
X59540213Y-63475971D01*
X59540215Y-63475968D01*
X59540219Y-63475966D01*
X59684966Y-63331219D01*
X59684968Y-63331215D01*
X59684971Y-63331213D01*
X59746257Y-63246859D01*
X59805287Y-63165610D01*
X59898220Y-62983219D01*
X59961477Y-62788534D01*
X59993500Y-62586352D01*
X59993500Y-62381648D01*
X59961477Y-62179466D01*
X59898220Y-61984781D01*
X59898218Y-61984778D01*
X59898218Y-61984776D01*
X59864503Y-61918607D01*
X59805287Y-61802390D01*
X59749213Y-61725210D01*
X59684971Y-61636786D01*
X59540213Y-61492028D01*
X59374614Y-61371715D01*
X59368006Y-61368348D01*
X59281917Y-61324483D01*
X59275752Y-61318660D01*
X59267698Y-61315998D01*
X59250732Y-61295031D01*
X59231123Y-61276511D01*
X59229083Y-61268276D01*
X59223748Y-61261682D01*
X59220810Y-61234869D01*
X59214328Y-61208690D01*
X59217063Y-61200661D01*
X59216140Y-61192228D01*
X59228165Y-61168083D01*
X59236865Y-61142555D01*
X59244319Y-61135650D01*
X59247290Y-61129686D01*
X59266132Y-61115445D01*
X59274727Y-61107485D01*
X59278252Y-61105383D01*
X59374610Y-61056287D01*
X59438491Y-61009874D01*
X59443321Y-61006996D01*
X59471917Y-60999635D01*
X59499727Y-60989713D01*
X59505371Y-60991025D01*
X59510985Y-60989581D01*
X59539025Y-60998851D01*
X59567781Y-61005538D01*
X59574351Y-61010530D01*
X59577324Y-61011513D01*
X59580003Y-61014824D01*
X59594489Y-61025830D01*
X71483798Y-72915139D01*
X71483801Y-72915141D01*
X71590736Y-72986592D01*
X71709556Y-73035809D01*
X71709560Y-73035809D01*
X71709561Y-73035810D01*
X71835692Y-73060900D01*
X71835695Y-73060900D01*
X86169081Y-73060900D01*
X86202336Y-73070665D01*
X86235857Y-73080416D01*
X86235998Y-73080549D01*
X86236120Y-73080585D01*
X86262589Y-73103461D01*
X86266184Y-73107588D01*
X86302447Y-73157501D01*
X86358283Y-73213337D01*
X86361091Y-73216561D01*
X86373973Y-73244583D01*
X86388749Y-73271643D01*
X86388434Y-73276038D01*
X86390276Y-73280044D01*
X86385963Y-73310584D01*
X86383764Y-73341335D01*
X86381018Y-73345607D01*
X86380507Y-73349227D01*
X86373376Y-73357497D01*
X86355265Y-73385680D01*
X86302445Y-73438500D01*
X86302441Y-73438505D01*
X86196006Y-73585002D01*
X86113788Y-73746360D01*
X86113787Y-73746363D01*
X86057829Y-73918589D01*
X86029500Y-74097448D01*
X86029500Y-74278551D01*
X86057829Y-74457410D01*
X86113787Y-74629636D01*
X86113788Y-74629639D01*
X86196006Y-74790997D01*
X86302441Y-74937494D01*
X86302445Y-74937499D01*
X86355265Y-74990320D01*
X86388749Y-75051643D01*
X86383764Y-75121335D01*
X86355265Y-75165680D01*
X86302445Y-75218500D01*
X86302441Y-75218505D01*
X86196006Y-75365002D01*
X86113788Y-75526360D01*
X86113787Y-75526363D01*
X86057829Y-75698589D01*
X86029500Y-75877448D01*
X86029500Y-76058551D01*
X86057829Y-76237410D01*
X86113787Y-76409636D01*
X86113788Y-76409639D01*
X86196006Y-76570997D01*
X86302441Y-76717494D01*
X86302445Y-76717499D01*
X86355265Y-76770320D01*
X86388749Y-76831643D01*
X86383764Y-76901335D01*
X86355265Y-76945680D01*
X86302445Y-76998500D01*
X86302441Y-76998505D01*
X86196006Y-77145002D01*
X86113788Y-77306360D01*
X86113787Y-77306363D01*
X86057829Y-77478589D01*
X86029500Y-77657448D01*
X86029500Y-77838551D01*
X86057829Y-78017410D01*
X86113787Y-78189636D01*
X86113788Y-78189639D01*
X86196006Y-78350997D01*
X86302441Y-78497494D01*
X86302445Y-78497499D01*
X86355265Y-78550320D01*
X86388749Y-78611643D01*
X86383764Y-78681335D01*
X86355265Y-78725680D01*
X86302445Y-78778500D01*
X86302441Y-78778505D01*
X86196006Y-78925002D01*
X86113788Y-79086360D01*
X86113787Y-79086363D01*
X86057829Y-79258589D01*
X86029500Y-79437448D01*
X86029500Y-79618551D01*
X86057829Y-79797410D01*
X86113787Y-79969636D01*
X86113788Y-79969639D01*
X86196006Y-80130997D01*
X86302441Y-80277494D01*
X86302445Y-80277499D01*
X86355265Y-80330320D01*
X86388749Y-80391643D01*
X86383764Y-80461335D01*
X86355265Y-80505680D01*
X86302445Y-80558500D01*
X86302441Y-80558505D01*
X86196006Y-80705002D01*
X86113788Y-80866360D01*
X86113787Y-80866363D01*
X86057829Y-81038589D01*
X86029500Y-81217448D01*
X86029500Y-81398551D01*
X86057829Y-81577410D01*
X86113787Y-81749636D01*
X86113788Y-81749639D01*
X86196006Y-81910997D01*
X86302441Y-82057494D01*
X86302445Y-82057499D01*
X86355265Y-82110320D01*
X86388749Y-82171643D01*
X86383764Y-82241335D01*
X86355265Y-82285680D01*
X86302445Y-82338500D01*
X86302441Y-82338505D01*
X86196006Y-82485002D01*
X86113788Y-82646360D01*
X86113787Y-82646363D01*
X86057829Y-82818589D01*
X86029500Y-82997448D01*
X86029500Y-83178551D01*
X86057829Y-83357410D01*
X86113787Y-83529636D01*
X86113788Y-83529639D01*
X86196006Y-83690997D01*
X86302441Y-83837494D01*
X86302445Y-83837499D01*
X86355265Y-83890320D01*
X86388749Y-83951643D01*
X86383764Y-84021335D01*
X86355265Y-84065680D01*
X86302445Y-84118500D01*
X86302441Y-84118505D01*
X86196006Y-84265002D01*
X86113788Y-84426360D01*
X86113787Y-84426363D01*
X86057829Y-84598589D01*
X86029500Y-84777448D01*
X86029500Y-84958551D01*
X86057829Y-85137410D01*
X86113787Y-85309636D01*
X86113788Y-85309639D01*
X86147163Y-85375139D01*
X86183570Y-85446592D01*
X86196006Y-85470997D01*
X86302441Y-85617494D01*
X86302445Y-85617499D01*
X86355265Y-85670320D01*
X86388749Y-85731643D01*
X86383764Y-85801335D01*
X86355265Y-85845680D01*
X86302445Y-85898500D01*
X86302441Y-85898505D01*
X86196006Y-86045002D01*
X86113788Y-86206360D01*
X86113787Y-86206363D01*
X86057829Y-86378589D01*
X86029500Y-86557448D01*
X86029500Y-86738551D01*
X86057829Y-86917410D01*
X86113787Y-87089636D01*
X86113788Y-87089639D01*
X86196006Y-87250997D01*
X86302441Y-87397494D01*
X86302445Y-87397499D01*
X86355265Y-87450320D01*
X86388749Y-87511643D01*
X86383764Y-87581335D01*
X86355265Y-87625680D01*
X86302445Y-87678500D01*
X86302441Y-87678505D01*
X86196006Y-87825002D01*
X86113788Y-87986360D01*
X86113787Y-87986363D01*
X86057829Y-88158589D01*
X86029500Y-88337448D01*
X86029500Y-88518551D01*
X86057829Y-88697410D01*
X86113787Y-88869636D01*
X86113788Y-88869639D01*
X86196006Y-89030997D01*
X86302441Y-89177494D01*
X86302445Y-89177499D01*
X86355265Y-89230320D01*
X86388749Y-89291643D01*
X86383764Y-89361335D01*
X86355265Y-89405680D01*
X86302445Y-89458500D01*
X86302441Y-89458505D01*
X86196006Y-89605002D01*
X86113788Y-89766360D01*
X86113787Y-89766363D01*
X86057829Y-89938589D01*
X86029500Y-90117448D01*
X86029500Y-90298551D01*
X86057829Y-90477410D01*
X86113787Y-90649636D01*
X86113788Y-90649639D01*
X86196006Y-90810997D01*
X86302441Y-90957494D01*
X86302445Y-90957499D01*
X86355265Y-91010320D01*
X86388749Y-91071643D01*
X86383764Y-91141335D01*
X86355265Y-91185680D01*
X86302445Y-91238500D01*
X86302441Y-91238505D01*
X86196006Y-91385002D01*
X86113788Y-91546360D01*
X86113787Y-91546363D01*
X86057829Y-91718589D01*
X86029500Y-91897448D01*
X86029500Y-92078551D01*
X86057829Y-92257410D01*
X86113787Y-92429636D01*
X86113788Y-92429639D01*
X86148605Y-92497969D01*
X86195100Y-92589220D01*
X86196006Y-92590997D01*
X86302441Y-92737494D01*
X86302445Y-92737499D01*
X86355265Y-92790320D01*
X86388749Y-92851643D01*
X86383764Y-92921335D01*
X86355265Y-92965680D01*
X86302445Y-93018500D01*
X86302441Y-93018505D01*
X86196006Y-93165002D01*
X86113788Y-93326360D01*
X86113787Y-93326363D01*
X86057829Y-93498589D01*
X86029500Y-93677448D01*
X86029500Y-93858551D01*
X86057829Y-94037410D01*
X86113787Y-94209636D01*
X86113788Y-94209639D01*
X86196006Y-94370997D01*
X86302441Y-94517494D01*
X86302445Y-94517499D01*
X86355265Y-94570320D01*
X86388749Y-94631643D01*
X86383764Y-94701335D01*
X86355265Y-94745680D01*
X86302445Y-94798500D01*
X86302441Y-94798505D01*
X86196006Y-94945002D01*
X86113788Y-95106360D01*
X86113787Y-95106363D01*
X86057829Y-95278589D01*
X86029500Y-95457448D01*
X86029500Y-95638551D01*
X86057829Y-95817410D01*
X86113787Y-95989636D01*
X86113788Y-95989639D01*
X86196006Y-96150997D01*
X86302441Y-96297494D01*
X86302445Y-96297499D01*
X86355265Y-96350320D01*
X86388749Y-96411643D01*
X86383764Y-96481335D01*
X86355265Y-96525680D01*
X86302445Y-96578500D01*
X86302441Y-96578505D01*
X86196006Y-96725002D01*
X86113788Y-96886360D01*
X86113787Y-96886363D01*
X86057829Y-97058589D01*
X86029500Y-97237448D01*
X86029500Y-97418551D01*
X86057829Y-97597410D01*
X86113787Y-97769636D01*
X86113788Y-97769639D01*
X86196006Y-97930997D01*
X86302441Y-98077494D01*
X86302445Y-98077499D01*
X86430500Y-98205554D01*
X86430505Y-98205558D01*
X86558287Y-98298396D01*
X86577006Y-98311996D01*
X86682484Y-98365740D01*
X86738360Y-98394211D01*
X86738363Y-98394212D01*
X86824476Y-98422191D01*
X86910591Y-98450171D01*
X86993429Y-98463291D01*
X87089449Y-98478500D01*
X87089454Y-98478500D01*
X88170551Y-98478500D01*
X88257259Y-98464765D01*
X88349409Y-98450171D01*
X88521639Y-98394211D01*
X88682994Y-98311996D01*
X88829501Y-98205553D01*
X88957553Y-98077501D01*
X89063996Y-97930994D01*
X89146211Y-97769639D01*
X89202171Y-97597409D01*
X89216765Y-97505259D01*
X89230500Y-97418551D01*
X89230500Y-97237448D01*
X89214019Y-97133397D01*
X89202171Y-97058591D01*
X89146211Y-96886361D01*
X89146211Y-96886360D01*
X89116474Y-96828000D01*
X89063996Y-96725006D01*
X89019106Y-96663220D01*
X88957558Y-96578505D01*
X88957554Y-96578500D01*
X88904735Y-96525681D01*
X88871250Y-96464358D01*
X88876234Y-96394666D01*
X88904735Y-96350319D01*
X88957553Y-96297501D01*
X89063996Y-96150994D01*
X89146211Y-95989639D01*
X89202171Y-95817409D01*
X89216765Y-95725259D01*
X89230500Y-95638551D01*
X89230500Y-95457448D01*
X89214019Y-95353397D01*
X89202171Y-95278591D01*
X89146211Y-95106361D01*
X89146211Y-95106360D01*
X89117740Y-95050484D01*
X89063996Y-94945006D01*
X89050396Y-94926287D01*
X88957558Y-94798505D01*
X88957554Y-94798500D01*
X88904735Y-94745681D01*
X88871250Y-94684358D01*
X88876234Y-94614666D01*
X88904735Y-94570319D01*
X88957553Y-94517501D01*
X89063996Y-94370994D01*
X89146211Y-94209639D01*
X89202171Y-94037409D01*
X89216765Y-93945259D01*
X89230500Y-93858551D01*
X89230500Y-93677448D01*
X89214019Y-93573397D01*
X89202171Y-93498591D01*
X89146211Y-93326361D01*
X89146211Y-93326360D01*
X89117740Y-93270484D01*
X89063996Y-93165006D01*
X89050396Y-93146287D01*
X88957558Y-93018505D01*
X88957554Y-93018500D01*
X88904735Y-92965681D01*
X88871250Y-92904358D01*
X88876234Y-92834666D01*
X88904735Y-92790319D01*
X88923904Y-92771150D01*
X88957553Y-92737501D01*
X89063996Y-92590994D01*
X89146211Y-92429639D01*
X89202171Y-92257409D01*
X89216765Y-92165259D01*
X89230500Y-92078551D01*
X89230500Y-91897448D01*
X89207883Y-91754656D01*
X89202171Y-91718591D01*
X89146211Y-91546361D01*
X89146211Y-91546360D01*
X89106688Y-91468793D01*
X89063996Y-91385006D01*
X89034404Y-91344276D01*
X88957558Y-91238505D01*
X88957554Y-91238500D01*
X88904735Y-91185681D01*
X88871250Y-91124358D01*
X88876234Y-91054666D01*
X88904735Y-91010319D01*
X88907055Y-91007999D01*
X88957553Y-90957501D01*
X89063996Y-90810994D01*
X89146211Y-90649639D01*
X89202171Y-90477409D01*
X89216765Y-90385259D01*
X89230500Y-90298551D01*
X89230500Y-90117448D01*
X89207883Y-89974656D01*
X89202171Y-89938591D01*
X89146211Y-89766361D01*
X89146211Y-89766360D01*
X89111392Y-89698026D01*
X89063996Y-89605006D01*
X89017233Y-89540642D01*
X88957558Y-89458505D01*
X88957554Y-89458500D01*
X88904735Y-89405681D01*
X88871250Y-89344358D01*
X88876234Y-89274666D01*
X88904735Y-89230319D01*
X88917538Y-89217516D01*
X88957553Y-89177501D01*
X89063996Y-89030994D01*
X89146211Y-88869639D01*
X89202171Y-88697409D01*
X89216765Y-88605259D01*
X89230500Y-88518551D01*
X89230500Y-88337448D01*
X89214019Y-88233397D01*
X89202171Y-88158591D01*
X89146211Y-87986361D01*
X89146211Y-87986360D01*
X89117740Y-87930484D01*
X89063996Y-87825006D01*
X89003171Y-87741287D01*
X88957558Y-87678505D01*
X88957554Y-87678500D01*
X88904735Y-87625681D01*
X88871250Y-87564358D01*
X88876234Y-87494666D01*
X88904735Y-87450319D01*
X88918894Y-87436160D01*
X88957553Y-87397501D01*
X89063996Y-87250994D01*
X89146211Y-87089639D01*
X89202171Y-86917409D01*
X89216765Y-86825259D01*
X89230500Y-86738551D01*
X89230500Y-86557448D01*
X89214019Y-86453397D01*
X89202171Y-86378591D01*
X89174191Y-86292476D01*
X89146212Y-86206363D01*
X89146211Y-86206360D01*
X89117740Y-86150484D01*
X89063996Y-86045006D01*
X89050396Y-86026287D01*
X88957558Y-85898505D01*
X88957554Y-85898500D01*
X88904735Y-85845681D01*
X88871250Y-85784358D01*
X88876234Y-85714666D01*
X88904735Y-85670319D01*
X88957553Y-85617501D01*
X89063996Y-85470994D01*
X89146211Y-85309639D01*
X89202171Y-85137409D01*
X89216765Y-85045259D01*
X89230500Y-84958551D01*
X89230500Y-84777448D01*
X89214019Y-84673397D01*
X89202171Y-84598591D01*
X89146211Y-84426361D01*
X89146211Y-84426360D01*
X89117740Y-84370484D01*
X89063996Y-84265006D01*
X89050396Y-84246287D01*
X88957558Y-84118505D01*
X88957554Y-84118500D01*
X88904735Y-84065681D01*
X88871250Y-84004358D01*
X88876234Y-83934666D01*
X88904735Y-83890319D01*
X88957553Y-83837501D01*
X89063996Y-83690994D01*
X89146211Y-83529639D01*
X89202171Y-83357409D01*
X89216765Y-83265259D01*
X89230500Y-83178551D01*
X89230500Y-82997448D01*
X89214019Y-82893397D01*
X89202171Y-82818591D01*
X89146211Y-82646361D01*
X89146211Y-82646360D01*
X89117740Y-82590484D01*
X89063996Y-82485006D01*
X89033388Y-82442878D01*
X88957558Y-82338505D01*
X88957554Y-82338500D01*
X88904735Y-82285681D01*
X88871250Y-82224358D01*
X88876234Y-82154666D01*
X88904735Y-82110319D01*
X88957553Y-82057501D01*
X89063996Y-81910994D01*
X89146211Y-81749639D01*
X89202171Y-81577409D01*
X89216765Y-81485259D01*
X89230500Y-81398551D01*
X89230500Y-81217448D01*
X89214019Y-81113397D01*
X89202171Y-81038591D01*
X89146211Y-80866361D01*
X89146211Y-80866360D01*
X89117740Y-80810484D01*
X89063996Y-80705006D01*
X89050396Y-80686287D01*
X88957558Y-80558505D01*
X88957554Y-80558500D01*
X88904735Y-80505681D01*
X88871250Y-80444358D01*
X88876234Y-80374666D01*
X88904735Y-80330319D01*
X88957553Y-80277501D01*
X89063996Y-80130994D01*
X89146211Y-79969639D01*
X89202171Y-79797409D01*
X89216765Y-79705259D01*
X89230500Y-79618551D01*
X89230500Y-79437448D01*
X89214019Y-79333397D01*
X89202171Y-79258591D01*
X89146211Y-79086361D01*
X89146211Y-79086360D01*
X89117740Y-79030484D01*
X89063996Y-78925006D01*
X89050396Y-78906287D01*
X88957558Y-78778505D01*
X88957554Y-78778500D01*
X88904735Y-78725681D01*
X88871250Y-78664358D01*
X88876234Y-78594666D01*
X88904735Y-78550319D01*
X88957553Y-78497501D01*
X89063996Y-78350994D01*
X89146211Y-78189639D01*
X89202171Y-78017409D01*
X89216765Y-77925259D01*
X89230500Y-77838551D01*
X89230500Y-77657448D01*
X89214019Y-77553397D01*
X89202171Y-77478591D01*
X89146211Y-77306361D01*
X89146211Y-77306360D01*
X89117740Y-77250484D01*
X89063996Y-77145006D01*
X89050396Y-77126287D01*
X88957558Y-76998505D01*
X88957554Y-76998500D01*
X88904735Y-76945681D01*
X88871250Y-76884358D01*
X88876234Y-76814666D01*
X88904735Y-76770319D01*
X88957553Y-76717501D01*
X89063996Y-76570994D01*
X89146211Y-76409639D01*
X89202171Y-76237409D01*
X89216765Y-76145259D01*
X89230500Y-76058551D01*
X89230500Y-75877448D01*
X89214019Y-75773397D01*
X89202171Y-75698591D01*
X89146211Y-75526361D01*
X89146211Y-75526360D01*
X89117740Y-75470484D01*
X89063996Y-75365006D01*
X89050396Y-75346287D01*
X88957558Y-75218505D01*
X88957554Y-75218500D01*
X88904735Y-75165681D01*
X88871250Y-75104358D01*
X88876234Y-75034666D01*
X88904735Y-74990319D01*
X88957553Y-74937501D01*
X89063996Y-74790994D01*
X89146211Y-74629639D01*
X89202171Y-74457409D01*
X89216765Y-74365259D01*
X89230500Y-74278551D01*
X89230500Y-74097448D01*
X89214019Y-73993397D01*
X89202171Y-73918591D01*
X89146211Y-73746361D01*
X89146211Y-73746360D01*
X89117740Y-73690484D01*
X89063996Y-73585006D01*
X89050396Y-73566287D01*
X88957558Y-73438505D01*
X88957554Y-73438500D01*
X88904735Y-73385681D01*
X88871250Y-73324358D01*
X88876234Y-73254666D01*
X88904735Y-73210319D01*
X88957553Y-73157501D01*
X89063996Y-73010994D01*
X89146211Y-72849639D01*
X89202171Y-72677409D01*
X89216765Y-72585259D01*
X89230500Y-72498551D01*
X89230500Y-72317448D01*
X89214019Y-72213397D01*
X89202171Y-72138591D01*
X89146211Y-71966361D01*
X89146211Y-71966360D01*
X89117740Y-71910484D01*
X89063996Y-71805006D01*
X89050396Y-71786287D01*
X88957558Y-71658505D01*
X88957554Y-71658500D01*
X88904735Y-71605681D01*
X88871250Y-71544358D01*
X88876234Y-71474666D01*
X88904735Y-71430319D01*
X88930554Y-71404500D01*
X88957553Y-71377501D01*
X89063996Y-71230994D01*
X89146211Y-71069639D01*
X89202171Y-70897409D01*
X89219878Y-70785610D01*
X89230500Y-70718551D01*
X89230500Y-70537448D01*
X89209332Y-70403806D01*
X89202171Y-70358591D01*
X89169616Y-70258394D01*
X89146212Y-70186363D01*
X89146211Y-70186360D01*
X89077413Y-70051339D01*
X89063996Y-70025006D01*
X89047026Y-70001648D01*
X88957558Y-69878505D01*
X88957554Y-69878500D01*
X88904735Y-69825681D01*
X88871250Y-69764358D01*
X88876234Y-69694666D01*
X88904735Y-69650319D01*
X88930390Y-69624664D01*
X88957553Y-69597501D01*
X89063996Y-69450994D01*
X89146211Y-69289639D01*
X89202171Y-69117409D01*
X89216765Y-69025259D01*
X89230500Y-68938551D01*
X89230500Y-68757448D01*
X89214019Y-68653397D01*
X89202171Y-68578591D01*
X89174191Y-68492476D01*
X89146212Y-68406363D01*
X89146211Y-68406360D01*
X89105702Y-68326859D01*
X89063996Y-68245006D01*
X89041816Y-68214478D01*
X88957558Y-68098505D01*
X88957554Y-68098500D01*
X88904735Y-68045681D01*
X88871250Y-67984358D01*
X88876234Y-67914666D01*
X88904735Y-67870319D01*
X88906521Y-67868533D01*
X88957553Y-67817501D01*
X89063996Y-67670994D01*
X89146211Y-67509639D01*
X89202171Y-67337409D01*
X89216765Y-67245259D01*
X89230500Y-67158551D01*
X89230500Y-66977448D01*
X89212616Y-66864536D01*
X89202171Y-66798591D01*
X89146211Y-66626361D01*
X89146211Y-66626360D01*
X89117740Y-66570484D01*
X89063996Y-66465006D01*
X89050396Y-66446287D01*
X88957558Y-66318505D01*
X88957554Y-66318500D01*
X88904735Y-66265681D01*
X88871250Y-66204358D01*
X88876234Y-66134666D01*
X88904735Y-66090319D01*
X88957553Y-66037501D01*
X89063996Y-65890994D01*
X89146211Y-65729639D01*
X89202171Y-65557409D01*
X89216765Y-65465259D01*
X89230500Y-65378551D01*
X89230500Y-65197448D01*
X89214019Y-65093397D01*
X89202171Y-65018591D01*
X89146211Y-64846361D01*
X89146211Y-64846360D01*
X89081554Y-64719466D01*
X89063996Y-64685006D01*
X89050396Y-64666287D01*
X88957558Y-64538505D01*
X88957554Y-64538500D01*
X88904735Y-64485681D01*
X88871250Y-64424358D01*
X88876234Y-64354666D01*
X88904735Y-64310319D01*
X88927554Y-64287500D01*
X88957553Y-64257501D01*
X89063996Y-64110994D01*
X89146211Y-63949639D01*
X89202171Y-63777409D01*
X89223378Y-63643515D01*
X89230500Y-63598551D01*
X89230500Y-63417448D01*
X89203481Y-63246863D01*
X89202171Y-63238591D01*
X89156908Y-63099284D01*
X89146212Y-63066363D01*
X89146211Y-63066360D01*
X89103848Y-62983219D01*
X89063996Y-62905006D01*
X89050396Y-62886287D01*
X88957558Y-62758505D01*
X88957554Y-62758500D01*
X88904735Y-62705681D01*
X88871250Y-62644358D01*
X88876234Y-62574666D01*
X88904735Y-62530319D01*
X88957553Y-62477501D01*
X89063996Y-62330994D01*
X89146211Y-62169639D01*
X89202171Y-61997409D01*
X89216765Y-61905259D01*
X89230500Y-61818551D01*
X89230500Y-61637448D01*
X89214019Y-61533397D01*
X89202171Y-61458591D01*
X89158598Y-61324485D01*
X89146212Y-61286363D01*
X89146211Y-61286360D01*
X89102544Y-61200661D01*
X89063996Y-61125006D01*
X88980825Y-61010530D01*
X88957558Y-60978505D01*
X88957554Y-60978500D01*
X88904735Y-60925681D01*
X88871250Y-60864358D01*
X88876234Y-60794666D01*
X88904735Y-60750319D01*
X88957553Y-60697501D01*
X89063996Y-60550994D01*
X89146211Y-60389639D01*
X89202171Y-60217409D01*
X89229264Y-60046352D01*
X89230500Y-60038551D01*
X89230500Y-59857448D01*
X89214019Y-59753397D01*
X89202171Y-59678591D01*
X89146211Y-59506361D01*
X89146211Y-59506360D01*
X89101983Y-59419559D01*
X89063996Y-59345006D01*
X89018793Y-59282789D01*
X88957558Y-59198505D01*
X88957554Y-59198500D01*
X88829499Y-59070445D01*
X88829494Y-59070441D01*
X88682995Y-58964004D01*
X88657770Y-58951151D01*
X88633258Y-58928000D01*
X89281000Y-58928000D01*
X89281000Y-57404000D01*
X88633816Y-57404000D01*
X88639756Y-57396065D01*
X88657765Y-57384850D01*
X88682994Y-57371996D01*
X88829501Y-57265553D01*
X88957553Y-57137501D01*
X89063996Y-56990994D01*
X89146211Y-56829639D01*
X89202171Y-56657409D01*
X89218109Y-56556781D01*
X89230500Y-56478551D01*
X89230500Y-56297448D01*
X89214019Y-56193397D01*
X89202171Y-56118591D01*
X89171279Y-56023515D01*
X89146212Y-55946363D01*
X89146211Y-55946360D01*
X89100155Y-55855972D01*
X89063996Y-55785006D01*
X89050396Y-55766287D01*
X88957558Y-55638505D01*
X88957554Y-55638500D01*
X88904735Y-55585681D01*
X88871250Y-55524358D01*
X88876234Y-55454666D01*
X88904735Y-55410319D01*
X88914620Y-55400434D01*
X88957553Y-55357501D01*
X89063996Y-55210994D01*
X89146211Y-55049639D01*
X89202171Y-54877409D01*
X89220506Y-54761648D01*
X89230500Y-54698551D01*
X89230500Y-54517448D01*
X89208909Y-54381134D01*
X89202171Y-54338591D01*
X89168899Y-54236189D01*
X89146212Y-54166363D01*
X89146211Y-54166360D01*
X89117740Y-54110484D01*
X89063996Y-54005006D01*
X88967387Y-53872034D01*
X88957558Y-53858505D01*
X88957554Y-53858500D01*
X88904735Y-53805681D01*
X88871250Y-53744358D01*
X88876234Y-53674666D01*
X88904735Y-53630319D01*
X88957553Y-53577501D01*
X89063996Y-53430994D01*
X89146211Y-53269639D01*
X89202171Y-53097409D01*
X89216765Y-53005259D01*
X89230500Y-52918551D01*
X89230500Y-52737448D01*
X89205878Y-52581996D01*
X89202171Y-52558591D01*
X89159205Y-52426352D01*
X89146212Y-52386363D01*
X89146211Y-52386360D01*
X89117740Y-52330484D01*
X89063996Y-52225006D01*
X89010752Y-52151721D01*
X88957558Y-52078505D01*
X88957554Y-52078500D01*
X88904735Y-52025681D01*
X88871250Y-51964358D01*
X88876234Y-51894666D01*
X88904735Y-51850319D01*
X88930278Y-51824776D01*
X88957553Y-51797501D01*
X89063996Y-51650994D01*
X89146211Y-51489639D01*
X89202171Y-51317409D01*
X89226392Y-51164485D01*
X89230500Y-51138551D01*
X89230500Y-50957448D01*
X89214019Y-50853397D01*
X89202171Y-50778591D01*
X89146211Y-50606361D01*
X89146211Y-50606360D01*
X89117740Y-50550484D01*
X89063996Y-50445006D01*
X89050396Y-50426287D01*
X88957558Y-50298505D01*
X88957554Y-50298500D01*
X88904735Y-50245681D01*
X88871250Y-50184358D01*
X88876234Y-50114666D01*
X88904735Y-50070319D01*
X88957553Y-50017501D01*
X89063996Y-49870994D01*
X89146211Y-49709639D01*
X89202171Y-49537409D01*
X89222710Y-49407731D01*
X89230500Y-49358551D01*
X89230500Y-49177448D01*
X89214019Y-49073397D01*
X89202171Y-48998591D01*
X89146211Y-48826361D01*
X89146211Y-48826360D01*
X89067413Y-48671713D01*
X89063996Y-48665006D01*
X89006193Y-48585446D01*
X88957558Y-48518505D01*
X88957554Y-48518500D01*
X88904735Y-48465681D01*
X88871250Y-48404358D01*
X88876234Y-48334666D01*
X88904735Y-48290319D01*
X88957553Y-48237501D01*
X89063996Y-48090994D01*
X89146211Y-47929639D01*
X89202171Y-47757409D01*
X89228441Y-47591548D01*
X89230500Y-47578551D01*
X89230500Y-47397448D01*
X89214019Y-47293397D01*
X89202171Y-47218591D01*
X89146211Y-47046361D01*
X89146211Y-47046360D01*
X89092368Y-46940689D01*
X89063996Y-46885006D01*
X89023605Y-46829412D01*
X88957558Y-46738505D01*
X88957554Y-46738500D01*
X88904735Y-46685681D01*
X88871250Y-46624358D01*
X88876234Y-46554666D01*
X88904735Y-46510319D01*
X88957553Y-46457501D01*
X89063996Y-46310994D01*
X89146211Y-46149639D01*
X89202171Y-45977409D01*
X89220210Y-45863515D01*
X89230500Y-45798551D01*
X89230500Y-45617448D01*
X89212216Y-45502013D01*
X89202171Y-45438591D01*
X89146211Y-45266361D01*
X89146211Y-45266360D01*
X89108775Y-45192889D01*
X89063996Y-45105006D01*
X89014816Y-45037315D01*
X88957558Y-44958505D01*
X88957554Y-44958500D01*
X88904735Y-44905681D01*
X88871250Y-44844358D01*
X88876234Y-44774666D01*
X88904735Y-44730319D01*
X88928851Y-44706203D01*
X88957553Y-44677501D01*
X89063996Y-44530994D01*
X89146211Y-44369639D01*
X89202171Y-44197409D01*
X89216765Y-44105259D01*
X89230500Y-44018551D01*
X89230500Y-43837448D01*
X89214019Y-43733397D01*
X89202171Y-43658591D01*
X89165096Y-43544485D01*
X89146212Y-43486363D01*
X89146211Y-43486360D01*
X89089715Y-43375483D01*
X89063996Y-43325006D01*
X89007504Y-43247251D01*
X88957558Y-43178505D01*
X88957554Y-43178500D01*
X88904735Y-43125681D01*
X88871250Y-43064358D01*
X88876234Y-42994666D01*
X88904735Y-42950319D01*
X88928195Y-42926859D01*
X88957553Y-42897501D01*
X89063996Y-42750994D01*
X89146211Y-42589639D01*
X89202171Y-42417409D01*
X89218469Y-42314508D01*
X89230500Y-42238551D01*
X89230500Y-42057448D01*
X89211789Y-41939318D01*
X89202171Y-41878591D01*
X89174191Y-41792476D01*
X89146212Y-41706363D01*
X89146211Y-41706360D01*
X89117740Y-41650484D01*
X89063996Y-41545006D01*
X89003733Y-41462060D01*
X88957558Y-41398505D01*
X88957554Y-41398500D01*
X88829499Y-41270445D01*
X88829494Y-41270441D01*
X88682997Y-41164006D01*
X88682996Y-41164005D01*
X88682994Y-41164004D01*
X88604879Y-41124202D01*
X88521639Y-41081788D01*
X88521636Y-41081787D01*
X88349410Y-41025829D01*
X88170551Y-40997500D01*
X88170546Y-40997500D01*
X87089454Y-40997500D01*
X87089449Y-40997500D01*
X86910589Y-41025829D01*
X86738363Y-41081787D01*
X86738360Y-41081788D01*
X86577002Y-41164006D01*
X86430505Y-41270441D01*
X86430500Y-41270445D01*
X86302445Y-41398500D01*
X86302441Y-41398505D01*
X86196006Y-41545002D01*
X86113788Y-41706360D01*
X86113787Y-41706363D01*
X86057829Y-41878589D01*
X86029500Y-42057448D01*
X86029500Y-42238551D01*
X86057829Y-42417410D01*
X86113787Y-42589636D01*
X86113788Y-42589639D01*
X86196006Y-42750997D01*
X86302441Y-42897494D01*
X86302445Y-42897499D01*
X86355265Y-42950320D01*
X86388749Y-43011643D01*
X86383764Y-43081335D01*
X86355265Y-43125680D01*
X86302445Y-43178500D01*
X86302441Y-43178505D01*
X86196006Y-43325002D01*
X86113788Y-43486360D01*
X86113787Y-43486363D01*
X86057829Y-43658589D01*
X86029500Y-43837448D01*
X86029500Y-44018551D01*
X86057829Y-44197410D01*
X86113787Y-44369636D01*
X86113788Y-44369639D01*
X86196006Y-44530997D01*
X86302441Y-44677494D01*
X86302445Y-44677499D01*
X86355265Y-44730320D01*
X86388749Y-44791643D01*
X86383764Y-44861335D01*
X86355265Y-44905680D01*
X86302445Y-44958500D01*
X86302441Y-44958505D01*
X86196006Y-45105002D01*
X86113788Y-45266360D01*
X86113787Y-45266363D01*
X86057829Y-45438589D01*
X86029500Y-45617448D01*
X86029500Y-45798551D01*
X86057829Y-45977410D01*
X86113787Y-46149636D01*
X86113788Y-46149639D01*
X86196006Y-46310997D01*
X86302441Y-46457494D01*
X86302445Y-46457499D01*
X86355265Y-46510320D01*
X86388749Y-46571643D01*
X86383764Y-46641335D01*
X86355265Y-46685680D01*
X86302445Y-46738500D01*
X86302441Y-46738505D01*
X86196006Y-46885002D01*
X86113788Y-47046360D01*
X86113787Y-47046363D01*
X86057829Y-47218589D01*
X86029500Y-47397448D01*
X86029500Y-47578551D01*
X86057829Y-47757410D01*
X86113787Y-47929636D01*
X86113788Y-47929639D01*
X86196006Y-48090997D01*
X86302441Y-48237494D01*
X86302445Y-48237499D01*
X86355265Y-48290320D01*
X86388749Y-48351643D01*
X86383764Y-48421335D01*
X86355265Y-48465680D01*
X86302445Y-48518500D01*
X86302441Y-48518505D01*
X86196006Y-48665002D01*
X86113788Y-48826360D01*
X86113787Y-48826363D01*
X86057829Y-48998589D01*
X86029500Y-49177448D01*
X86029500Y-49358551D01*
X86057829Y-49537410D01*
X86113787Y-49709636D01*
X86113788Y-49709639D01*
X86196006Y-49870997D01*
X86302441Y-50017494D01*
X86302445Y-50017499D01*
X86355265Y-50070320D01*
X86388749Y-50131643D01*
X86383764Y-50201335D01*
X86355265Y-50245680D01*
X86302445Y-50298500D01*
X86302441Y-50298505D01*
X86196006Y-50445002D01*
X86113788Y-50606360D01*
X86113787Y-50606363D01*
X86057829Y-50778589D01*
X86029500Y-50957448D01*
X86029500Y-51138551D01*
X86057829Y-51317410D01*
X86113787Y-51489636D01*
X86113788Y-51489639D01*
X86196006Y-51650997D01*
X86302441Y-51797494D01*
X86302445Y-51797499D01*
X86355265Y-51850320D01*
X86388749Y-51911643D01*
X86383764Y-51981335D01*
X86355265Y-52025680D01*
X86302445Y-52078500D01*
X86302441Y-52078505D01*
X86196006Y-52225002D01*
X86113788Y-52386360D01*
X86113787Y-52386363D01*
X86057829Y-52558589D01*
X86029500Y-52737448D01*
X86029500Y-52918551D01*
X86057829Y-53097410D01*
X86113787Y-53269636D01*
X86113788Y-53269639D01*
X86196006Y-53430997D01*
X86302441Y-53577494D01*
X86302445Y-53577499D01*
X86355265Y-53630320D01*
X86388749Y-53691643D01*
X86383764Y-53761335D01*
X86355265Y-53805680D01*
X86302445Y-53858500D01*
X86302441Y-53858505D01*
X86196006Y-54005002D01*
X86113788Y-54166360D01*
X86113787Y-54166363D01*
X86061069Y-54328618D01*
X86021632Y-54386293D01*
X85957274Y-54413492D01*
X85943138Y-54414300D01*
X78045802Y-54414300D01*
X77978763Y-54394615D01*
X77958121Y-54377981D01*
X75397005Y-51816863D01*
X75397004Y-51816862D01*
X75368025Y-51797499D01*
X75290064Y-51745408D01*
X75245997Y-51727155D01*
X75171244Y-51696191D01*
X75171238Y-51696189D01*
X75117299Y-51685460D01*
X75055388Y-51653075D01*
X75041175Y-51636731D01*
X74991005Y-51567677D01*
X74924969Y-51476784D01*
X74780213Y-51332028D01*
X74614614Y-51211715D01*
X74608006Y-51208348D01*
X74521917Y-51164483D01*
X74471123Y-51116511D01*
X74454328Y-51048690D01*
X74476865Y-50982555D01*
X74521917Y-50943516D01*
X74614610Y-50896287D01*
X74635770Y-50880913D01*
X74780213Y-50775971D01*
X74780215Y-50775968D01*
X74780219Y-50775966D01*
X74924966Y-50631219D01*
X74924968Y-50631215D01*
X74924971Y-50631213D01*
X74977732Y-50558590D01*
X75045287Y-50465610D01*
X75138220Y-50283219D01*
X75201477Y-50088534D01*
X75233500Y-49886352D01*
X75233500Y-49681648D01*
X75210655Y-49537410D01*
X75201477Y-49479465D01*
X75138218Y-49284776D01*
X75072700Y-49156191D01*
X75045287Y-49102390D01*
X75032591Y-49084915D01*
X74924971Y-48936786D01*
X74780213Y-48792028D01*
X74614614Y-48671715D01*
X74601439Y-48665002D01*
X74521917Y-48624483D01*
X74471123Y-48576511D01*
X74454328Y-48508690D01*
X74476865Y-48442555D01*
X74521917Y-48403516D01*
X74614610Y-48356287D01*
X74705408Y-48290319D01*
X74780213Y-48235971D01*
X74780215Y-48235968D01*
X74780219Y-48235966D01*
X74924966Y-48091219D01*
X75029010Y-47948013D01*
X75084338Y-47905349D01*
X75129327Y-47896900D01*
X81852307Y-47896900D01*
X81937165Y-47880019D01*
X81978444Y-47871809D01*
X82097264Y-47822592D01*
X82104084Y-47818035D01*
X82204200Y-47751141D01*
X84835140Y-45120200D01*
X84906592Y-45013264D01*
X84955809Y-44894444D01*
X84958944Y-44878685D01*
X84980900Y-44768305D01*
X84980900Y-40961802D01*
X85000585Y-40894763D01*
X85017219Y-40874121D01*
X85451121Y-40440219D01*
X85512444Y-40406734D01*
X85538802Y-40403900D01*
X96960197Y-40403900D01*
X97027236Y-40423585D01*
X97047878Y-40440219D01*
X98624781Y-42017121D01*
X98658266Y-42078444D01*
X98661100Y-42104802D01*
X98661100Y-82741305D01*
X98661100Y-82741307D01*
X98661099Y-82741307D01*
X98686189Y-82867438D01*
X98686191Y-82867444D01*
X98735407Y-82986262D01*
X98806862Y-83093204D01*
X98806863Y-83093205D01*
X101088795Y-85375136D01*
X101088798Y-85375139D01*
X101088801Y-85375141D01*
X101195736Y-85446592D01*
X101314556Y-85495809D01*
X101314560Y-85495809D01*
X101314561Y-85495810D01*
X101440692Y-85520900D01*
X101440695Y-85520900D01*
X106869081Y-85520900D01*
X106902336Y-85530665D01*
X106935857Y-85540416D01*
X106935998Y-85540549D01*
X106936120Y-85540585D01*
X106962589Y-85563461D01*
X106966184Y-85567588D01*
X107002447Y-85617501D01*
X107058283Y-85673337D01*
X107061091Y-85676561D01*
X107073973Y-85704583D01*
X107088749Y-85731643D01*
X107088434Y-85736038D01*
X107090276Y-85740044D01*
X107085963Y-85770584D01*
X107083764Y-85801335D01*
X107081018Y-85805607D01*
X107080507Y-85809227D01*
X107073376Y-85817497D01*
X107055265Y-85845680D01*
X107002445Y-85898500D01*
X107002441Y-85898505D01*
X106896006Y-86045002D01*
X106813788Y-86206360D01*
X106813787Y-86206363D01*
X106757829Y-86378589D01*
X106729500Y-86557448D01*
X106729500Y-86738551D01*
X106757829Y-86917410D01*
X106813787Y-87089636D01*
X106813788Y-87089639D01*
X106896006Y-87250997D01*
X107002441Y-87397494D01*
X107002445Y-87397499D01*
X107055265Y-87450320D01*
X107088749Y-87511643D01*
X107083764Y-87581335D01*
X107055265Y-87625680D01*
X107002445Y-87678500D01*
X107002441Y-87678505D01*
X106896006Y-87825002D01*
X106813788Y-87986360D01*
X106813787Y-87986363D01*
X106757829Y-88158589D01*
X106729500Y-88337448D01*
X106729500Y-88518551D01*
X106757829Y-88697410D01*
X106813787Y-88869636D01*
X106813788Y-88869639D01*
X106896006Y-89030997D01*
X107002441Y-89177494D01*
X107002445Y-89177499D01*
X107130500Y-89305554D01*
X107130505Y-89305558D01*
X107277001Y-89411993D01*
X107277003Y-89411994D01*
X107277006Y-89411996D01*
X107302228Y-89424847D01*
X107353024Y-89472821D01*
X107369819Y-89540642D01*
X107347282Y-89606777D01*
X107333615Y-89623013D01*
X107258598Y-89698030D01*
X107171052Y-89829051D01*
X107171047Y-89829060D01*
X107110743Y-89974648D01*
X107110741Y-89974656D01*
X107080000Y-90129202D01*
X107080000Y-90286797D01*
X107110741Y-90441343D01*
X107110743Y-90441351D01*
X107171047Y-90586939D01*
X107171052Y-90586948D01*
X107258598Y-90717969D01*
X107258601Y-90717973D01*
X107370024Y-90829396D01*
X107370032Y-90829403D01*
X107403434Y-90851721D01*
X107403435Y-90851721D01*
X107861980Y-90393175D01*
X107864075Y-90400993D01*
X107929901Y-90515007D01*
X108022993Y-90608099D01*
X108137007Y-90673925D01*
X108144822Y-90676019D01*
X107812841Y-91007999D01*
X107830465Y-91050548D01*
X107837934Y-91120017D01*
X107830465Y-91145452D01*
X107812841Y-91188000D01*
X108144822Y-91519980D01*
X108137007Y-91522075D01*
X108022993Y-91587901D01*
X107929901Y-91680993D01*
X107864075Y-91795007D01*
X107861980Y-91802821D01*
X107403435Y-91344276D01*
X107370033Y-91366596D01*
X107370031Y-91366598D01*
X107258597Y-91478031D01*
X107171052Y-91609051D01*
X107171047Y-91609060D01*
X107110743Y-91754648D01*
X107110741Y-91754656D01*
X107080000Y-91909202D01*
X107080000Y-92066797D01*
X107110741Y-92221343D01*
X107110743Y-92221351D01*
X107171047Y-92366939D01*
X107171052Y-92366948D01*
X107258598Y-92497969D01*
X107258601Y-92497973D01*
X107333614Y-92572986D01*
X107367099Y-92634309D01*
X107362115Y-92704001D01*
X107320243Y-92759934D01*
X107302230Y-92771150D01*
X107277008Y-92784001D01*
X107277006Y-92784003D01*
X107130505Y-92890441D01*
X107130500Y-92890445D01*
X107002445Y-93018500D01*
X107002441Y-93018505D01*
X106896006Y-93165002D01*
X106813788Y-93326360D01*
X106813787Y-93326363D01*
X106757829Y-93498589D01*
X106729500Y-93677448D01*
X106729500Y-93858551D01*
X106757829Y-94037410D01*
X106813787Y-94209636D01*
X106813788Y-94209639D01*
X106896006Y-94370997D01*
X107002441Y-94517494D01*
X107002445Y-94517499D01*
X107055265Y-94570320D01*
X107088749Y-94631643D01*
X107083764Y-94701335D01*
X107055265Y-94745680D01*
X107002445Y-94798500D01*
X107002441Y-94798505D01*
X106896006Y-94945002D01*
X106813788Y-95106360D01*
X106813787Y-95106363D01*
X106757829Y-95278589D01*
X106729500Y-95457448D01*
X106729500Y-95638551D01*
X106757829Y-95817410D01*
X106813787Y-95989636D01*
X106813788Y-95989639D01*
X106896006Y-96150997D01*
X107002441Y-96297494D01*
X107002445Y-96297499D01*
X107111159Y-96406213D01*
X107144644Y-96467536D01*
X107139660Y-96537228D01*
X107126581Y-96562784D01*
X107088702Y-96619474D01*
X107088701Y-96619477D01*
X107080000Y-96663220D01*
X107080000Y-97992771D01*
X107088703Y-98036526D01*
X107088704Y-98036529D01*
X107121856Y-98086143D01*
X107171473Y-98119296D01*
X107171477Y-98119298D01*
X107215221Y-98127999D01*
X107269998Y-98127998D01*
X107276709Y-98111797D01*
X107281342Y-98104863D01*
X107282439Y-98099821D01*
X107303590Y-98071567D01*
X107363934Y-98011223D01*
X107861980Y-97513177D01*
X107864075Y-97520993D01*
X107929901Y-97635007D01*
X108022993Y-97728099D01*
X108137007Y-97793925D01*
X108144821Y-97796019D01*
X107812841Y-98127998D01*
X107812842Y-98127999D01*
X108847157Y-98127999D01*
X108847157Y-98127998D01*
X108515178Y-97796019D01*
X108522993Y-97793925D01*
X108637007Y-97728099D01*
X108730099Y-97635007D01*
X108795925Y-97520993D01*
X108798019Y-97513177D01*
X109356408Y-98071566D01*
X109383289Y-98111797D01*
X109390000Y-98127999D01*
X109444772Y-98127999D01*
X109488526Y-98119296D01*
X109488529Y-98119295D01*
X109538143Y-98086143D01*
X109571296Y-98036526D01*
X109571298Y-98036522D01*
X109579999Y-97992779D01*
X109579999Y-96663228D01*
X109571296Y-96619473D01*
X109571295Y-96619470D01*
X109533419Y-96562785D01*
X109512541Y-96496108D01*
X109531025Y-96428727D01*
X109548832Y-96406221D01*
X109657553Y-96297501D01*
X109763996Y-96150994D01*
X109846211Y-95989639D01*
X109902171Y-95817409D01*
X109916765Y-95725259D01*
X109930500Y-95638551D01*
X109930500Y-95457448D01*
X109914019Y-95353397D01*
X109902171Y-95278591D01*
X109846211Y-95106361D01*
X109846211Y-95106360D01*
X109817740Y-95050484D01*
X109763996Y-94945006D01*
X109750396Y-94926287D01*
X109657558Y-94798505D01*
X109657554Y-94798500D01*
X109604735Y-94745681D01*
X109571250Y-94684358D01*
X109576234Y-94614666D01*
X109604735Y-94570319D01*
X109657553Y-94517501D01*
X109763996Y-94370994D01*
X109846211Y-94209639D01*
X109902171Y-94037409D01*
X109916765Y-93945259D01*
X109930500Y-93858551D01*
X109930500Y-93677448D01*
X109914019Y-93573397D01*
X109902171Y-93498591D01*
X109846211Y-93326361D01*
X109846211Y-93326360D01*
X109817740Y-93270484D01*
X109763996Y-93165006D01*
X109750396Y-93146287D01*
X109657558Y-93018505D01*
X109657554Y-93018500D01*
X109529499Y-92890445D01*
X109529494Y-92890441D01*
X109382995Y-92784004D01*
X109357770Y-92771151D01*
X109306975Y-92723176D01*
X109290180Y-92655355D01*
X109312718Y-92589220D01*
X109326385Y-92572985D01*
X109401402Y-92497968D01*
X109488947Y-92366948D01*
X109488952Y-92366939D01*
X109549256Y-92221351D01*
X109549258Y-92221343D01*
X109579999Y-92066797D01*
X109580000Y-92066794D01*
X109580000Y-91909206D01*
X109579999Y-91909202D01*
X109549258Y-91754656D01*
X109549256Y-91754648D01*
X109488952Y-91609060D01*
X109488947Y-91609051D01*
X109401402Y-91478031D01*
X109289967Y-91366597D01*
X109256564Y-91344277D01*
X109256563Y-91344277D01*
X108798018Y-91802821D01*
X108795925Y-91795007D01*
X108730099Y-91680993D01*
X108637007Y-91587901D01*
X108522993Y-91522075D01*
X108515177Y-91519980D01*
X108847158Y-91188000D01*
X108829534Y-91145453D01*
X108822065Y-91075984D01*
X108829534Y-91050547D01*
X108847158Y-91007999D01*
X108515177Y-90676019D01*
X108522993Y-90673925D01*
X108637007Y-90608099D01*
X108730099Y-90515007D01*
X108795925Y-90400993D01*
X108798019Y-90393177D01*
X109256563Y-90851721D01*
X109256565Y-90851722D01*
X109289965Y-90829404D01*
X109289973Y-90829398D01*
X109401398Y-90717973D01*
X109401401Y-90717969D01*
X109488947Y-90586948D01*
X109488952Y-90586939D01*
X109549256Y-90441351D01*
X109549258Y-90441343D01*
X109579999Y-90286797D01*
X109580000Y-90286794D01*
X109580000Y-90129206D01*
X109579999Y-90129202D01*
X109549258Y-89974656D01*
X109549256Y-89974648D01*
X109488952Y-89829060D01*
X109488947Y-89829051D01*
X109401401Y-89698030D01*
X109401398Y-89698026D01*
X109326385Y-89623013D01*
X109292900Y-89561690D01*
X109297884Y-89491998D01*
X109339756Y-89436065D01*
X109357765Y-89424850D01*
X109382994Y-89411996D01*
X109529501Y-89305553D01*
X109657553Y-89177501D01*
X109763996Y-89030994D01*
X109846211Y-88869639D01*
X109902171Y-88697409D01*
X109916765Y-88605259D01*
X109930500Y-88518551D01*
X109930500Y-88337448D01*
X109914019Y-88233397D01*
X109902171Y-88158591D01*
X109846211Y-87986361D01*
X109846211Y-87986360D01*
X109817740Y-87930484D01*
X109763996Y-87825006D01*
X109703171Y-87741287D01*
X109657558Y-87678505D01*
X109657554Y-87678500D01*
X109604735Y-87625681D01*
X109600396Y-87617735D01*
X109593149Y-87612310D01*
X109583914Y-87587550D01*
X109571250Y-87564358D01*
X109571895Y-87555328D01*
X109568732Y-87546846D01*
X109572676Y-87528713D01*
X115743500Y-87528713D01*
X115743500Y-87741287D01*
X115776754Y-87951243D01*
X115788165Y-87986363D01*
X115842444Y-88153414D01*
X115938951Y-88342820D01*
X116063890Y-88514786D01*
X116177430Y-88628326D01*
X116210915Y-88689649D01*
X116205931Y-88759341D01*
X116164059Y-88815274D01*
X116133083Y-88832189D01*
X116001669Y-88881203D01*
X116001664Y-88881206D01*
X115886455Y-88967452D01*
X115886452Y-88967455D01*
X115800206Y-89082664D01*
X115800202Y-89082671D01*
X115749908Y-89217517D01*
X115743501Y-89277116D01*
X115743501Y-89277123D01*
X115743500Y-89277135D01*
X115743500Y-91072870D01*
X115743501Y-91072876D01*
X115749908Y-91132483D01*
X115800202Y-91267328D01*
X115800206Y-91267335D01*
X115886452Y-91382544D01*
X115886455Y-91382547D01*
X116001664Y-91468793D01*
X116001671Y-91468797D01*
X116136517Y-91519091D01*
X116136516Y-91519091D01*
X116143444Y-91519835D01*
X116196127Y-91525500D01*
X117991872Y-91525499D01*
X118051483Y-91519091D01*
X118186331Y-91468796D01*
X118301546Y-91382546D01*
X118387796Y-91267331D01*
X118438091Y-91132483D01*
X118444500Y-91072873D01*
X118444499Y-89277128D01*
X118438091Y-89217517D01*
X118423165Y-89177499D01*
X118387797Y-89082671D01*
X118387793Y-89082664D01*
X118301547Y-88967455D01*
X118301544Y-88967452D01*
X118186335Y-88881206D01*
X118186328Y-88881202D01*
X118054917Y-88832189D01*
X117998983Y-88790318D01*
X117974566Y-88724853D01*
X117989418Y-88656580D01*
X118010563Y-88628332D01*
X118124104Y-88514792D01*
X118249051Y-88342816D01*
X118345557Y-88153412D01*
X118411246Y-87951243D01*
X118444500Y-87741287D01*
X118444500Y-87528713D01*
X118411246Y-87318757D01*
X118345557Y-87116588D01*
X118249051Y-86927184D01*
X118249049Y-86927181D01*
X118249048Y-86927179D01*
X118124109Y-86755213D01*
X117973786Y-86604890D01*
X117801820Y-86479951D01*
X117612414Y-86383444D01*
X117612413Y-86383443D01*
X117612412Y-86383443D01*
X117410243Y-86317754D01*
X117410241Y-86317753D01*
X117410240Y-86317753D01*
X117248957Y-86292208D01*
X117200287Y-86284500D01*
X116987713Y-86284500D01*
X116939042Y-86292208D01*
X116777760Y-86317753D01*
X116575585Y-86383444D01*
X116386179Y-86479951D01*
X116214213Y-86604890D01*
X116063890Y-86755213D01*
X115938951Y-86927179D01*
X115842444Y-87116585D01*
X115776753Y-87318760D01*
X115746204Y-87511643D01*
X115743500Y-87528713D01*
X109572676Y-87528713D01*
X109574348Y-87521025D01*
X109576234Y-87494666D01*
X109582052Y-87485612D01*
X109583584Y-87478573D01*
X109604735Y-87450319D01*
X109618894Y-87436160D01*
X109657553Y-87397501D01*
X109763996Y-87250994D01*
X109846211Y-87089639D01*
X109902171Y-86917409D01*
X109916765Y-86825259D01*
X109930500Y-86738551D01*
X109930500Y-86557448D01*
X109914019Y-86453397D01*
X109902171Y-86378591D01*
X109874191Y-86292476D01*
X109846212Y-86206363D01*
X109846211Y-86206360D01*
X109817740Y-86150484D01*
X109763996Y-86045006D01*
X109750396Y-86026287D01*
X109657558Y-85898505D01*
X109657554Y-85898500D01*
X109604735Y-85845681D01*
X109571250Y-85784358D01*
X109576234Y-85714666D01*
X109604735Y-85670319D01*
X109657553Y-85617501D01*
X109763996Y-85470994D01*
X109846211Y-85309639D01*
X109902171Y-85137409D01*
X109916765Y-85045259D01*
X109930500Y-84958551D01*
X109930500Y-84777448D01*
X109914019Y-84673397D01*
X109902171Y-84598591D01*
X109846211Y-84426361D01*
X109846211Y-84426360D01*
X109817740Y-84370484D01*
X109763996Y-84265006D01*
X109750396Y-84246287D01*
X109657558Y-84118505D01*
X109657554Y-84118500D01*
X109604735Y-84065681D01*
X109571250Y-84004358D01*
X109576234Y-83934666D01*
X109604735Y-83890319D01*
X109657553Y-83837501D01*
X109763996Y-83690994D01*
X109846211Y-83529639D01*
X109902171Y-83357409D01*
X109916765Y-83265259D01*
X109930500Y-83178551D01*
X109930500Y-82997448D01*
X109914019Y-82893397D01*
X109902171Y-82818591D01*
X109846211Y-82646361D01*
X109846211Y-82646360D01*
X109817740Y-82590484D01*
X109763996Y-82485006D01*
X109733388Y-82442878D01*
X109657558Y-82338505D01*
X109657554Y-82338500D01*
X109604735Y-82285681D01*
X109571250Y-82224358D01*
X109576234Y-82154666D01*
X109604735Y-82110319D01*
X109657553Y-82057501D01*
X109763996Y-81910994D01*
X109846211Y-81749639D01*
X109902171Y-81577409D01*
X109916765Y-81485259D01*
X109930500Y-81398551D01*
X109930500Y-81217448D01*
X109914019Y-81113397D01*
X109902171Y-81038591D01*
X109846211Y-80866361D01*
X109846211Y-80866360D01*
X109817740Y-80810484D01*
X109763996Y-80705006D01*
X109750396Y-80686287D01*
X109657558Y-80558505D01*
X109657554Y-80558500D01*
X109604735Y-80505681D01*
X109571250Y-80444358D01*
X109576234Y-80374666D01*
X109604735Y-80330319D01*
X109657553Y-80277501D01*
X109763996Y-80130994D01*
X109846211Y-79969639D01*
X109902171Y-79797409D01*
X109916765Y-79705259D01*
X109930500Y-79618551D01*
X109930500Y-79437448D01*
X109914019Y-79333397D01*
X109902171Y-79258591D01*
X109846211Y-79086361D01*
X109846211Y-79086360D01*
X109817740Y-79030484D01*
X109763996Y-78925006D01*
X109750396Y-78906287D01*
X109657558Y-78778505D01*
X109657554Y-78778500D01*
X109604735Y-78725681D01*
X109571250Y-78664358D01*
X109576234Y-78594666D01*
X109604735Y-78550319D01*
X109657553Y-78497501D01*
X109763996Y-78350994D01*
X109846211Y-78189639D01*
X109902171Y-78017409D01*
X109916765Y-77925259D01*
X109930500Y-77838551D01*
X109930500Y-77657448D01*
X109914019Y-77553397D01*
X109902171Y-77478591D01*
X109846211Y-77306361D01*
X109846211Y-77306360D01*
X109817740Y-77250484D01*
X109763996Y-77145006D01*
X109750396Y-77126287D01*
X109657558Y-76998505D01*
X109657554Y-76998500D01*
X109604735Y-76945681D01*
X109571250Y-76884358D01*
X109576234Y-76814666D01*
X109604735Y-76770319D01*
X109657553Y-76717501D01*
X109763996Y-76570994D01*
X109846211Y-76409639D01*
X109902171Y-76237409D01*
X109916765Y-76145259D01*
X109930500Y-76058551D01*
X109930500Y-75877448D01*
X109914019Y-75773397D01*
X109902171Y-75698591D01*
X109846211Y-75526361D01*
X109846211Y-75526360D01*
X109817740Y-75470484D01*
X109763996Y-75365006D01*
X109750396Y-75346287D01*
X109657558Y-75218505D01*
X109657554Y-75218500D01*
X109604735Y-75165681D01*
X109571250Y-75104358D01*
X109576234Y-75034666D01*
X109604735Y-74990319D01*
X109657553Y-74937501D01*
X109763996Y-74790994D01*
X109846211Y-74629639D01*
X109902171Y-74457409D01*
X109916765Y-74365259D01*
X109930500Y-74278551D01*
X109930500Y-74097448D01*
X109914019Y-73993397D01*
X109902171Y-73918591D01*
X109846211Y-73746361D01*
X109846211Y-73746360D01*
X109817740Y-73690484D01*
X109763996Y-73585006D01*
X109750396Y-73566287D01*
X109657558Y-73438505D01*
X109657554Y-73438500D01*
X109604735Y-73385681D01*
X109571250Y-73324358D01*
X109576234Y-73254666D01*
X109604735Y-73210319D01*
X109657553Y-73157501D01*
X109763996Y-73010994D01*
X109846211Y-72849639D01*
X109902171Y-72677409D01*
X109916765Y-72585259D01*
X109930500Y-72498551D01*
X109930500Y-72317448D01*
X109914019Y-72213397D01*
X109902171Y-72138591D01*
X109846211Y-71966361D01*
X109846211Y-71966360D01*
X109817740Y-71910484D01*
X109763996Y-71805006D01*
X109750396Y-71786287D01*
X109657558Y-71658505D01*
X109657554Y-71658500D01*
X109604735Y-71605681D01*
X109571250Y-71544358D01*
X109576234Y-71474666D01*
X109604735Y-71430319D01*
X109630554Y-71404500D01*
X109657553Y-71377501D01*
X109763996Y-71230994D01*
X109846211Y-71069639D01*
X109902171Y-70897409D01*
X109919878Y-70785610D01*
X109930500Y-70718551D01*
X109930500Y-70537448D01*
X109909332Y-70403806D01*
X109902171Y-70358591D01*
X109869616Y-70258394D01*
X109846212Y-70186363D01*
X109846211Y-70186360D01*
X109777413Y-70051339D01*
X109763996Y-70025006D01*
X109747026Y-70001648D01*
X109657558Y-69878505D01*
X109657554Y-69878500D01*
X109604735Y-69825681D01*
X109571250Y-69764358D01*
X109576234Y-69694666D01*
X109604735Y-69650319D01*
X109630390Y-69624664D01*
X109657553Y-69597501D01*
X109763996Y-69450994D01*
X109846211Y-69289639D01*
X109902171Y-69117409D01*
X109916765Y-69025259D01*
X109930500Y-68938551D01*
X109930500Y-68757448D01*
X109914019Y-68653397D01*
X109902171Y-68578591D01*
X109874191Y-68492476D01*
X109846212Y-68406363D01*
X109846211Y-68406360D01*
X109805702Y-68326859D01*
X109763996Y-68245006D01*
X109741816Y-68214478D01*
X109657558Y-68098505D01*
X109657554Y-68098500D01*
X109604735Y-68045681D01*
X109571250Y-67984358D01*
X109576234Y-67914666D01*
X109604735Y-67870319D01*
X109606521Y-67868533D01*
X109657553Y-67817501D01*
X109763996Y-67670994D01*
X109846211Y-67509639D01*
X109902171Y-67337409D01*
X109916765Y-67245259D01*
X109930500Y-67158551D01*
X109930500Y-66977448D01*
X109912616Y-66864536D01*
X109902171Y-66798591D01*
X109846211Y-66626361D01*
X109846211Y-66626360D01*
X109817740Y-66570484D01*
X109763996Y-66465006D01*
X109750396Y-66446287D01*
X109657558Y-66318505D01*
X109657554Y-66318500D01*
X109604735Y-66265681D01*
X109571250Y-66204358D01*
X109576234Y-66134666D01*
X109604735Y-66090319D01*
X109657553Y-66037501D01*
X109763996Y-65890994D01*
X109846211Y-65729639D01*
X109902171Y-65557409D01*
X109916765Y-65465259D01*
X109930500Y-65378551D01*
X109930500Y-65197448D01*
X109914019Y-65093397D01*
X109902171Y-65018591D01*
X109846211Y-64846361D01*
X109846211Y-64846360D01*
X109781554Y-64719466D01*
X109763996Y-64685006D01*
X109750396Y-64666287D01*
X109657558Y-64538505D01*
X109657554Y-64538500D01*
X109604735Y-64485681D01*
X109571250Y-64424358D01*
X109576234Y-64354666D01*
X109604735Y-64310319D01*
X109627554Y-64287500D01*
X109657553Y-64257501D01*
X109763996Y-64110994D01*
X109846211Y-63949639D01*
X109902171Y-63777409D01*
X109923378Y-63643515D01*
X109930500Y-63598551D01*
X109930500Y-63417448D01*
X109903481Y-63246863D01*
X109902171Y-63238591D01*
X109856908Y-63099284D01*
X109846212Y-63066363D01*
X109846211Y-63066360D01*
X109803848Y-62983219D01*
X109763996Y-62905006D01*
X109750396Y-62886287D01*
X109657558Y-62758505D01*
X109657554Y-62758500D01*
X109604735Y-62705681D01*
X109571250Y-62644358D01*
X109576234Y-62574666D01*
X109604735Y-62530319D01*
X109657553Y-62477501D01*
X109763996Y-62330994D01*
X109846211Y-62169639D01*
X109902171Y-61997409D01*
X109916765Y-61905259D01*
X109930500Y-61818551D01*
X109930500Y-61637448D01*
X109914019Y-61533397D01*
X109902171Y-61458591D01*
X109858598Y-61324485D01*
X109846212Y-61286363D01*
X109846211Y-61286360D01*
X109802544Y-61200661D01*
X109763996Y-61125006D01*
X109680825Y-61010530D01*
X109657558Y-60978505D01*
X109657554Y-60978500D01*
X109604735Y-60925681D01*
X109571250Y-60864358D01*
X109576234Y-60794666D01*
X109604735Y-60750319D01*
X109657553Y-60697501D01*
X109763996Y-60550994D01*
X109846211Y-60389639D01*
X109902171Y-60217409D01*
X109929264Y-60046352D01*
X109930500Y-60038551D01*
X109930500Y-59857448D01*
X109914019Y-59753397D01*
X109902171Y-59678591D01*
X109846211Y-59506361D01*
X109846211Y-59506360D01*
X109801983Y-59419559D01*
X109763996Y-59345006D01*
X109718793Y-59282789D01*
X109657558Y-59198505D01*
X109657554Y-59198500D01*
X109604735Y-59145681D01*
X109571250Y-59084358D01*
X109576234Y-59014666D01*
X109604735Y-58970319D01*
X109623904Y-58951150D01*
X109657553Y-58917501D01*
X109763996Y-58770994D01*
X109846211Y-58609639D01*
X109902171Y-58437409D01*
X109924704Y-58295142D01*
X109930500Y-58258551D01*
X109930500Y-58077448D01*
X109909889Y-57947321D01*
X109902171Y-57898591D01*
X109859708Y-57767901D01*
X109846212Y-57726363D01*
X109846211Y-57726360D01*
X109810645Y-57656559D01*
X109763996Y-57565006D01*
X109702188Y-57479934D01*
X109657558Y-57418505D01*
X109657554Y-57418500D01*
X109604735Y-57365681D01*
X109571250Y-57304358D01*
X109576234Y-57234666D01*
X109604735Y-57190319D01*
X109657553Y-57137501D01*
X109763996Y-56990994D01*
X109846211Y-56829639D01*
X109902171Y-56657409D01*
X109918109Y-56556781D01*
X109930500Y-56478551D01*
X109930500Y-56297448D01*
X109914019Y-56193397D01*
X109902171Y-56118591D01*
X109871279Y-56023515D01*
X109846212Y-55946363D01*
X109846211Y-55946360D01*
X109800155Y-55855972D01*
X109763996Y-55785006D01*
X109750396Y-55766287D01*
X109657558Y-55638505D01*
X109657554Y-55638500D01*
X109604735Y-55585681D01*
X109571250Y-55524358D01*
X109576234Y-55454666D01*
X109604735Y-55410319D01*
X109614620Y-55400434D01*
X109657553Y-55357501D01*
X109763996Y-55210994D01*
X109846211Y-55049639D01*
X109902171Y-54877409D01*
X109920506Y-54761648D01*
X109930500Y-54698551D01*
X109930500Y-54517448D01*
X109908909Y-54381134D01*
X109902171Y-54338591D01*
X109868899Y-54236189D01*
X109846212Y-54166363D01*
X109846211Y-54166360D01*
X109817740Y-54110484D01*
X109763996Y-54005006D01*
X109667387Y-53872034D01*
X109657558Y-53858505D01*
X109657554Y-53858500D01*
X109604735Y-53805681D01*
X109571250Y-53744358D01*
X109576234Y-53674666D01*
X109604735Y-53630319D01*
X109657553Y-53577501D01*
X109763996Y-53430994D01*
X109846211Y-53269639D01*
X109902171Y-53097409D01*
X109916765Y-53005259D01*
X109930500Y-52918551D01*
X109930500Y-52737448D01*
X109905878Y-52581996D01*
X109902171Y-52558591D01*
X109859205Y-52426352D01*
X109846212Y-52386363D01*
X109846211Y-52386360D01*
X109817740Y-52330484D01*
X109763996Y-52225006D01*
X109710752Y-52151721D01*
X109657558Y-52078505D01*
X109657554Y-52078500D01*
X109604735Y-52025681D01*
X109571250Y-51964358D01*
X109576234Y-51894666D01*
X109604735Y-51850319D01*
X109630278Y-51824776D01*
X109657553Y-51797501D01*
X109763996Y-51650994D01*
X109846211Y-51489639D01*
X109902171Y-51317409D01*
X109926392Y-51164485D01*
X109930500Y-51138551D01*
X109930500Y-50957448D01*
X109914019Y-50853397D01*
X109902171Y-50778591D01*
X109846211Y-50606361D01*
X109846211Y-50606360D01*
X109817740Y-50550484D01*
X109763996Y-50445006D01*
X109750396Y-50426287D01*
X109657558Y-50298505D01*
X109657554Y-50298500D01*
X109604735Y-50245681D01*
X109571250Y-50184358D01*
X109576234Y-50114666D01*
X109604735Y-50070319D01*
X109657553Y-50017501D01*
X109763996Y-49870994D01*
X109846211Y-49709639D01*
X109902171Y-49537409D01*
X109922710Y-49407731D01*
X109930500Y-49358551D01*
X109930500Y-49177448D01*
X109914019Y-49073397D01*
X109902171Y-48998591D01*
X109846211Y-48826361D01*
X109846211Y-48826360D01*
X109767413Y-48671713D01*
X109763996Y-48665006D01*
X109706193Y-48585446D01*
X109657558Y-48518505D01*
X109657554Y-48518500D01*
X109604735Y-48465681D01*
X109571250Y-48404358D01*
X109576234Y-48334666D01*
X109604735Y-48290319D01*
X109657553Y-48237501D01*
X109763996Y-48090994D01*
X109846211Y-47929639D01*
X109902171Y-47757409D01*
X109928441Y-47591548D01*
X109930500Y-47578551D01*
X109930500Y-47397448D01*
X109914019Y-47293397D01*
X109902171Y-47218591D01*
X109846211Y-47046361D01*
X109846211Y-47046360D01*
X109792368Y-46940689D01*
X109763996Y-46885006D01*
X109723605Y-46829412D01*
X109657558Y-46738505D01*
X109657554Y-46738500D01*
X109604735Y-46685681D01*
X109571250Y-46624358D01*
X109576234Y-46554666D01*
X109604735Y-46510319D01*
X109657553Y-46457501D01*
X109763996Y-46310994D01*
X109846211Y-46149639D01*
X109902171Y-45977409D01*
X109920210Y-45863515D01*
X109930500Y-45798551D01*
X109930500Y-45617448D01*
X109912216Y-45502013D01*
X109902171Y-45438591D01*
X109846211Y-45266361D01*
X109846211Y-45266360D01*
X109808775Y-45192889D01*
X109763996Y-45105006D01*
X109714816Y-45037315D01*
X109657558Y-44958505D01*
X109657554Y-44958500D01*
X109604735Y-44905681D01*
X109571250Y-44844358D01*
X109576234Y-44774666D01*
X109604735Y-44730319D01*
X109628851Y-44706203D01*
X109657553Y-44677501D01*
X109763996Y-44530994D01*
X109846211Y-44369639D01*
X109902171Y-44197409D01*
X109916765Y-44105259D01*
X109930500Y-44018551D01*
X109930500Y-43837448D01*
X109914019Y-43733397D01*
X109902171Y-43658591D01*
X109865096Y-43544485D01*
X109846212Y-43486363D01*
X109846211Y-43486360D01*
X109789715Y-43375483D01*
X109763996Y-43325006D01*
X109707504Y-43247251D01*
X109657558Y-43178505D01*
X109657554Y-43178500D01*
X109604735Y-43125681D01*
X109571250Y-43064358D01*
X109576234Y-42994666D01*
X109604735Y-42950319D01*
X109628195Y-42926859D01*
X109657553Y-42897501D01*
X109763996Y-42750994D01*
X109846211Y-42589639D01*
X109902171Y-42417409D01*
X109918469Y-42314508D01*
X109930500Y-42238551D01*
X109930500Y-42057448D01*
X109911789Y-41939318D01*
X109902171Y-41878591D01*
X109874191Y-41792476D01*
X109846212Y-41706363D01*
X109846211Y-41706360D01*
X109817740Y-41650484D01*
X109763996Y-41545006D01*
X109703733Y-41462060D01*
X109657558Y-41398505D01*
X109657554Y-41398500D01*
X109529499Y-41270445D01*
X109529494Y-41270441D01*
X109382997Y-41164006D01*
X109382996Y-41164005D01*
X109382994Y-41164004D01*
X109304879Y-41124202D01*
X109221639Y-41081788D01*
X109221636Y-41081787D01*
X109049410Y-41025829D01*
X108870551Y-40997500D01*
X108870546Y-40997500D01*
X107789454Y-40997500D01*
X107789449Y-40997500D01*
X107610589Y-41025829D01*
X107438363Y-41081787D01*
X107438360Y-41081788D01*
X107277002Y-41164006D01*
X107130505Y-41270441D01*
X107130500Y-41270445D01*
X107002445Y-41398500D01*
X107002441Y-41398505D01*
X106896006Y-41545002D01*
X106813788Y-41706360D01*
X106813787Y-41706363D01*
X106757829Y-41878589D01*
X106729500Y-42057448D01*
X106729500Y-42238551D01*
X106757829Y-42417410D01*
X106813787Y-42589636D01*
X106813788Y-42589639D01*
X106896006Y-42750997D01*
X107002441Y-42897494D01*
X107002445Y-42897499D01*
X107055265Y-42950320D01*
X107088749Y-43011643D01*
X107083764Y-43081335D01*
X107055265Y-43125680D01*
X107002445Y-43178500D01*
X107002441Y-43178505D01*
X106896006Y-43325002D01*
X106813788Y-43486360D01*
X106813787Y-43486363D01*
X106757829Y-43658589D01*
X106729500Y-43837448D01*
X106729500Y-44018551D01*
X106757829Y-44197410D01*
X106813787Y-44369636D01*
X106813788Y-44369639D01*
X106896006Y-44530997D01*
X107002441Y-44677494D01*
X107002445Y-44677499D01*
X107055265Y-44730320D01*
X107088749Y-44791643D01*
X107083764Y-44861335D01*
X107055265Y-44905680D01*
X107002445Y-44958500D01*
X107002441Y-44958505D01*
X106896006Y-45105002D01*
X106813788Y-45266360D01*
X106813787Y-45266363D01*
X106757829Y-45438589D01*
X106729500Y-45617448D01*
X106729500Y-45798551D01*
X106757829Y-45977410D01*
X106813787Y-46149636D01*
X106813788Y-46149639D01*
X106896006Y-46310997D01*
X107002441Y-46457494D01*
X107002445Y-46457499D01*
X107055265Y-46510320D01*
X107088749Y-46571643D01*
X107083764Y-46641335D01*
X107055265Y-46685680D01*
X107002445Y-46738500D01*
X107002441Y-46738505D01*
X106896006Y-46885002D01*
X106813788Y-47046360D01*
X106813787Y-47046363D01*
X106757829Y-47218589D01*
X106729500Y-47397448D01*
X106729500Y-47578551D01*
X106757829Y-47757410D01*
X106813787Y-47929636D01*
X106813788Y-47929639D01*
X106896006Y-48090997D01*
X107002441Y-48237494D01*
X107002445Y-48237499D01*
X107055265Y-48290320D01*
X107088749Y-48351643D01*
X107083764Y-48421335D01*
X107055265Y-48465680D01*
X107002445Y-48518500D01*
X107002441Y-48518505D01*
X106896006Y-48665002D01*
X106813788Y-48826360D01*
X106813787Y-48826363D01*
X106757829Y-48998589D01*
X106729500Y-49177448D01*
X106729500Y-49358551D01*
X106757829Y-49537410D01*
X106813787Y-49709636D01*
X106813788Y-49709639D01*
X106896006Y-49870997D01*
X107002441Y-50017494D01*
X107002445Y-50017499D01*
X107055265Y-50070320D01*
X107088749Y-50131643D01*
X107083764Y-50201335D01*
X107055265Y-50245680D01*
X107002445Y-50298500D01*
X107002441Y-50298505D01*
X106896006Y-50445002D01*
X106813788Y-50606360D01*
X106813787Y-50606363D01*
X106757829Y-50778589D01*
X106729500Y-50957448D01*
X106729500Y-51138551D01*
X106757829Y-51317410D01*
X106813787Y-51489636D01*
X106813788Y-51489639D01*
X106896006Y-51650997D01*
X107002441Y-51797494D01*
X107002445Y-51797499D01*
X107055265Y-51850320D01*
X107088749Y-51911643D01*
X107083764Y-51981335D01*
X107055265Y-52025680D01*
X107002445Y-52078500D01*
X107002441Y-52078505D01*
X106896006Y-52225002D01*
X106813788Y-52386360D01*
X106813787Y-52386363D01*
X106757829Y-52558589D01*
X106729500Y-52737448D01*
X106729500Y-52918551D01*
X106757829Y-53097410D01*
X106813787Y-53269636D01*
X106813788Y-53269639D01*
X106896006Y-53430997D01*
X107002441Y-53577494D01*
X107002445Y-53577499D01*
X107055265Y-53630320D01*
X107088749Y-53691643D01*
X107083764Y-53761335D01*
X107055265Y-53805680D01*
X107002445Y-53858500D01*
X107002441Y-53858505D01*
X106896006Y-54005002D01*
X106813788Y-54166360D01*
X106813787Y-54166363D01*
X106757829Y-54338589D01*
X106729500Y-54517448D01*
X106729500Y-54698551D01*
X106757829Y-54877410D01*
X106813787Y-55049636D01*
X106813788Y-55049639D01*
X106869664Y-55159300D01*
X106874371Y-55168538D01*
X106896006Y-55210997D01*
X107002441Y-55357494D01*
X107002445Y-55357499D01*
X107055265Y-55410320D01*
X107088749Y-55471643D01*
X107083764Y-55541335D01*
X107055265Y-55585680D01*
X107002445Y-55638500D01*
X107002441Y-55638505D01*
X106896006Y-55785002D01*
X106813788Y-55946360D01*
X106813787Y-55946363D01*
X106757829Y-56118589D01*
X106729500Y-56297448D01*
X106729500Y-56478551D01*
X106757829Y-56657410D01*
X106813787Y-56829636D01*
X106813788Y-56829639D01*
X106848041Y-56896862D01*
X106883570Y-56966592D01*
X106896006Y-56990997D01*
X107002441Y-57137494D01*
X107002445Y-57137499D01*
X107055265Y-57190320D01*
X107088749Y-57251643D01*
X107083764Y-57321335D01*
X107055265Y-57365680D01*
X107002445Y-57418500D01*
X107002441Y-57418505D01*
X106896006Y-57565002D01*
X106813788Y-57726360D01*
X106813787Y-57726363D01*
X106757829Y-57898589D01*
X106729500Y-58077448D01*
X106729500Y-58258551D01*
X106757829Y-58437410D01*
X106813787Y-58609636D01*
X106813788Y-58609639D01*
X106848605Y-58677969D01*
X106895100Y-58769220D01*
X106896006Y-58770997D01*
X107002441Y-58917494D01*
X107002445Y-58917499D01*
X107055265Y-58970320D01*
X107088749Y-59031643D01*
X107083764Y-59101335D01*
X107055265Y-59145680D01*
X107002445Y-59198500D01*
X107002441Y-59198505D01*
X106896006Y-59345002D01*
X106813788Y-59506360D01*
X106813787Y-59506363D01*
X106757829Y-59678589D01*
X106729500Y-59857448D01*
X106729500Y-60038551D01*
X106757829Y-60217410D01*
X106813787Y-60389636D01*
X106813788Y-60389639D01*
X106896006Y-60550997D01*
X107002441Y-60697494D01*
X107002445Y-60697499D01*
X107055265Y-60750320D01*
X107088749Y-60811643D01*
X107083764Y-60881335D01*
X107055265Y-60925680D01*
X107002445Y-60978500D01*
X107002441Y-60978505D01*
X106896006Y-61125002D01*
X106813788Y-61286360D01*
X106813787Y-61286363D01*
X106757829Y-61458589D01*
X106729500Y-61637448D01*
X106729500Y-61818551D01*
X106757829Y-61997410D01*
X106813787Y-62169636D01*
X106813788Y-62169639D01*
X106896006Y-62330997D01*
X107002441Y-62477494D01*
X107002445Y-62477499D01*
X107055265Y-62530320D01*
X107088749Y-62591643D01*
X107083764Y-62661335D01*
X107055265Y-62705680D01*
X107002445Y-62758500D01*
X107002441Y-62758505D01*
X106896006Y-62905002D01*
X106813788Y-63066360D01*
X106813787Y-63066363D01*
X106757829Y-63238589D01*
X106729500Y-63417448D01*
X106729500Y-63598551D01*
X106757829Y-63777410D01*
X106813787Y-63949636D01*
X106813788Y-63949639D01*
X106869664Y-64059300D01*
X106883570Y-64086592D01*
X106896006Y-64110997D01*
X107002441Y-64257494D01*
X107002445Y-64257499D01*
X107055265Y-64310320D01*
X107088749Y-64371643D01*
X107083764Y-64441335D01*
X107055265Y-64485680D01*
X107002445Y-64538500D01*
X107002441Y-64538505D01*
X106896006Y-64685002D01*
X106813788Y-64846360D01*
X106813787Y-64846363D01*
X106757829Y-65018589D01*
X106729500Y-65197448D01*
X106729500Y-65378551D01*
X106757829Y-65557410D01*
X106813787Y-65729636D01*
X106813788Y-65729639D01*
X106869664Y-65839300D01*
X106883570Y-65866592D01*
X106896006Y-65890997D01*
X107002441Y-66037494D01*
X107002445Y-66037499D01*
X107055265Y-66090320D01*
X107088749Y-66151643D01*
X107083764Y-66221335D01*
X107055265Y-66265680D01*
X107002445Y-66318500D01*
X107002441Y-66318505D01*
X106896006Y-66465002D01*
X106813788Y-66626360D01*
X106813787Y-66626363D01*
X106757829Y-66798589D01*
X106729500Y-66977448D01*
X106729500Y-67158551D01*
X106757829Y-67337410D01*
X106813787Y-67509636D01*
X106813788Y-67509639D01*
X106847163Y-67575139D01*
X106893638Y-67666351D01*
X106896006Y-67670997D01*
X107002441Y-67817494D01*
X107002445Y-67817499D01*
X107055265Y-67870320D01*
X107088749Y-67931643D01*
X107083764Y-68001335D01*
X107055265Y-68045680D01*
X107002445Y-68098500D01*
X107002441Y-68098505D01*
X106896006Y-68245002D01*
X106813788Y-68406360D01*
X106813787Y-68406363D01*
X106757829Y-68578589D01*
X106729500Y-68757448D01*
X106729500Y-68938551D01*
X106757829Y-69117410D01*
X106813787Y-69289636D01*
X106813788Y-69289639D01*
X106852741Y-69366086D01*
X106883570Y-69426592D01*
X106896006Y-69450997D01*
X107002441Y-69597494D01*
X107002445Y-69597499D01*
X107055265Y-69650320D01*
X107088749Y-69711643D01*
X107083764Y-69781335D01*
X107055265Y-69825680D01*
X107002445Y-69878500D01*
X107002441Y-69878505D01*
X106896006Y-70025002D01*
X106813788Y-70186360D01*
X106813787Y-70186363D01*
X106757829Y-70358589D01*
X106729500Y-70537448D01*
X106729500Y-70718551D01*
X106757829Y-70897410D01*
X106813787Y-71069636D01*
X106813788Y-71069639D01*
X106869664Y-71179300D01*
X106888510Y-71216287D01*
X106896006Y-71230997D01*
X107002441Y-71377494D01*
X107002445Y-71377499D01*
X107055265Y-71430320D01*
X107088749Y-71491643D01*
X107083764Y-71561335D01*
X107055265Y-71605680D01*
X107002445Y-71658500D01*
X107002441Y-71658505D01*
X106896006Y-71805002D01*
X106813788Y-71966360D01*
X106813787Y-71966363D01*
X106757829Y-72138589D01*
X106729500Y-72317448D01*
X106729500Y-72498551D01*
X106757829Y-72677410D01*
X106813787Y-72849636D01*
X106813788Y-72849639D01*
X106847163Y-72915139D01*
X106883570Y-72986592D01*
X106896006Y-73010997D01*
X107002441Y-73157494D01*
X107002445Y-73157499D01*
X107055265Y-73210320D01*
X107088749Y-73271643D01*
X107083764Y-73341335D01*
X107055265Y-73385680D01*
X107002445Y-73438500D01*
X107002441Y-73438505D01*
X106896006Y-73585002D01*
X106813788Y-73746360D01*
X106813787Y-73746363D01*
X106757829Y-73918589D01*
X106729500Y-74097448D01*
X106729500Y-74278551D01*
X106757829Y-74457410D01*
X106813787Y-74629636D01*
X106813788Y-74629639D01*
X106896006Y-74790997D01*
X107002441Y-74937494D01*
X107002445Y-74937499D01*
X107055265Y-74990320D01*
X107088749Y-75051643D01*
X107083764Y-75121335D01*
X107055265Y-75165680D01*
X107002445Y-75218500D01*
X107002441Y-75218505D01*
X106896006Y-75365002D01*
X106813788Y-75526360D01*
X106813787Y-75526363D01*
X106757829Y-75698589D01*
X106729500Y-75877448D01*
X106729500Y-76058551D01*
X106757829Y-76237410D01*
X106813787Y-76409636D01*
X106813788Y-76409639D01*
X106896006Y-76570997D01*
X107002441Y-76717494D01*
X107002445Y-76717499D01*
X107055265Y-76770320D01*
X107088749Y-76831643D01*
X107083764Y-76901335D01*
X107055265Y-76945680D01*
X107002445Y-76998500D01*
X107002441Y-76998505D01*
X106896006Y-77145002D01*
X106813788Y-77306360D01*
X106813787Y-77306363D01*
X106757829Y-77478589D01*
X106729500Y-77657448D01*
X106729500Y-77838551D01*
X106757829Y-78017410D01*
X106813787Y-78189636D01*
X106813788Y-78189639D01*
X106896006Y-78350997D01*
X107002441Y-78497494D01*
X107002445Y-78497499D01*
X107055265Y-78550320D01*
X107088749Y-78611643D01*
X107083764Y-78681335D01*
X107055265Y-78725680D01*
X107002445Y-78778500D01*
X107002441Y-78778505D01*
X106896006Y-78925002D01*
X106813788Y-79086360D01*
X106813787Y-79086363D01*
X106757829Y-79258589D01*
X106729500Y-79437448D01*
X106729500Y-79618551D01*
X106757829Y-79797410D01*
X106813787Y-79969636D01*
X106813788Y-79969639D01*
X106896006Y-80130997D01*
X107002441Y-80277494D01*
X107002445Y-80277499D01*
X107055265Y-80330320D01*
X107088749Y-80391643D01*
X107083764Y-80461335D01*
X107055265Y-80505680D01*
X107002445Y-80558500D01*
X107002441Y-80558505D01*
X106896006Y-80705002D01*
X106813788Y-80866360D01*
X106813787Y-80866363D01*
X106757829Y-81038589D01*
X106729500Y-81217448D01*
X106729500Y-81398551D01*
X106757829Y-81577410D01*
X106813787Y-81749636D01*
X106813788Y-81749639D01*
X106896006Y-81910997D01*
X107002441Y-82057494D01*
X107002445Y-82057499D01*
X107055265Y-82110320D01*
X107088749Y-82171643D01*
X107083764Y-82241335D01*
X107055265Y-82285680D01*
X107002445Y-82338500D01*
X107002441Y-82338505D01*
X106896006Y-82485002D01*
X106813788Y-82646360D01*
X106813787Y-82646363D01*
X106757829Y-82818589D01*
X106729500Y-82997448D01*
X106729500Y-83178551D01*
X106757829Y-83357410D01*
X106813787Y-83529636D01*
X106813788Y-83529639D01*
X106896006Y-83690997D01*
X107002441Y-83837494D01*
X107002445Y-83837499D01*
X107055265Y-83890320D01*
X107057530Y-83894468D01*
X107061500Y-83897034D01*
X107074116Y-83924844D01*
X107088749Y-83951643D01*
X107088411Y-83956356D01*
X107090365Y-83960662D01*
X107085942Y-83990881D01*
X107083764Y-84021335D01*
X107080742Y-84026413D01*
X107080247Y-84029796D01*
X107069803Y-84044797D01*
X107061091Y-84059439D01*
X107058283Y-84062662D01*
X107002447Y-84118499D01*
X106966184Y-84168411D01*
X106962589Y-84172539D01*
X106937577Y-84188524D01*
X106914070Y-84206651D01*
X106907193Y-84207942D01*
X106903716Y-84210165D01*
X106895469Y-84210144D01*
X106869081Y-84215100D01*
X101826802Y-84215100D01*
X101759763Y-84195415D01*
X101739121Y-84178781D01*
X100003219Y-82442878D01*
X99969734Y-82381555D01*
X99966900Y-82355197D01*
X99966900Y-41718692D01*
X99941810Y-41592561D01*
X99941809Y-41592560D01*
X99941809Y-41592556D01*
X99892592Y-41473736D01*
X99880707Y-41455949D01*
X99862501Y-41428702D01*
X99821142Y-41366802D01*
X99821136Y-41366795D01*
X97698205Y-39243863D01*
X97698204Y-39243862D01*
X97698200Y-39243859D01*
X97591264Y-39172408D01*
X97472444Y-39123191D01*
X97472438Y-39123189D01*
X97346307Y-39098100D01*
X97346305Y-39098100D01*
X85152695Y-39098100D01*
X85152693Y-39098100D01*
X85026561Y-39123189D01*
X85026555Y-39123191D01*
X84907736Y-39172407D01*
X84800798Y-39243860D01*
X84800795Y-39243863D01*
X83820863Y-40223794D01*
X83820862Y-40223795D01*
X83820859Y-40223800D01*
X83754267Y-40323464D01*
X83752311Y-40326390D01*
X83749407Y-40330736D01*
X83749406Y-40330738D01*
X83700191Y-40449555D01*
X83700189Y-40449561D01*
X83675100Y-40575692D01*
X83675100Y-44382197D01*
X83655415Y-44449236D01*
X83638781Y-44469878D01*
X81553878Y-46554781D01*
X81492555Y-46588266D01*
X81466197Y-46591100D01*
X75129327Y-46591100D01*
X75062288Y-46571415D01*
X75029011Y-46539987D01*
X74924966Y-46396781D01*
X74780219Y-46252034D01*
X74780213Y-46252028D01*
X74614614Y-46131715D01*
X74608006Y-46128348D01*
X74521917Y-46084483D01*
X74471123Y-46036511D01*
X74454328Y-45968690D01*
X74476865Y-45902555D01*
X74521917Y-45863516D01*
X74614610Y-45816287D01*
X74656532Y-45785829D01*
X74780213Y-45695971D01*
X74780215Y-45695968D01*
X74780219Y-45695966D01*
X74924966Y-45551219D01*
X74924968Y-45551215D01*
X74924971Y-45551213D01*
X74982995Y-45471348D01*
X75045287Y-45385610D01*
X75138220Y-45203219D01*
X75201477Y-45008534D01*
X75233500Y-44806352D01*
X75233500Y-44706203D01*
X75253185Y-44639164D01*
X75305989Y-44593409D01*
X75375147Y-44583465D01*
X75438703Y-44612490D01*
X75445181Y-44618522D01*
X76291797Y-45465138D01*
X76301092Y-45471349D01*
X76346985Y-45502013D01*
X76398736Y-45536592D01*
X76517556Y-45585809D01*
X76517560Y-45585809D01*
X76517561Y-45585810D01*
X76643692Y-45610900D01*
X76643695Y-45610900D01*
X77087016Y-45610900D01*
X77154055Y-45630585D01*
X77155907Y-45631798D01*
X77215547Y-45671648D01*
X77362103Y-45732353D01*
X77362105Y-45732353D01*
X77362110Y-45732355D01*
X77517680Y-45763299D01*
X77517684Y-45763300D01*
X77517685Y-45763300D01*
X77676316Y-45763300D01*
X77676317Y-45763299D01*
X77731395Y-45752344D01*
X77831889Y-45732355D01*
X77831892Y-45732353D01*
X77831897Y-45732353D01*
X77978453Y-45671648D01*
X78110349Y-45583518D01*
X78222518Y-45471349D01*
X78310648Y-45339453D01*
X78371353Y-45192897D01*
X78402300Y-45037315D01*
X78402300Y-44878685D01*
X78402300Y-44878682D01*
X78402299Y-44878680D01*
X78371355Y-44723110D01*
X78371352Y-44723101D01*
X78310651Y-44576553D01*
X78310644Y-44576540D01*
X78222518Y-44444651D01*
X78222515Y-44444647D01*
X78110352Y-44332484D01*
X78110348Y-44332481D01*
X77978459Y-44244355D01*
X77978446Y-44244348D01*
X77831898Y-44183647D01*
X77831889Y-44183644D01*
X77676319Y-44152700D01*
X77676315Y-44152700D01*
X77517685Y-44152700D01*
X77517680Y-44152700D01*
X77362110Y-44183644D01*
X77362101Y-44183647D01*
X77215549Y-44244350D01*
X77155907Y-44284202D01*
X77137860Y-44289852D01*
X77121951Y-44300077D01*
X77090989Y-44304528D01*
X77089229Y-44305080D01*
X77087016Y-44305100D01*
X77029802Y-44305100D01*
X76962763Y-44285415D01*
X76942121Y-44268781D01*
X75600205Y-42926863D01*
X75600204Y-42926862D01*
X75579458Y-42913000D01*
X75493264Y-42855408D01*
X75374444Y-42806191D01*
X75374440Y-42806190D01*
X75374436Y-42806189D01*
X75372616Y-42805827D01*
X75245786Y-42780598D01*
X75183875Y-42748213D01*
X75149301Y-42687497D01*
X75152046Y-42620664D01*
X75201477Y-42468534D01*
X75233500Y-42266352D01*
X75233500Y-42061648D01*
X75201814Y-41861591D01*
X75201477Y-41859465D01*
X75138218Y-41664776D01*
X75077189Y-41545002D01*
X75045287Y-41482390D01*
X75030517Y-41462060D01*
X74924971Y-41316786D01*
X74780213Y-41172028D01*
X74614614Y-41051715D01*
X74578508Y-41033318D01*
X74521917Y-41004483D01*
X74471123Y-40956511D01*
X74454328Y-40888690D01*
X74476865Y-40822555D01*
X74521917Y-40783516D01*
X74614610Y-40736287D01*
X74635770Y-40720913D01*
X74780213Y-40615971D01*
X74780215Y-40615968D01*
X74780219Y-40615966D01*
X74924966Y-40471219D01*
X74924968Y-40471215D01*
X74924971Y-40471213D01*
X74979316Y-40396412D01*
X75045287Y-40305610D01*
X75138220Y-40123219D01*
X75201477Y-39928534D01*
X75233500Y-39726352D01*
X75233500Y-39521648D01*
X75201477Y-39319466D01*
X75138220Y-39124781D01*
X75138218Y-39124778D01*
X75138218Y-39124776D01*
X75097412Y-39044691D01*
X75045287Y-38942390D01*
X74976634Y-38847896D01*
X74924971Y-38776786D01*
X74780213Y-38632028D01*
X74614614Y-38511715D01*
X74586743Y-38497514D01*
X74521917Y-38464483D01*
X74471123Y-38416511D01*
X74454328Y-38348690D01*
X74476865Y-38282555D01*
X74521917Y-38243516D01*
X74614610Y-38196287D01*
X74743482Y-38102657D01*
X74780213Y-38075971D01*
X74780215Y-38075968D01*
X74780219Y-38075966D01*
X74924966Y-37931219D01*
X74924968Y-37931215D01*
X74924971Y-37931213D01*
X75029892Y-37786799D01*
X75045287Y-37765610D01*
X75138220Y-37583219D01*
X75201477Y-37388534D01*
X75233500Y-37186352D01*
X75233500Y-36981648D01*
X75201477Y-36779466D01*
X75138220Y-36584781D01*
X75138218Y-36584778D01*
X75138218Y-36584776D01*
X75045287Y-36402390D01*
X74945385Y-36264885D01*
X74921906Y-36199078D01*
X74937732Y-36131024D01*
X74987838Y-36082330D01*
X75045704Y-36068000D01*
X77300763Y-36068000D01*
X77367802Y-36087685D01*
X77413557Y-36140489D01*
X77423501Y-36209647D01*
X77394476Y-36273203D01*
X77373648Y-36292318D01*
X77352214Y-36307890D01*
X77352209Y-36307894D01*
X77201890Y-36458213D01*
X77076951Y-36630179D01*
X76980444Y-36819585D01*
X76914753Y-37021760D01*
X76881500Y-37231713D01*
X76881500Y-37444287D01*
X76914754Y-37654243D01*
X76957824Y-37786799D01*
X76980444Y-37856414D01*
X77076951Y-38045820D01*
X77201890Y-38217786D01*
X77352213Y-38368109D01*
X77524182Y-38493050D01*
X77532946Y-38497516D01*
X77583742Y-38545491D01*
X77600536Y-38613312D01*
X77577998Y-38679447D01*
X77532946Y-38718484D01*
X77524182Y-38722949D01*
X77352213Y-38847890D01*
X77201890Y-38998213D01*
X77076951Y-39170179D01*
X76980444Y-39359585D01*
X76914753Y-39561760D01*
X76881500Y-39771713D01*
X76881500Y-39984287D01*
X76914754Y-40194243D01*
X76959103Y-40330736D01*
X76980444Y-40396414D01*
X77076951Y-40585820D01*
X77201890Y-40757786D01*
X77315430Y-40871326D01*
X77348915Y-40932649D01*
X77343931Y-41002341D01*
X77302059Y-41058274D01*
X77271083Y-41075189D01*
X77139669Y-41124203D01*
X77139664Y-41124206D01*
X77024455Y-41210452D01*
X77024452Y-41210455D01*
X76938206Y-41325664D01*
X76938202Y-41325671D01*
X76887908Y-41460517D01*
X76885557Y-41482390D01*
X76881501Y-41520123D01*
X76881500Y-41520135D01*
X76881500Y-43315870D01*
X76881501Y-43315876D01*
X76887908Y-43375483D01*
X76938202Y-43510328D01*
X76938206Y-43510335D01*
X77024452Y-43625544D01*
X77024455Y-43625547D01*
X77139664Y-43711793D01*
X77139671Y-43711797D01*
X77274517Y-43762091D01*
X77274516Y-43762091D01*
X77281444Y-43762835D01*
X77334127Y-43768500D01*
X79129872Y-43768499D01*
X79189483Y-43762091D01*
X79324331Y-43711796D01*
X79439546Y-43625546D01*
X79525796Y-43510331D01*
X79576091Y-43375483D01*
X79582500Y-43315873D01*
X79582499Y-41520128D01*
X79576091Y-41460517D01*
X79574387Y-41455949D01*
X79525797Y-41325671D01*
X79525793Y-41325664D01*
X79439547Y-41210455D01*
X79439544Y-41210452D01*
X79324335Y-41124206D01*
X79324328Y-41124202D01*
X79192917Y-41075189D01*
X79136983Y-41033318D01*
X79112566Y-40967853D01*
X79127418Y-40899580D01*
X79148563Y-40871332D01*
X79262104Y-40757792D01*
X79277731Y-40736284D01*
X79387048Y-40585820D01*
X79387047Y-40585820D01*
X79387051Y-40585816D01*
X79483557Y-40396412D01*
X79549246Y-40194243D01*
X79582500Y-39984287D01*
X79582500Y-39771713D01*
X79549246Y-39561757D01*
X79483557Y-39359588D01*
X79387051Y-39170184D01*
X79354064Y-39124781D01*
X79295876Y-39044691D01*
X79295875Y-39044688D01*
X79262109Y-38998214D01*
X79262105Y-38998209D01*
X79239031Y-38975135D01*
X80564500Y-38975135D01*
X80564500Y-40770870D01*
X80564501Y-40770876D01*
X80570908Y-40830483D01*
X80621202Y-40965328D01*
X80621206Y-40965335D01*
X80707452Y-41080544D01*
X80707455Y-41080547D01*
X80822664Y-41166793D01*
X80822671Y-41166797D01*
X80957517Y-41217091D01*
X80957516Y-41217091D01*
X80964444Y-41217835D01*
X81017127Y-41223500D01*
X81550193Y-41223499D01*
X81617230Y-41243183D01*
X81662985Y-41295987D01*
X81672929Y-41365146D01*
X81643904Y-41428702D01*
X81597644Y-41462060D01*
X81441326Y-41526809D01*
X81441318Y-41526813D01*
X81363590Y-41578748D01*
X81729823Y-41944980D01*
X81722007Y-41947075D01*
X81607993Y-42012901D01*
X81514901Y-42105993D01*
X81449075Y-42220007D01*
X81446980Y-42227822D01*
X81080748Y-41861590D01*
X81028813Y-41939318D01*
X81028809Y-41939325D01*
X80953429Y-42121310D01*
X80953427Y-42121318D01*
X80915000Y-42314504D01*
X80915000Y-42511495D01*
X80953427Y-42704681D01*
X80953430Y-42704693D01*
X81028808Y-42886674D01*
X81080748Y-42964407D01*
X81080749Y-42964408D01*
X81446980Y-42598176D01*
X81449075Y-42605993D01*
X81514901Y-42720007D01*
X81607993Y-42813099D01*
X81722007Y-42878925D01*
X81729822Y-42881019D01*
X81363591Y-43247250D01*
X81363591Y-43247252D01*
X81441320Y-43299188D01*
X81441323Y-43299190D01*
X81623306Y-43374569D01*
X81623318Y-43374572D01*
X81816504Y-43412999D01*
X81816508Y-43413000D01*
X82013492Y-43413000D01*
X82013495Y-43412999D01*
X82206681Y-43374572D01*
X82206693Y-43374569D01*
X82388673Y-43299191D01*
X82388675Y-43299190D01*
X82466408Y-43247251D01*
X82466408Y-43247250D01*
X82100177Y-42881019D01*
X82107993Y-42878925D01*
X82222007Y-42813099D01*
X82315099Y-42720007D01*
X82380925Y-42605993D01*
X82383019Y-42598177D01*
X82749250Y-42964408D01*
X82749251Y-42964408D01*
X82801190Y-42886675D01*
X82801191Y-42886673D01*
X82876569Y-42704693D01*
X82876572Y-42704681D01*
X82914999Y-42511495D01*
X82915000Y-42511492D01*
X82915000Y-42314508D01*
X82914999Y-42314504D01*
X82876572Y-42121318D01*
X82876569Y-42121306D01*
X82801190Y-41939323D01*
X82801188Y-41939320D01*
X82749252Y-41861591D01*
X82749250Y-41861591D01*
X82383019Y-42227822D01*
X82380925Y-42220007D01*
X82315099Y-42105993D01*
X82222007Y-42012901D01*
X82107993Y-41947075D01*
X82100176Y-41944980D01*
X82466408Y-41578749D01*
X82466407Y-41578748D01*
X82388676Y-41526810D01*
X82232355Y-41462060D01*
X82177952Y-41418219D01*
X82155887Y-41351925D01*
X82173166Y-41284226D01*
X82224303Y-41236615D01*
X82279806Y-41223499D01*
X82812872Y-41223499D01*
X82872483Y-41217091D01*
X83007331Y-41166796D01*
X83122546Y-41080546D01*
X83208796Y-40965331D01*
X83259091Y-40830483D01*
X83265500Y-40770873D01*
X83265499Y-38975128D01*
X83259091Y-38915517D01*
X83208796Y-38780669D01*
X83208795Y-38780668D01*
X83208793Y-38780664D01*
X83122547Y-38665455D01*
X83122544Y-38665452D01*
X83007335Y-38579206D01*
X83007328Y-38579202D01*
X82872482Y-38528908D01*
X82872483Y-38528908D01*
X82812883Y-38522501D01*
X82812881Y-38522500D01*
X82812873Y-38522500D01*
X82812864Y-38522500D01*
X81017129Y-38522500D01*
X81017123Y-38522501D01*
X80957516Y-38528908D01*
X80822671Y-38579202D01*
X80822664Y-38579206D01*
X80707455Y-38665452D01*
X80707452Y-38665455D01*
X80621206Y-38780664D01*
X80621202Y-38780671D01*
X80570908Y-38915517D01*
X80564501Y-38975116D01*
X80564501Y-38975123D01*
X80564500Y-38975135D01*
X79239031Y-38975135D01*
X79111786Y-38847890D01*
X78939820Y-38722951D01*
X78939115Y-38722591D01*
X78931054Y-38718485D01*
X78880259Y-38670512D01*
X78863463Y-38602692D01*
X78885999Y-38536556D01*
X78931054Y-38497515D01*
X78939816Y-38493051D01*
X79042042Y-38418780D01*
X79111786Y-38368109D01*
X79111788Y-38368106D01*
X79111792Y-38368104D01*
X79262104Y-38217792D01*
X79262106Y-38217788D01*
X79262109Y-38217786D01*
X79387048Y-38045820D01*
X79387047Y-38045820D01*
X79387051Y-38045816D01*
X79483557Y-37856412D01*
X79549246Y-37654243D01*
X79582500Y-37444287D01*
X79582500Y-37231713D01*
X79549246Y-37021757D01*
X79483557Y-36819588D01*
X79387051Y-36630184D01*
X79387049Y-36630181D01*
X79387048Y-36630179D01*
X79262109Y-36458213D01*
X79111790Y-36307894D01*
X79111785Y-36307890D01*
X79090352Y-36292318D01*
X79047686Y-36236988D01*
X79041707Y-36167375D01*
X79074312Y-36105580D01*
X79135151Y-36071223D01*
X79163237Y-36068000D01*
X121034000Y-36068000D01*
X121101039Y-36087685D01*
X121146794Y-36140489D01*
X121158000Y-36192000D01*
X121158000Y-105794000D01*
X121138315Y-105861039D01*
X121085511Y-105906794D01*
X121034000Y-105918000D01*
X53972000Y-105918000D01*
X53904961Y-105898315D01*
X53859206Y-105845511D01*
X53848000Y-105794000D01*
X53848000Y-69904000D01*
X56964171Y-69904000D01*
X57946589Y-69904000D01*
X57920259Y-69949606D01*
X57893000Y-70051339D01*
X57893000Y-70156661D01*
X57920259Y-70258394D01*
X57946590Y-70304000D01*
X56964171Y-70304000D01*
X56979506Y-70381097D01*
X56979508Y-70381105D01*
X57051119Y-70553991D01*
X57051124Y-70554000D01*
X57155086Y-70709589D01*
X57155089Y-70709593D01*
X57287406Y-70841910D01*
X57287410Y-70841913D01*
X57442999Y-70945875D01*
X57443008Y-70945880D01*
X57615894Y-71017491D01*
X57615902Y-71017493D01*
X57799428Y-71053999D01*
X57799431Y-71054000D01*
X58093000Y-71054000D01*
X58093000Y-70450410D01*
X58138606Y-70476741D01*
X58240339Y-70504000D01*
X58345661Y-70504000D01*
X58447394Y-70476741D01*
X58493000Y-70450410D01*
X58493000Y-71054000D01*
X58786569Y-71054000D01*
X58786571Y-71053999D01*
X58970097Y-71017493D01*
X58970105Y-71017491D01*
X59142991Y-70945880D01*
X59143000Y-70945875D01*
X59298589Y-70841913D01*
X59298593Y-70841910D01*
X59430910Y-70709593D01*
X59430913Y-70709589D01*
X59534875Y-70554000D01*
X59534880Y-70553991D01*
X59606491Y-70381105D01*
X59606493Y-70381097D01*
X59621829Y-70304000D01*
X58639410Y-70304000D01*
X58665741Y-70258394D01*
X58693000Y-70156661D01*
X58693000Y-70051339D01*
X58665741Y-69949606D01*
X58639411Y-69904000D01*
X59621829Y-69904000D01*
X59606493Y-69826902D01*
X59606491Y-69826894D01*
X59534880Y-69654008D01*
X59534875Y-69653999D01*
X59430913Y-69498410D01*
X59430910Y-69498406D01*
X59298593Y-69366089D01*
X59298589Y-69366086D01*
X59143000Y-69262124D01*
X59142991Y-69262119D01*
X58970105Y-69190508D01*
X58970097Y-69190506D01*
X58786570Y-69154000D01*
X58493000Y-69154000D01*
X58493000Y-69757589D01*
X58447394Y-69731259D01*
X58345661Y-69704000D01*
X58240339Y-69704000D01*
X58138606Y-69731259D01*
X58093000Y-69757589D01*
X58093000Y-69154000D01*
X57799430Y-69154000D01*
X57615902Y-69190506D01*
X57615894Y-69190508D01*
X57443008Y-69262119D01*
X57442999Y-69262124D01*
X57287410Y-69366086D01*
X57287406Y-69366089D01*
X57155089Y-69498406D01*
X57155086Y-69498410D01*
X57051124Y-69653999D01*
X57051119Y-69654008D01*
X56979508Y-69826894D01*
X56979506Y-69826902D01*
X56964171Y-69904000D01*
X53848000Y-69904000D01*
X53848000Y-36192000D01*
X53867685Y-36124961D01*
X53920489Y-36079206D01*
X53972000Y-36068000D01*
X56535067Y-36068000D01*
X56602106Y-36087685D01*
G37*
%TD.AperFunction*%
%TA.AperFunction,Conductor*%
G36*
X85051635Y-56795544D02*
G01*
X85081626Y-56802068D01*
X85086642Y-56805823D01*
X85089237Y-56806585D01*
X85109874Y-56823214D01*
X85181800Y-56895140D01*
X85288736Y-56966592D01*
X85407556Y-57015809D01*
X85407560Y-57015809D01*
X85407561Y-57015810D01*
X85533692Y-57040900D01*
X85533695Y-57040900D01*
X86169081Y-57040900D01*
X86236120Y-57060585D01*
X86269400Y-57092015D01*
X86302447Y-57137501D01*
X86430500Y-57265554D01*
X86430505Y-57265558D01*
X86577001Y-57371993D01*
X86577003Y-57371994D01*
X86577006Y-57371996D01*
X86602228Y-57384847D01*
X86622508Y-57404000D01*
X86267637Y-57404000D01*
X86258400Y-58928000D01*
X86629177Y-58928000D01*
X86620243Y-58939934D01*
X86602230Y-58951150D01*
X86577008Y-58964001D01*
X86577006Y-58964003D01*
X86430505Y-59070441D01*
X86430500Y-59070445D01*
X86302445Y-59198500D01*
X86302441Y-59198505D01*
X86196006Y-59345002D01*
X86113788Y-59506360D01*
X86113787Y-59506363D01*
X86057829Y-59678589D01*
X86029500Y-59857448D01*
X86029500Y-60038551D01*
X86057829Y-60217410D01*
X86113787Y-60389636D01*
X86113788Y-60389639D01*
X86196006Y-60550997D01*
X86302441Y-60697494D01*
X86302445Y-60697499D01*
X86355265Y-60750320D01*
X86388749Y-60811643D01*
X86383764Y-60881335D01*
X86355265Y-60925680D01*
X86302445Y-60978500D01*
X86302441Y-60978505D01*
X86196006Y-61125002D01*
X86113788Y-61286360D01*
X86113787Y-61286363D01*
X86057829Y-61458589D01*
X86029500Y-61637448D01*
X86029500Y-61818551D01*
X86057829Y-61997410D01*
X86113787Y-62169636D01*
X86113788Y-62169639D01*
X86196006Y-62330997D01*
X86302441Y-62477494D01*
X86302445Y-62477499D01*
X86355265Y-62530320D01*
X86357530Y-62534468D01*
X86361500Y-62537034D01*
X86374116Y-62564844D01*
X86388749Y-62591643D01*
X86388411Y-62596356D01*
X86390365Y-62600662D01*
X86385942Y-62630881D01*
X86383764Y-62661335D01*
X86380742Y-62666413D01*
X86380247Y-62669796D01*
X86369803Y-62684797D01*
X86361091Y-62699439D01*
X86358283Y-62702662D01*
X86302447Y-62758499D01*
X86266184Y-62808411D01*
X86262589Y-62812539D01*
X86237577Y-62828524D01*
X86214070Y-62846651D01*
X86207193Y-62847942D01*
X86203716Y-62850165D01*
X86195469Y-62850144D01*
X86169081Y-62855100D01*
X80339802Y-62855100D01*
X80272763Y-62835415D01*
X80252121Y-62818781D01*
X75483605Y-58050263D01*
X75483604Y-58050262D01*
X75483600Y-58050259D01*
X75376664Y-57978808D01*
X75257844Y-57929591D01*
X75257843Y-57929590D01*
X75252216Y-57927260D01*
X75253149Y-57925007D01*
X75203686Y-57892555D01*
X75175263Y-57828728D01*
X75180231Y-57773922D01*
X75201477Y-57708534D01*
X75224210Y-57565006D01*
X75233500Y-57506352D01*
X75233500Y-57301648D01*
X75201477Y-57099466D01*
X75201476Y-57099462D01*
X75201476Y-57099461D01*
X75152659Y-56949218D01*
X75150664Y-56879377D01*
X75186744Y-56819544D01*
X75249445Y-56788716D01*
X75270590Y-56786900D01*
X85022198Y-56786900D01*
X85051635Y-56795544D01*
G37*
%TD.AperFunction*%
%TD*%
%TA.AperFunction,Conductor*%
%TO.N,GND*%
G36*
X86689370Y-57429248D02*
G01*
X86738360Y-57454211D01*
X86738363Y-57454212D01*
X86824476Y-57482191D01*
X86910591Y-57510171D01*
X86993429Y-57523291D01*
X87089449Y-57538500D01*
X87089454Y-57538500D01*
X88170551Y-57538500D01*
X88257259Y-57524765D01*
X88349409Y-57510171D01*
X88521639Y-57454211D01*
X88620183Y-57404000D01*
X89281000Y-57404000D01*
X89281000Y-58928000D01*
X88612333Y-58928000D01*
X88521639Y-58881788D01*
X88521636Y-58881787D01*
X88349410Y-58825829D01*
X88170551Y-58797500D01*
X88170546Y-58797500D01*
X87089454Y-58797500D01*
X87089449Y-58797500D01*
X86910589Y-58825829D01*
X86738363Y-58881787D01*
X86738360Y-58881788D01*
X86647666Y-58928000D01*
X86258400Y-58928000D01*
X86267637Y-57404000D01*
X86639817Y-57404000D01*
X86689370Y-57429248D01*
G37*
%TD.AperFunction*%
%TD*%
M02*
