M48
; DRILL file {KiCad 9.0.7} date 2026-03-20T04:33:47+0900
; FORMAT={-:-/ absolute / inch / decimal}
; #@! TF.CreationDate,2026-03-20T04:33:47+09:00
; #@! TF.GenerationSoftware,Kicad,Pcbnew,9.0.7
; #@! TF.FileFunction,Plated,1,2,PTH
FMAT,2
INCH
; #@! TA.AperFunction,Plated,PTH,ViaDrill
T1C0.0120
; #@! TA.AperFunction,Plated,PTH,ComponentDrill
T2C0.0315
; #@! TA.AperFunction,Plated,PTH,ComponentDrill
T3C0.0394
%
G90
G05
T1
X2.14Y-3.82
X2.2Y-2.85
X2.2Y-3.73
X2.5Y-4.04
X2.5Y-4.14
X2.7Y-2.81
X2.7Y-2.91
X3.055Y-1.77
X3.07Y-2.252
X3.076Y-2.124
X3.088Y-4.03
X3.17Y-1.44
X3.22Y-3.43
X3.3Y-1.54
X3.33Y-4.03
X3.344Y-2.124
X3.344Y-2.254
X3.37Y-1.64
X3.47Y-4.14
X3.48Y-1.52
X3.51Y-1.61
X3.53Y-1.83
X3.53Y-2.39
X3.53Y-2.88
X3.53Y-3.38
X3.62Y-3.9
X3.62Y-4.0
X3.81Y-1.61
X3.86Y-1.83
X3.86Y-2.39
X3.86Y-2.88
X3.88Y-3.38
X3.88Y-3.9
X3.88Y-4.0
X3.94Y-1.44
X3.94Y-1.61
X3.95Y-1.83
X3.95Y-2.39
X3.95Y-2.88
X4.02Y-3.28
X4.19Y-1.45
X4.19Y-1.6
X4.19Y-1.83
X4.19Y-2.39
X4.19Y-2.88
X4.19Y-3.28
X4.19Y-3.38
X4.19Y-3.91
X4.19Y-4.0
X4.34Y-1.83
X4.34Y-2.39
X4.34Y-2.88
X4.35Y-3.28
X4.38Y-3.53
X4.38Y-3.64
X4.54Y-3.43
X4.66Y-3.63
X4.66Y-3.9
X4.66Y-4.0
X4.75Y-1.45
X4.75Y-1.8
X4.75Y-2.39
X4.75Y-2.88
X4.75Y-3.28
X4.75Y-3.55
T2
X2.295Y-1.46
X2.295Y-1.56
X2.295Y-1.66
X2.295Y-1.76
X2.295Y-1.86
X2.295Y-1.96
X2.295Y-2.06
X2.295Y-2.16
X2.295Y-2.26
X2.295Y-2.36
X2.295Y-2.46
X2.295Y-2.56
X2.295Y-2.66
X2.295Y-2.76
X2.895Y-1.46
X2.895Y-1.56
X2.895Y-1.66
X2.895Y-1.76
X2.895Y-1.86
X2.895Y-1.96
X2.895Y-2.06
X2.895Y-2.16
X2.895Y-2.26
X2.895Y-2.36
X2.895Y-2.46
X2.895Y-2.56
X2.895Y-2.66
X2.895Y-2.76
T3
X3.08Y-1.47
X3.08Y-1.57
X3.08Y-1.67
X3.225Y-1.5698
X3.225Y-1.6698
X3.45Y-1.6594
X3.45Y-1.7294
X3.45Y-1.7995
X3.45Y-1.8696
X3.45Y-1.9397
X3.45Y-2.0098
X3.45Y-2.0798
X3.45Y-2.1499
X3.45Y-2.22
X3.45Y-2.2901
X3.45Y-2.3602
X3.45Y-2.4302
X3.45Y-2.5003
X3.45Y-2.5704
X3.45Y-2.6405
X3.45Y-2.7106
X3.45Y-2.7806
X3.45Y-2.8507
X3.45Y-2.9208
X3.45Y-2.9909
X3.45Y-3.0609
X3.45Y-3.131
X3.45Y-3.2011
X3.45Y-3.2712
X3.45Y-3.3413
X3.45Y-3.4113
X3.45Y-3.4814
X3.45Y-3.5515
X3.45Y-3.6216
X3.45Y-3.6917
X3.45Y-3.7617
X3.45Y-3.8318
X4.265Y-1.6594
X4.265Y-1.7294
X4.265Y-1.7995
X4.265Y-1.8696
X4.265Y-1.9397
X4.265Y-2.0098
X4.265Y-2.0798
X4.265Y-2.1499
X4.265Y-2.22
X4.265Y-2.2901
X4.265Y-2.3602
X4.265Y-2.4302
X4.265Y-2.5003
X4.265Y-2.5704
X4.265Y-2.6405
X4.265Y-2.7106
X4.265Y-2.7806
X4.265Y-2.8507
X4.265Y-2.9208
X4.265Y-2.9909
X4.265Y-3.0609
X4.265Y-3.131
X4.265Y-3.2011
X4.265Y-3.2712
X4.265Y-3.3413
X4.265Y-3.4113
X4.265Y-3.4814
X4.265Y-3.5515
X4.265Y-3.6216
X4.265Y-3.6917
X4.265Y-3.7617
X4.265Y-3.8318
X4.61Y-3.4502
X4.61Y-3.5502
M30
