%TF.GenerationSoftware,KiCad,Pcbnew,9.0.7*%
%TF.CreationDate,2026-03-20T04:33:47+09:00*%
%TF.ProjectId,KiCad_HD63701Y0_27256_EPROM_Adapter,4b694361-645f-4484-9436-333730315930,rev?*%
%TF.SameCoordinates,Original*%
%TF.FileFunction,Copper,L1,Top*%
%TF.FilePolarity,Positive*%
%FSLAX46Y46*%
G04 Gerber Fmt 4.6, Leading zero omitted, Abs format (unit mm)*
G04 Created by KiCad (PCBNEW 9.0.7) date 2026-03-20 04:33:47*
%MOMM*%
%LPD*%
G01*
G04 APERTURE LIST*
G04 Aperture macros list*
%AMRoundRect*
0 Rectangle with rounded corners*
0 $1 Rounding radius*
0 $2 $3 $4 $5 $6 $7 $8 $9 X,Y pos of 4 corners*
0 Add a 4 corners polygon primitive as box body*
4,1,4,$2,$3,$4,$5,$6,$7,$8,$9,$2,$3,0*
0 Add four circle primitives for the rounded corners*
1,1,$1+$1,$2,$3*
1,1,$1+$1,$4,$5*
1,1,$1+$1,$6,$7*
1,1,$1+$1,$8,$9*
0 Add four rect primitives between the rounded corners*
20,1,$1+$1,$2,$3,$4,$5,0*
20,1,$1+$1,$4,$5,$6,$7,0*
20,1,$1+$1,$6,$7,$8,$9,0*
20,1,$1+$1,$8,$9,$2,$3,0*%
%AMFreePoly0*
4,1,23,0.000000,0.745722,0.065263,0.745722,0.191342,0.711940,0.304381,0.646677,0.396677,0.554381,0.461940,0.441342,0.495722,0.315263,0.495722,0.250000,0.500000,0.250000,0.500000,-0.250000,0.495722,-0.250000,0.495722,-0.315263,0.461940,-0.441342,0.396677,-0.554381,0.304381,-0.646677,0.191342,-0.711940,0.065263,-0.745722,0.000000,-0.745722,0.000000,-0.750000,-0.500000,-0.750000,
-0.500000,0.750000,0.000000,0.750000,0.000000,0.745722,0.000000,0.745722,$1*%
%AMFreePoly1*
4,1,23,0.500000,-0.750000,0.000000,-0.750000,0.000000,-0.745722,-0.065263,-0.745722,-0.191342,-0.711940,-0.304381,-0.646677,-0.396677,-0.554381,-0.461940,-0.441342,-0.495722,-0.315263,-0.495722,-0.250000,-0.500000,-0.250000,-0.500000,0.250000,-0.495722,0.250000,-0.495722,0.315263,-0.461940,0.441342,-0.396677,0.554381,-0.304381,0.646677,-0.191342,0.711940,-0.065263,0.745722,0.000000,0.745722,
0.000000,0.750000,0.500000,0.750000,0.500000,-0.750000,0.500000,-0.750000,$1*%
G04 Aperture macros list end*
%TA.AperFunction,ComponentPad*%
%ADD10C,1.700000*%
%TD*%
%TA.AperFunction,ComponentPad*%
%ADD11R,1.700000X1.700000*%
%TD*%
%TA.AperFunction,SMDPad,CuDef*%
%ADD12FreePoly0,180.000000*%
%TD*%
%TA.AperFunction,SMDPad,CuDef*%
%ADD13FreePoly1,180.000000*%
%TD*%
%TA.AperFunction,SMDPad,CuDef*%
%ADD14FreePoly1,0.000000*%
%TD*%
%TA.AperFunction,SMDPad,CuDef*%
%ADD15FreePoly0,0.000000*%
%TD*%
%TA.AperFunction,ComponentPad*%
%ADD16O,2.400000X1.600000*%
%TD*%
%TA.AperFunction,ComponentPad*%
%ADD17RoundRect,0.250000X-0.950000X-0.550000X0.950000X-0.550000X0.950000X0.550000X-0.950000X0.550000X0*%
%TD*%
%TA.AperFunction,ComponentPad*%
%ADD18O,2.200000X1.300000*%
%TD*%
%TA.AperFunction,ComponentPad*%
%ADD19R,2.200000X1.300000*%
%TD*%
%TA.AperFunction,ViaPad*%
%ADD20C,0.609600*%
%TD*%
%TA.AperFunction,Conductor*%
%ADD21C,0.304800*%
%TD*%
%TA.AperFunction,Conductor*%
%ADD22C,0.406400*%
%TD*%
G04 APERTURE END LIST*
D10*
%TO.P,J1,2,Pin_2*%
%TO.N,/VPP_TARGET*%
X117094000Y-87635000D03*
D11*
%TO.P,J1,1,Pin_1*%
%TO.N,/VPP*%
X117094000Y-90175000D03*
%TD*%
D10*
%TO.P,J2,3,Pin_3*%
%TO.N,Net-(J2-Pin_3)*%
X78232000Y-37338000D03*
%TO.P,J2,2,Pin_2*%
%TO.N,+6V*%
X78232000Y-39878000D03*
D11*
%TO.P,J2,1,Pin_1*%
%TO.N,Net-(J2-Pin_1)*%
X78232000Y-42418000D03*
%TD*%
D10*
%TO.P,J3,2,Pin_2*%
%TO.N,GND*%
X81915000Y-42413000D03*
D11*
%TO.P,J3,1,Pin_1*%
%TO.N,Net-(J2-Pin_1)*%
X81915000Y-39873000D03*
%TD*%
D12*
%TO.P,JP1,2,B*%
%TO.N,Net-(JP1-B)*%
X116428000Y-96774000D03*
D13*
%TO.P,JP1,1,A*%
%TO.N,GND*%
X117728000Y-96774000D03*
%TD*%
D12*
%TO.P,JP2,2,B*%
%TO.N,Net-(JP2-B)*%
X116458000Y-93726000D03*
D13*
%TO.P,JP2,1,A*%
%TO.N,GND*%
X117758000Y-93726000D03*
%TD*%
D12*
%TO.P,JP4,2,B*%
%TO.N,Net-(JP4-B)*%
X116428000Y-50292000D03*
D13*
%TO.P,JP4,1,A*%
%TO.N,GND*%
X117728000Y-50292000D03*
%TD*%
D12*
%TO.P,JP5,2,B*%
%TO.N,Net-(JP5-B)*%
X116428000Y-47244000D03*
D13*
%TO.P,JP5,1,A*%
%TO.N,GND*%
X117728000Y-47244000D03*
%TD*%
D12*
%TO.P,JP6,2,B*%
%TO.N,Net-(JP6-B)*%
X116458000Y-44318000D03*
D13*
%TO.P,JP6,1,A*%
%TO.N,GND*%
X117758000Y-44318000D03*
%TD*%
D12*
%TO.P,JP7,2,B*%
%TO.N,Net-(JP7-B)*%
X116458000Y-41402000D03*
D13*
%TO.P,JP7,1,A*%
%TO.N,GND*%
X117758000Y-41402000D03*
%TD*%
D14*
%TO.P,JP9,1,A*%
%TO.N,GND*%
X79994000Y-98812000D03*
D15*
%TO.P,JP9,2,B*%
%TO.N,Net-(JP9-B)*%
X81294000Y-98812000D03*
%TD*%
D14*
%TO.P,JP10,1,A*%
%TO.N,GND*%
X79994000Y-96266000D03*
D15*
%TO.P,JP10,2,B*%
%TO.N,Net-(JP10-B)*%
X81294000Y-96266000D03*
%TD*%
%TO.P,JP11,2,B*%
%TO.N,Net-(JP11-B)*%
X81294000Y-93726000D03*
D14*
%TO.P,JP11,1,A*%
%TO.N,GND*%
X79994000Y-93726000D03*
%TD*%
D15*
%TO.P,JP12,2,B*%
%TO.N,Net-(JP12-B)*%
X81294000Y-91186000D03*
D14*
%TO.P,JP12,1,A*%
%TO.N,GND*%
X79994000Y-91186000D03*
%TD*%
D15*
%TO.P,JP13,2,B*%
%TO.N,Net-(JP13-B)*%
X81294000Y-88646000D03*
D14*
%TO.P,JP13,1,A*%
%TO.N,GND*%
X79994000Y-88646000D03*
%TD*%
D13*
%TO.P,JP3,1,A*%
%TO.N,GND*%
X117758000Y-84074000D03*
D12*
%TO.P,JP3,2,B*%
%TO.N,Net-(JP3-B)*%
X116458000Y-84074000D03*
%TD*%
D15*
%TO.P,JP8,2,B*%
%TO.N,Net-(JP8-B)*%
X81294000Y-101346000D03*
D14*
%TO.P,JP8,1,A*%
%TO.N,GND*%
X79994000Y-101346000D03*
%TD*%
D16*
%TO.P,U2,28,VCC*%
%TO.N,Net-(J2-Pin_3)*%
X73533000Y-37084000D03*
%TO.P,U2,27,A14*%
%TO.N,/A14*%
X73533000Y-39624000D03*
%TO.P,U2,26,A13*%
%TO.N,/A13*%
X73533000Y-42164000D03*
%TO.P,U2,25,A8*%
%TO.N,/A8*%
X73533000Y-44704000D03*
%TO.P,U2,24,A9*%
%TO.N,/A9*%
X73533000Y-47244000D03*
%TO.P,U2,23,A11*%
%TO.N,/A11*%
X73533000Y-49784000D03*
%TO.P,U2,22,~{OE}*%
%TO.N,/~{OE}*%
X73533000Y-52324000D03*
%TO.P,U2,21,A10*%
%TO.N,/A10*%
X73533000Y-54864000D03*
%TO.P,U2,20,~{CE}*%
%TO.N,/~{CE}*%
X73533000Y-57404000D03*
%TO.P,U2,19,D7*%
%TO.N,/D7*%
X73533000Y-59944000D03*
%TO.P,U2,18,D6*%
%TO.N,/D6*%
X73533000Y-62484000D03*
%TO.P,U2,17,D5*%
%TO.N,/D5*%
X73533000Y-65024000D03*
%TO.P,U2,16,D4*%
%TO.N,/D4*%
X73533000Y-67564000D03*
%TO.P,U2,15,D3*%
%TO.N,/D3*%
X73533000Y-70104000D03*
%TO.P,U2,14,GND*%
%TO.N,GND*%
X58293000Y-70104000D03*
%TO.P,U2,13,D2*%
%TO.N,/D2*%
X58293000Y-67564000D03*
%TO.P,U2,12,D1*%
%TO.N,/D1*%
X58293000Y-65024000D03*
%TO.P,U2,11,D0*%
%TO.N,/D0*%
X58293000Y-62484000D03*
%TO.P,U2,10,A0*%
%TO.N,/A0*%
X58293000Y-59944000D03*
%TO.P,U2,9,A1*%
%TO.N,/A1*%
X58293000Y-57404000D03*
%TO.P,U2,8,A2*%
%TO.N,/A2*%
X58293000Y-54864000D03*
%TO.P,U2,7,A3*%
%TO.N,/A3*%
X58293000Y-52324000D03*
%TO.P,U2,6,A4*%
%TO.N,/A4*%
X58293000Y-49784000D03*
%TO.P,U2,5,A5*%
%TO.N,/A5*%
X58293000Y-47244000D03*
%TO.P,U2,4,A6*%
%TO.N,/A6*%
X58293000Y-44704000D03*
%TO.P,U2,3,A7*%
%TO.N,/A7*%
X58293000Y-42164000D03*
%TO.P,U2,2,A12*%
%TO.N,/A12*%
X58293000Y-39624000D03*
D17*
%TO.P,U2,1,VPP*%
%TO.N,/VPP*%
X58293000Y-37084000D03*
%TD*%
D18*
%TO.P,U1,64,E*%
%TO.N,Net-(JP8-B)*%
X87630000Y-97328000D03*
%TO.P,U1,63,~{RD}/P_{70}*%
%TO.N,Net-(JP9-B)*%
X87630000Y-95548000D03*
%TO.P,U1,62,~{WR}/P_{71}*%
%TO.N,Net-(JP10-B)*%
X87630000Y-93768000D03*
%TO.P,U1,61,R/~{W}/P_{72}*%
%TO.N,Net-(JP11-B)*%
X87630000Y-91988000D03*
%TO.P,U1,60,~{LIR}/P_{73}*%
%TO.N,Net-(JP12-B)*%
X87630000Y-90208000D03*
%TO.P,U1,59,BA/P_{74}*%
%TO.N,Net-(JP13-B)*%
X87630000Y-88428000D03*
%TO.P,U1,58,D_{0}/P_{30}/EO_{0}*%
%TO.N,/D0*%
X87630000Y-86648000D03*
%TO.P,U1,57,D_{1}/P_{31}/EO_{1}*%
%TO.N,/D1*%
X87630000Y-84868000D03*
%TO.P,U1,56,D_{2}/P_{32}/EO_{2}*%
%TO.N,/D2*%
X87630000Y-83088000D03*
%TO.P,U1,55,D_{3}/P_{33}/EO_{3}*%
%TO.N,/D3*%
X87630000Y-81308000D03*
%TO.P,U1,54,D_{4}/P_{34}/EO_{4}*%
%TO.N,/D4*%
X87630000Y-79528000D03*
%TO.P,U1,53,D_{5}/P_{35}/EO_{5}*%
%TO.N,/D5*%
X87630000Y-77748000D03*
%TO.P,U1,52,D_{6}/P_{36}/EO_{6}*%
%TO.N,/D6*%
X87630000Y-75968000D03*
%TO.P,U1,51,D_{7}/P_{37}/EO_{7}*%
%TO.N,/D7*%
X87630000Y-74188000D03*
%TO.P,U1,50,A_{0}/P_{10}/EA_{0}*%
%TO.N,/A0*%
X87630000Y-72408000D03*
%TO.P,U1,49,A_{1}/P_{11}/EA_{1}*%
%TO.N,/A1*%
X87630000Y-70628000D03*
%TO.P,U1,48,A_{2}/P_{12}/EA_{2}*%
%TO.N,/A2*%
X87630000Y-68848000D03*
%TO.P,U1,47,A_{3}/P_{13}/EA_{3}*%
%TO.N,/A3*%
X87630000Y-67068000D03*
%TO.P,U1,46,A_{4}/P_{14}/EA_{4}*%
%TO.N,/A4*%
X87630000Y-65288000D03*
%TO.P,U1,45,A_{5}/P_{15}/EA_{5}*%
%TO.N,/A5*%
X87630000Y-63508000D03*
%TO.P,U1,44,A_{6}/P_{16}/EA_{6}*%
%TO.N,/A6*%
X87630000Y-61728000D03*
%TO.P,U1,43,A_{7}/P_{17}/EA_{7}*%
%TO.N,/A7*%
X87630000Y-59948000D03*
%TO.P,U1,42,Vss*%
%TO.N,GND*%
X87630000Y-58168000D03*
%TO.P,U1,41,A_{8}/P_{40}/EA_{8}*%
%TO.N,/A8*%
X87630000Y-56388000D03*
%TO.P,U1,40,A_{9}/P_{41}/~{OE}*%
%TO.N,/~{OE}*%
X87630000Y-54608000D03*
%TO.P,U1,39,A_{10}/P_{42}/EA_{10}*%
%TO.N,/A10*%
X87630000Y-52828000D03*
%TO.P,U1,38,A_{11}/P_{43}/EA_{11}*%
%TO.N,/A11*%
X87630000Y-51048000D03*
%TO.P,U1,37,A_{12}/P_{44}/EA_{12}*%
%TO.N,/A12*%
X87630000Y-49268000D03*
%TO.P,U1,36,A_{13}/P_{45}/EA_{13}*%
%TO.N,/A13*%
X87630000Y-47488000D03*
%TO.P,U1,35,A_{14}/P_{46}/EA_{14}*%
%TO.N,/A14*%
X87630000Y-45708000D03*
%TO.P,U1,34,A_{15}/P_{47}/~{CE}*%
%TO.N,/~{CE}*%
X87630000Y-43928000D03*
%TO.P,U1,33,Vcc*%
%TO.N,+6V*%
X87630000Y-42148000D03*
%TO.P,U1,32,P_{67}*%
%TO.N,Net-(JP7-B)*%
X108330000Y-42148000D03*
%TO.P,U1,31,P_{66}*%
%TO.N,Net-(JP6-B)*%
X108330000Y-43928000D03*
%TO.P,U1,30,P_{65}*%
%TO.N,unconnected-(U1-P_{65}-Pad30)*%
X108330000Y-45708000D03*
%TO.P,U1,29,P_{64}*%
%TO.N,unconnected-(U1-P_{64}-Pad29)*%
X108330000Y-47488000D03*
%TO.P,U1,28,P_{63}*%
%TO.N,Net-(JP5-B)*%
X108330000Y-49268000D03*
%TO.P,U1,27,P_{62}*%
%TO.N,Net-(JP4-B)*%
X108330000Y-51048000D03*
%TO.P,U1,26,P_{61}*%
%TO.N,unconnected-(U1-P_{61}-Pad26)*%
X108330000Y-52828000D03*
%TO.P,U1,25,P_{60}*%
%TO.N,unconnected-(U1-P_{60}-Pad25)*%
X108330000Y-54608000D03*
%TO.P,U1,24,P_{57}*%
%TO.N,unconnected-(U1-P_{57}-Pad24)*%
X108330000Y-56388000D03*
%TO.P,U1,23,P_{56}*%
%TO.N,unconnected-(U1-P_{56}-Pad23)*%
X108330000Y-58168000D03*
%TO.P,U1,22,P_{55}/~{OS}*%
%TO.N,unconnected-(U1-P_{55}{slash}~{OS}-Pad22)*%
X108330000Y-59948000D03*
%TO.P,U1,21,P_{54}/~{IS}*%
%TO.N,unconnected-(U1-P_{54}{slash}~{IS}-Pad21)*%
X108330000Y-61728000D03*
%TO.P,U1,20,P_{53}/~{HALT}*%
%TO.N,unconnected-(U1-P_{53}{slash}~{HALT}-Pad20)*%
X108330000Y-63508000D03*
%TO.P,U1,19,P_{52}/MR*%
%TO.N,unconnected-(U1-P_{52}{slash}MR-Pad19)*%
X108330000Y-65288000D03*
%TO.P,U1,18,P_{51}/~{IRQ_{2}}*%
%TO.N,unconnected-(U1-P_{51}{slash}~{IRQ_{2}}-Pad18)*%
X108330000Y-67068000D03*
%TO.P,U1,17,P_{50}/~{IRQ_{1}}*%
%TO.N,unconnected-(U1-P_{50}{slash}~{IRQ_{1}}-Pad17)*%
X108330000Y-68848000D03*
%TO.P,U1,16,P_{27}/TCLK*%
%TO.N,unconnected-(U1-P_{27}{slash}TCLK-Pad16)*%
X108330000Y-70628000D03*
%TO.P,U1,15,P_{26}/Tout3*%
%TO.N,unconnected-(U1-P_{26}{slash}Tout3-Pad15)*%
X108330000Y-72408000D03*
%TO.P,U1,14,P_{25}/Tout2*%
%TO.N,unconnected-(U1-P_{25}{slash}Tout2-Pad14)*%
X108330000Y-74188000D03*
%TO.P,U1,13,P_{24}/Tx*%
%TO.N,unconnected-(U1-P_{24}{slash}Tx-Pad13)*%
X108330000Y-75968000D03*
%TO.P,U1,12,P_{23}/Rx*%
%TO.N,unconnected-(U1-P_{23}{slash}Rx-Pad12)*%
X108330000Y-77748000D03*
%TO.P,U1,11,P_{22}/SCLK*%
%TO.N,unconnected-(U1-P_{22}{slash}SCLK-Pad11)*%
X108330000Y-79528000D03*
%TO.P,U1,10,P_{21}/Tout1*%
%TO.N,unconnected-(U1-P_{21}{slash}Tout1-Pad10)*%
X108330000Y-81308000D03*
%TO.P,U1,9,P_{20}/Tin*%
%TO.N,unconnected-(U1-P_{20}{slash}Tin-Pad9)*%
X108330000Y-83088000D03*
%TO.P,U1,8,~{NMI}/EA9*%
%TO.N,/A9*%
X108330000Y-84868000D03*
%TO.P,U1,7,~{STBY}*%
%TO.N,Net-(JP3-B)*%
X108330000Y-86648000D03*
%TO.P,U1,6,~{RES}/Vpp*%
%TO.N,/VPP_TARGET*%
X108330000Y-88428000D03*
%TO.P,U1,5,MP1*%
%TO.N,GND*%
X108330000Y-90208000D03*
%TO.P,U1,4,MP0*%
X108330000Y-91988000D03*
%TO.P,U1,3,EXTAL*%
%TO.N,Net-(JP2-B)*%
X108330000Y-93768000D03*
%TO.P,U1,2,XTAL*%
%TO.N,Net-(JP1-B)*%
X108330000Y-95548000D03*
D19*
%TO.P,U1,1,Vss*%
%TO.N,GND*%
X108330000Y-97328000D03*
%TD*%
D20*
%TO.N,/~{CE}*%
X77597000Y-44958000D03*
%TO.N,GND*%
X55880000Y-94742000D03*
X63500000Y-102616000D03*
X63500000Y-105156000D03*
X54356000Y-97028000D03*
X88138000Y-105156000D03*
X84582000Y-102362000D03*
X91948000Y-101600000D03*
X91948000Y-99060000D03*
X81788000Y-87122000D03*
X68580000Y-73914000D03*
X55880000Y-72390000D03*
X68580000Y-71374000D03*
X89662000Y-85852000D03*
X89662000Y-73152000D03*
X89662000Y-60706000D03*
X106426000Y-85852000D03*
X98552000Y-85852000D03*
X98044000Y-73152000D03*
X106426000Y-73152000D03*
X100330000Y-73152000D03*
X98044000Y-60706000D03*
X100330000Y-60706000D03*
X106426000Y-60706000D03*
X106426000Y-46482000D03*
X100330000Y-46482000D03*
X98044000Y-46482000D03*
X89662000Y-46482000D03*
X85598000Y-41656000D03*
X83820000Y-39116000D03*
X80518000Y-36576000D03*
X88392000Y-38608000D03*
X89154000Y-40894000D03*
X96774000Y-40894000D03*
X100076000Y-40894000D03*
X106426000Y-40640000D03*
X106426000Y-36830000D03*
X100076000Y-36576000D03*
X120650000Y-36830000D03*
X120650000Y-45720000D03*
X110236000Y-46482000D03*
X110236000Y-60706000D03*
X120650000Y-60706000D03*
X120650000Y-73152000D03*
X110236000Y-73152000D03*
X102108000Y-83312000D03*
X106426000Y-83312000D03*
X110490000Y-83312000D03*
X120650000Y-83312000D03*
X120650000Y-90170000D03*
X115316000Y-87122000D03*
X111252000Y-89662000D03*
X111252000Y-92456000D03*
X118364000Y-92202000D03*
X118364000Y-99060000D03*
X106426000Y-99314000D03*
X98552000Y-99060000D03*
X98552000Y-101600000D03*
X106426000Y-101600000D03*
X118364000Y-101600000D03*
X84937600Y-57251600D03*
X77978000Y-57200800D03*
X78130400Y-53949600D03*
X84937600Y-53949600D03*
X78435200Y-102362000D03*
%TD*%
D21*
%TO.N,Net-(JP7-B)*%
X116458000Y-41402000D02*
X115712000Y-42148000D01*
X115712000Y-42148000D02*
X108330000Y-42148000D01*
%TO.N,Net-(JP6-B)*%
X108330000Y-43928000D02*
X116068000Y-43928000D01*
X116068000Y-43928000D02*
X116458000Y-44318000D01*
%TO.N,Net-(JP5-B)*%
X108330000Y-49268000D02*
X111768000Y-49268000D01*
X111768000Y-49268000D02*
X113792000Y-47244000D01*
X113792000Y-47244000D02*
X116428000Y-47244000D01*
%TO.N,Net-(JP4-B)*%
X108330000Y-51048000D02*
X112782000Y-51048000D01*
X112782000Y-51048000D02*
X113538000Y-50292000D01*
X113538000Y-50292000D02*
X116428000Y-50292000D01*
%TO.N,Net-(JP2-B)*%
X116458000Y-93726000D02*
X108372000Y-93726000D01*
X108372000Y-93726000D02*
X108330000Y-93768000D01*
%TO.N,Net-(JP1-B)*%
X108330000Y-95548000D02*
X113582000Y-95548000D01*
X113582000Y-95548000D02*
X114808000Y-96774000D01*
X114808000Y-96774000D02*
X116428000Y-96774000D01*
%TO.N,Net-(JP3-B)*%
X108330000Y-86648000D02*
X113884000Y-86648000D01*
X113884000Y-86648000D02*
X116458000Y-84074000D01*
%TO.N,/D2*%
X83342000Y-83088000D02*
X87630000Y-83088000D01*
X67818000Y-67564000D02*
X83342000Y-83088000D01*
%TO.N,/D1*%
X67447400Y-68717400D02*
X83598000Y-84868000D01*
X83598000Y-84868000D02*
X87630000Y-84868000D01*
%TO.N,/D2*%
X58293000Y-67564000D02*
X67818000Y-67564000D01*
%TO.N,/D1*%
X58293000Y-65024000D02*
X57023000Y-65024000D01*
X57023000Y-65024000D02*
X56515000Y-65532000D01*
X56515000Y-65532000D02*
X56515000Y-68326000D01*
X56515000Y-68326000D02*
X56906400Y-68717400D01*
X56906400Y-68717400D02*
X67447400Y-68717400D01*
%TO.N,/A11*%
X73533000Y-49784000D02*
X74866500Y-49784000D01*
X74866500Y-49784000D02*
X76130500Y-51048000D01*
X76130500Y-51048000D02*
X87630000Y-51048000D01*
%TO.N,/A14*%
X73533000Y-39624000D02*
X73533000Y-40132000D01*
X87630000Y-45708000D02*
X76823000Y-45708000D01*
X74803000Y-39624000D02*
X73533000Y-39624000D01*
X76073000Y-44958000D02*
X76073000Y-40894000D01*
X76823000Y-45708000D02*
X76073000Y-44958000D01*
X76073000Y-40894000D02*
X74803000Y-39624000D01*
%TO.N,/A13*%
X73533000Y-42164000D02*
X74676000Y-42164000D01*
X74676000Y-42164000D02*
X75311000Y-42799000D01*
X75311000Y-42799000D02*
X75311000Y-45339000D01*
X77460000Y-47488000D02*
X87630000Y-47488000D01*
X75311000Y-45339000D02*
X77460000Y-47488000D01*
%TO.N,/~{CE}*%
X84074000Y-44958000D02*
X85104000Y-43928000D01*
X85104000Y-43928000D02*
X87630000Y-43928000D01*
D22*
%TO.N,Net-(J2-Pin_3)*%
X73533000Y-37084000D02*
X77978000Y-37084000D01*
X77978000Y-37084000D02*
X78232000Y-37338000D01*
%TO.N,+6V*%
X78232000Y-39878000D02*
X80137000Y-37973000D01*
X80137000Y-37973000D02*
X85725000Y-37973000D01*
X85725000Y-37973000D02*
X87630000Y-39878000D01*
X87630000Y-39878000D02*
X87630000Y-42148000D01*
%TO.N,Net-(J2-Pin_1)*%
X80137000Y-41783000D02*
X80137000Y-40513000D01*
X78232000Y-42418000D02*
X79502000Y-42418000D01*
X79502000Y-42418000D02*
X80137000Y-41783000D01*
X80137000Y-40513000D02*
X80645000Y-40005000D01*
X80645000Y-40005000D02*
X81915000Y-40005000D01*
D21*
%TO.N,Net-(JP13-B)*%
X87630000Y-88428000D02*
X81512000Y-88428000D01*
X81512000Y-88428000D02*
X81294000Y-88646000D01*
%TO.N,Net-(JP12-B)*%
X87630000Y-90208000D02*
X83528000Y-90208000D01*
X83528000Y-90208000D02*
X82550000Y-91186000D01*
X82550000Y-91186000D02*
X81294000Y-91186000D01*
%TO.N,Net-(JP11-B)*%
X87630000Y-91988000D02*
X83907000Y-91988000D01*
X83907000Y-91988000D02*
X82169000Y-93726000D01*
X82169000Y-93726000D02*
X81294000Y-93726000D01*
%TO.N,Net-(JP10-B)*%
X83792000Y-93768000D02*
X81294000Y-96266000D01*
X87630000Y-93768000D02*
X83792000Y-93768000D01*
%TO.N,Net-(JP9-B)*%
X87630000Y-95548000D02*
X84792000Y-95548000D01*
X84792000Y-95548000D02*
X83947000Y-96393000D01*
X83947000Y-96393000D02*
X83947000Y-98044000D01*
X83179000Y-98812000D02*
X81294000Y-98812000D01*
X83947000Y-98044000D02*
X83179000Y-98812000D01*
%TO.N,Net-(JP8-B)*%
X87630000Y-97328000D02*
X85425000Y-97328000D01*
X85425000Y-97328000D02*
X84836000Y-97917000D01*
X84836000Y-97917000D02*
X84836000Y-100584000D01*
X84836000Y-100584000D02*
X84074000Y-101346000D01*
X84074000Y-101346000D02*
X81294000Y-101346000D01*
D22*
%TO.N,/VPP_TARGET*%
X108330000Y-88428000D02*
X116301000Y-88428000D01*
X116301000Y-88428000D02*
X117094000Y-87635000D01*
%TO.N,/VPP*%
X117094000Y-90175000D02*
X118369000Y-90175000D01*
X118369000Y-90175000D02*
X119761000Y-91567000D01*
X119761000Y-91567000D02*
X119761000Y-99822000D01*
X119761000Y-99822000D02*
X119126000Y-100457000D01*
X119126000Y-100457000D02*
X91186000Y-100457000D01*
X91186000Y-100457000D02*
X87884000Y-103759000D01*
X87884000Y-103759000D02*
X62992000Y-103759000D01*
X62992000Y-103759000D02*
X54610000Y-95377000D01*
X54610000Y-95377000D02*
X54610000Y-38354000D01*
X54610000Y-38354000D02*
X55880000Y-37084000D01*
X55880000Y-37084000D02*
X58293000Y-37084000D01*
D21*
%TO.N,/~{CE}*%
X77597000Y-44958000D02*
X84074000Y-44958000D01*
%TO.N,/D3*%
X87630000Y-81308000D02*
X85118000Y-81308000D01*
X85118000Y-81308000D02*
X73914000Y-70104000D01*
X73914000Y-70104000D02*
X73533000Y-70104000D01*
%TO.N,/D4*%
X87630000Y-79528000D02*
X84862000Y-79528000D01*
X84862000Y-79528000D02*
X76403200Y-71069200D01*
X76403200Y-71069200D02*
X76403200Y-68884800D01*
X76403200Y-68884800D02*
X75082400Y-67564000D01*
X75082400Y-67564000D02*
X73533000Y-67564000D01*
%TO.N,/D5*%
X87630000Y-77748000D02*
X84352000Y-77748000D01*
X77571600Y-70967600D02*
X77571600Y-67665600D01*
X84352000Y-77748000D02*
X77571600Y-70967600D01*
X77571600Y-67665600D02*
X74930000Y-65024000D01*
X74930000Y-65024000D02*
X73533000Y-65024000D01*
%TO.N,/D7*%
X73533000Y-59944000D02*
X74980800Y-59944000D01*
X84094000Y-74188000D02*
X87630000Y-74188000D01*
X74980800Y-59944000D02*
X79298800Y-64262000D01*
X79298800Y-64262000D02*
X79298800Y-69392800D01*
X79298800Y-69392800D02*
X84094000Y-74188000D01*
%TO.N,/D6*%
X87630000Y-75968000D02*
X84299200Y-75968000D01*
X78536800Y-70205600D02*
X78536800Y-66040000D01*
X84299200Y-75968000D02*
X78536800Y-70205600D01*
X78536800Y-66040000D02*
X74980800Y-62484000D01*
X74980800Y-62484000D02*
X73533000Y-62484000D01*
%TO.N,/A10*%
X87630000Y-52828000D02*
X76966000Y-52828000D01*
X76966000Y-52828000D02*
X74930000Y-54864000D01*
X74930000Y-54864000D02*
X73533000Y-54864000D01*
%TO.N,/A6*%
X87630000Y-61728000D02*
X78187200Y-61728000D01*
X78187200Y-61728000D02*
X75133200Y-58674000D01*
X75133200Y-58674000D02*
X70485000Y-58674000D01*
X70485000Y-58674000D02*
X66040000Y-54229000D01*
X66040000Y-47193200D02*
X63550800Y-44704000D01*
X66040000Y-54229000D02*
X66040000Y-47193200D01*
X63550800Y-44704000D02*
X58293000Y-44704000D01*
%TO.N,/A7*%
X87630000Y-59948000D02*
X78693200Y-59948000D01*
X78693200Y-59948000D02*
X74879200Y-56134000D01*
X66852800Y-46278800D02*
X62738000Y-42164000D01*
X74879200Y-56134000D02*
X71120000Y-56134000D01*
X71120000Y-56134000D02*
X66852800Y-51866800D01*
X62738000Y-42164000D02*
X58293000Y-42164000D01*
X66852800Y-51866800D02*
X66852800Y-46278800D01*
%TO.N,/A12*%
X58293000Y-39624000D02*
X61823600Y-39624000D01*
X74803000Y-45974000D02*
X78097000Y-49268000D01*
X61823600Y-39624000D02*
X68173600Y-45974000D01*
X78097000Y-49268000D02*
X87630000Y-49268000D01*
X68173600Y-45974000D02*
X74803000Y-45974000D01*
%TO.N,/D0*%
X58293000Y-62484000D02*
X56769000Y-62484000D01*
X55753000Y-63500000D02*
X55753000Y-70612000D01*
X56769000Y-62484000D02*
X55753000Y-63500000D01*
X55753000Y-70612000D02*
X57785000Y-72644000D01*
X57785000Y-72644000D02*
X69342000Y-72644000D01*
X69342000Y-72644000D02*
X83346000Y-86648000D01*
X83346000Y-86648000D02*
X87630000Y-86648000D01*
%TD*%
%TA.AperFunction,Conductor*%
%TO.N,GND*%
G36*
X121101039Y-36087685D02*
G01*
X121146794Y-36140489D01*
X121158000Y-36192000D01*
X121158000Y-105794000D01*
X121138315Y-105861039D01*
X121085511Y-105906794D01*
X121034000Y-105918000D01*
X53972000Y-105918000D01*
X53904961Y-105898315D01*
X53859206Y-105845511D01*
X53848000Y-105794000D01*
X53848000Y-95909546D01*
X53854238Y-95888300D01*
X53855818Y-95866214D01*
X53863890Y-95855430D01*
X53867685Y-95842507D01*
X53884419Y-95828006D01*
X53897689Y-95810280D01*
X53910309Y-95805572D01*
X53920489Y-95796752D01*
X53942405Y-95793600D01*
X53963153Y-95785862D01*
X53976314Y-95788724D01*
X53989647Y-95786808D01*
X54009788Y-95796006D01*
X54031426Y-95800713D01*
X54049152Y-95813983D01*
X54053203Y-95815833D01*
X54059680Y-95821864D01*
X54093247Y-95855430D01*
X54161417Y-95923600D01*
X54161419Y-95923601D01*
X54165757Y-95927939D01*
X62442274Y-104204456D01*
X62442303Y-104204487D01*
X62543414Y-104305598D01*
X62658676Y-104382613D01*
X62786735Y-104435656D01*
X62786736Y-104435656D01*
X62786738Y-104435657D01*
X62786742Y-104435657D01*
X62786743Y-104435658D01*
X62922688Y-104462701D01*
X62922691Y-104462701D01*
X63067422Y-104462701D01*
X63067442Y-104462700D01*
X87808558Y-104462700D01*
X87808578Y-104462701D01*
X87814692Y-104462701D01*
X87953310Y-104462701D01*
X88044768Y-104444507D01*
X88089262Y-104435657D01*
X88131950Y-104417975D01*
X88217323Y-104382613D01*
X88217324Y-104382612D01*
X88217327Y-104382611D01*
X88332583Y-104305600D01*
X88430600Y-104207583D01*
X88430601Y-104207581D01*
X88437667Y-104200515D01*
X88437669Y-104200511D01*
X91441163Y-101197019D01*
X91502486Y-101163534D01*
X91528844Y-101160700D01*
X119050558Y-101160700D01*
X119050578Y-101160701D01*
X119056692Y-101160701D01*
X119195310Y-101160701D01*
X119286768Y-101142507D01*
X119331262Y-101133657D01*
X119373950Y-101115975D01*
X119459323Y-101080613D01*
X119459324Y-101080612D01*
X119459327Y-101080611D01*
X119574583Y-101003600D01*
X119672600Y-100905583D01*
X119672601Y-100905581D01*
X119679667Y-100898515D01*
X119679670Y-100898511D01*
X120209579Y-100368602D01*
X120209583Y-100368600D01*
X120307600Y-100270583D01*
X120384611Y-100155327D01*
X120411463Y-100090500D01*
X120437658Y-100027262D01*
X120464701Y-99891308D01*
X120464701Y-99752691D01*
X120464701Y-99747581D01*
X120464700Y-99747555D01*
X120464700Y-91497689D01*
X120464699Y-91497687D01*
X120451471Y-91431188D01*
X120437657Y-91361738D01*
X120436316Y-91358500D01*
X120384613Y-91233676D01*
X120307598Y-91118414D01*
X120206487Y-91017303D01*
X120206456Y-91017274D01*
X118919940Y-89730758D01*
X118919920Y-89730736D01*
X118817585Y-89628401D01*
X118702323Y-89551386D01*
X118574264Y-89498343D01*
X118574261Y-89498342D01*
X118544304Y-89492383D01*
X118482394Y-89459996D01*
X118447822Y-89399279D01*
X118444499Y-89370766D01*
X118444499Y-89277129D01*
X118444498Y-89277123D01*
X118443178Y-89264844D01*
X118438091Y-89217517D01*
X118423165Y-89177499D01*
X118387797Y-89082671D01*
X118387793Y-89082664D01*
X118301547Y-88967455D01*
X118301544Y-88967452D01*
X118186335Y-88881206D01*
X118186328Y-88881202D01*
X118054917Y-88832189D01*
X117998983Y-88790318D01*
X117974566Y-88724853D01*
X117989418Y-88656580D01*
X118010563Y-88628332D01*
X118124104Y-88514792D01*
X118249051Y-88342816D01*
X118345557Y-88153412D01*
X118411246Y-87951243D01*
X118444500Y-87741287D01*
X118444500Y-87528713D01*
X118411246Y-87318757D01*
X118345557Y-87116588D01*
X118249051Y-86927184D01*
X118249049Y-86927181D01*
X118249048Y-86927179D01*
X118124109Y-86755213D01*
X117973786Y-86604890D01*
X117801820Y-86479951D01*
X117612414Y-86383444D01*
X117612413Y-86383443D01*
X117612412Y-86383443D01*
X117410243Y-86317754D01*
X117410241Y-86317753D01*
X117410240Y-86317753D01*
X117248957Y-86292208D01*
X117200287Y-86284500D01*
X116987713Y-86284500D01*
X116939042Y-86292208D01*
X116777760Y-86317753D01*
X116575585Y-86383444D01*
X116386179Y-86479951D01*
X116214213Y-86604890D01*
X116063890Y-86755213D01*
X115938951Y-86927179D01*
X115842444Y-87116585D01*
X115776753Y-87318760D01*
X115743500Y-87528713D01*
X115743500Y-87600300D01*
X115723815Y-87667339D01*
X115671011Y-87713094D01*
X115619500Y-87724300D01*
X109753835Y-87724300D01*
X109723987Y-87715535D01*
X109693635Y-87708706D01*
X109689660Y-87705456D01*
X109686796Y-87704615D01*
X109665532Y-87687355D01*
X109659659Y-87681397D01*
X109657553Y-87678499D01*
X109604391Y-87625337D01*
X109604113Y-87625055D01*
X109587765Y-87594604D01*
X109571250Y-87564358D01*
X109571282Y-87563900D01*
X109571065Y-87563495D01*
X109573771Y-87529100D01*
X109576234Y-87494666D01*
X109576515Y-87494228D01*
X109576546Y-87493840D01*
X109577966Y-87491970D01*
X109604735Y-87450319D01*
X109618873Y-87436181D01*
X109657553Y-87397501D01*
X109690600Y-87352014D01*
X109745930Y-87309349D01*
X109790919Y-87300900D01*
X113948307Y-87300900D01*
X114033165Y-87284019D01*
X114074444Y-87275809D01*
X114193264Y-87226592D01*
X114300200Y-87155141D01*
X116117437Y-85337901D01*
X116178758Y-85304418D01*
X116237211Y-85305810D01*
X116261338Y-85312275D01*
X116392174Y-85329500D01*
X116392181Y-85329500D01*
X116958000Y-85329500D01*
X117029940Y-85324355D01*
X117167992Y-85283819D01*
X117289032Y-85206031D01*
X117383254Y-85097294D01*
X117443024Y-84966416D01*
X117463500Y-84824000D01*
X117463500Y-83324000D01*
X117458355Y-83252060D01*
X117417819Y-83114008D01*
X117387261Y-83066459D01*
X117340032Y-82992969D01*
X117340028Y-82992965D01*
X117231299Y-82898750D01*
X117231297Y-82898748D01*
X117231294Y-82898746D01*
X117231290Y-82898744D01*
X117100419Y-82838976D01*
X117100414Y-82838975D01*
X116958000Y-82818500D01*
X116392174Y-82818500D01*
X116392166Y-82818500D01*
X116261341Y-82835724D01*
X116134170Y-82869800D01*
X116012249Y-82920302D01*
X116012248Y-82920303D01*
X115898250Y-82986120D01*
X115898232Y-82986132D01*
X115793555Y-83066455D01*
X115793545Y-83066464D01*
X115700464Y-83159545D01*
X115700455Y-83159555D01*
X115620132Y-83264232D01*
X115620120Y-83264250D01*
X115554303Y-83378248D01*
X115554302Y-83378249D01*
X115503800Y-83500170D01*
X115469724Y-83627341D01*
X115452500Y-83758166D01*
X115452500Y-84104797D01*
X115432815Y-84171836D01*
X115416181Y-84192478D01*
X113649878Y-85958781D01*
X113588555Y-85992266D01*
X113562197Y-85995100D01*
X109790919Y-85995100D01*
X109757663Y-85985334D01*
X109724143Y-85975584D01*
X109724001Y-85975450D01*
X109723880Y-85975415D01*
X109697411Y-85952539D01*
X109693816Y-85948411D01*
X109657553Y-85898499D01*
X109601708Y-85842654D01*
X109598908Y-85839439D01*
X109586024Y-85811415D01*
X109571250Y-85784358D01*
X109571564Y-85779962D01*
X109569723Y-85775957D01*
X109574034Y-85745424D01*
X109576234Y-85714666D01*
X109578981Y-85710391D01*
X109579492Y-85706774D01*
X109586620Y-85698505D01*
X109604735Y-85670319D01*
X109623631Y-85651423D01*
X109657553Y-85617501D01*
X109763996Y-85470994D01*
X109846211Y-85309639D01*
X109902171Y-85137409D01*
X109916765Y-85045259D01*
X109930500Y-84958551D01*
X109930500Y-84777448D01*
X109914019Y-84673397D01*
X109902171Y-84598591D01*
X109846211Y-84426361D01*
X109846211Y-84426360D01*
X109817740Y-84370484D01*
X109763996Y-84265006D01*
X109750396Y-84246287D01*
X109657558Y-84118505D01*
X109657554Y-84118500D01*
X109604735Y-84065681D01*
X109571250Y-84004358D01*
X109576234Y-83934666D01*
X109604735Y-83890319D01*
X109657553Y-83837501D01*
X109763996Y-83690994D01*
X109846211Y-83529639D01*
X109902171Y-83357409D01*
X109918857Y-83252059D01*
X109930500Y-83178551D01*
X109930500Y-82997448D01*
X109914019Y-82893397D01*
X109902171Y-82818591D01*
X109846211Y-82646361D01*
X109846211Y-82646360D01*
X109817740Y-82590484D01*
X109763996Y-82485006D01*
X109750396Y-82466287D01*
X109657558Y-82338505D01*
X109657554Y-82338500D01*
X109604735Y-82285681D01*
X109571250Y-82224358D01*
X109576234Y-82154666D01*
X109604735Y-82110319D01*
X109657553Y-82057501D01*
X109763996Y-81910994D01*
X109846211Y-81749639D01*
X109902171Y-81577409D01*
X109916765Y-81485259D01*
X109930500Y-81398551D01*
X109930500Y-81217448D01*
X109914019Y-81113397D01*
X109902171Y-81038591D01*
X109846211Y-80866361D01*
X109846211Y-80866360D01*
X109817740Y-80810484D01*
X109763996Y-80705006D01*
X109750396Y-80686287D01*
X109657558Y-80558505D01*
X109657554Y-80558500D01*
X109604735Y-80505681D01*
X109571250Y-80444358D01*
X109576234Y-80374666D01*
X109604735Y-80330319D01*
X109657553Y-80277501D01*
X109763996Y-80130994D01*
X109846211Y-79969639D01*
X109902171Y-79797409D01*
X109916765Y-79705259D01*
X109930500Y-79618551D01*
X109930500Y-79437448D01*
X109914019Y-79333397D01*
X109902171Y-79258591D01*
X109846211Y-79086361D01*
X109846211Y-79086360D01*
X109817740Y-79030484D01*
X109763996Y-78925006D01*
X109750396Y-78906287D01*
X109657558Y-78778505D01*
X109657554Y-78778500D01*
X109604735Y-78725681D01*
X109571250Y-78664358D01*
X109576234Y-78594666D01*
X109604735Y-78550319D01*
X109657553Y-78497501D01*
X109763996Y-78350994D01*
X109846211Y-78189639D01*
X109902171Y-78017409D01*
X109916765Y-77925259D01*
X109930500Y-77838551D01*
X109930500Y-77657448D01*
X109914019Y-77553397D01*
X109902171Y-77478591D01*
X109846211Y-77306361D01*
X109846211Y-77306360D01*
X109817740Y-77250484D01*
X109763996Y-77145006D01*
X109750396Y-77126287D01*
X109657558Y-76998505D01*
X109657554Y-76998500D01*
X109604735Y-76945681D01*
X109571250Y-76884358D01*
X109576234Y-76814666D01*
X109604735Y-76770319D01*
X109657553Y-76717501D01*
X109763996Y-76570994D01*
X109846211Y-76409639D01*
X109902171Y-76237409D01*
X109916765Y-76145259D01*
X109930500Y-76058551D01*
X109930500Y-75877448D01*
X109914019Y-75773397D01*
X109902171Y-75698591D01*
X109846211Y-75526361D01*
X109846211Y-75526360D01*
X109817740Y-75470484D01*
X109763996Y-75365006D01*
X109750396Y-75346287D01*
X109657558Y-75218505D01*
X109657554Y-75218500D01*
X109604735Y-75165681D01*
X109571250Y-75104358D01*
X109576234Y-75034666D01*
X109604735Y-74990319D01*
X109657553Y-74937501D01*
X109763996Y-74790994D01*
X109846211Y-74629639D01*
X109902171Y-74457409D01*
X109916765Y-74365259D01*
X109930500Y-74278551D01*
X109930500Y-74097448D01*
X109914019Y-73993397D01*
X109902171Y-73918591D01*
X109846211Y-73746361D01*
X109846211Y-73746360D01*
X109817740Y-73690484D01*
X109763996Y-73585006D01*
X109750396Y-73566287D01*
X109657558Y-73438505D01*
X109657554Y-73438500D01*
X109604735Y-73385681D01*
X109571250Y-73324358D01*
X109576234Y-73254666D01*
X109604735Y-73210319D01*
X109627554Y-73187500D01*
X109657553Y-73157501D01*
X109763996Y-73010994D01*
X109846211Y-72849639D01*
X109902171Y-72677409D01*
X109916765Y-72585259D01*
X109930500Y-72498551D01*
X109930500Y-72317448D01*
X109914019Y-72213397D01*
X109902171Y-72138591D01*
X109874191Y-72052476D01*
X109846212Y-71966363D01*
X109846211Y-71966360D01*
X109817740Y-71910484D01*
X109763996Y-71805006D01*
X109750396Y-71786287D01*
X109657558Y-71658505D01*
X109657554Y-71658500D01*
X109604735Y-71605681D01*
X109571250Y-71544358D01*
X109576234Y-71474666D01*
X109604735Y-71430319D01*
X109630554Y-71404500D01*
X109657553Y-71377501D01*
X109763996Y-71230994D01*
X109846211Y-71069639D01*
X109902171Y-70897409D01*
X109919878Y-70785610D01*
X109930500Y-70718551D01*
X109930500Y-70537448D01*
X109910081Y-70408534D01*
X109902171Y-70358591D01*
X109869616Y-70258394D01*
X109846212Y-70186363D01*
X109846211Y-70186360D01*
X109777413Y-70051339D01*
X109763996Y-70025006D01*
X109709215Y-69949606D01*
X109657558Y-69878505D01*
X109657554Y-69878500D01*
X109604735Y-69825681D01*
X109571250Y-69764358D01*
X109576234Y-69694666D01*
X109604735Y-69650319D01*
X109657553Y-69597501D01*
X109763996Y-69450994D01*
X109846211Y-69289639D01*
X109902171Y-69117409D01*
X109922079Y-68991715D01*
X109930500Y-68938551D01*
X109930500Y-68757448D01*
X109914019Y-68653397D01*
X109902171Y-68578591D01*
X109852189Y-68424759D01*
X109846212Y-68406363D01*
X109846211Y-68406360D01*
X109817740Y-68350484D01*
X109763996Y-68245006D01*
X109715021Y-68177597D01*
X109657558Y-68098505D01*
X109657554Y-68098500D01*
X109604735Y-68045681D01*
X109571250Y-67984358D01*
X109576234Y-67914666D01*
X109604735Y-67870319D01*
X109606520Y-67868534D01*
X109657553Y-67817501D01*
X109763996Y-67670994D01*
X109846211Y-67509639D01*
X109902171Y-67337409D01*
X109916765Y-67245259D01*
X109930500Y-67158551D01*
X109930500Y-66977448D01*
X109911895Y-66859985D01*
X109902171Y-66798591D01*
X109846211Y-66626361D01*
X109846211Y-66626360D01*
X109773322Y-66483310D01*
X109763996Y-66465006D01*
X109691662Y-66365446D01*
X109657558Y-66318505D01*
X109657554Y-66318500D01*
X109604735Y-66265681D01*
X109571250Y-66204358D01*
X109576234Y-66134666D01*
X109604735Y-66090319D01*
X109657553Y-66037501D01*
X109763996Y-65890994D01*
X109846211Y-65729639D01*
X109902171Y-65557409D01*
X109916765Y-65465259D01*
X109930500Y-65378551D01*
X109930500Y-65197448D01*
X109914019Y-65093397D01*
X109902171Y-65018591D01*
X109846211Y-64846361D01*
X109846211Y-64846360D01*
X109781554Y-64719466D01*
X109763996Y-64685006D01*
X109750396Y-64666287D01*
X109657558Y-64538505D01*
X109657554Y-64538500D01*
X109604735Y-64485681D01*
X109571250Y-64424358D01*
X109576234Y-64354666D01*
X109604735Y-64310319D01*
X109657553Y-64257501D01*
X109763996Y-64110994D01*
X109846211Y-63949639D01*
X109902171Y-63777409D01*
X109923378Y-63643515D01*
X109930500Y-63598551D01*
X109930500Y-63417448D01*
X109911713Y-63298835D01*
X109902171Y-63238591D01*
X109846211Y-63066361D01*
X109846211Y-63066360D01*
X109803848Y-62983219D01*
X109763996Y-62905006D01*
X109711520Y-62832778D01*
X109657558Y-62758505D01*
X109657554Y-62758500D01*
X109604735Y-62705681D01*
X109571250Y-62644358D01*
X109576234Y-62574666D01*
X109604735Y-62530319D01*
X109657553Y-62477501D01*
X109763996Y-62330994D01*
X109846211Y-62169639D01*
X109902171Y-61997409D01*
X109924538Y-61856189D01*
X109930500Y-61818551D01*
X109930500Y-61637448D01*
X109914019Y-61533397D01*
X109902171Y-61458591D01*
X109846211Y-61286361D01*
X109846211Y-61286360D01*
X109777490Y-61151490D01*
X109763996Y-61125006D01*
X109748382Y-61103515D01*
X109657558Y-60978505D01*
X109657554Y-60978500D01*
X109604735Y-60925681D01*
X109571250Y-60864358D01*
X109576234Y-60794666D01*
X109604735Y-60750319D01*
X109657553Y-60697501D01*
X109763996Y-60550994D01*
X109846211Y-60389639D01*
X109902171Y-60217409D01*
X109929264Y-60046352D01*
X109930500Y-60038551D01*
X109930500Y-59857448D01*
X109914019Y-59753397D01*
X109902171Y-59678591D01*
X109846211Y-59506361D01*
X109846211Y-59506360D01*
X109814832Y-59444776D01*
X109763996Y-59345006D01*
X109750396Y-59326287D01*
X109657558Y-59198505D01*
X109657554Y-59198500D01*
X109604735Y-59145681D01*
X109571250Y-59084358D01*
X109576234Y-59014666D01*
X109604735Y-58970319D01*
X109623904Y-58951150D01*
X109657553Y-58917501D01*
X109763996Y-58770994D01*
X109846211Y-58609639D01*
X109902171Y-58437409D01*
X109916765Y-58345259D01*
X109930500Y-58258551D01*
X109930500Y-58077448D01*
X109911216Y-57955697D01*
X109902171Y-57898591D01*
X109846211Y-57726361D01*
X109846211Y-57726360D01*
X109795521Y-57626877D01*
X109763996Y-57565006D01*
X109717233Y-57500642D01*
X109657558Y-57418505D01*
X109657554Y-57418500D01*
X109604735Y-57365681D01*
X109571250Y-57304358D01*
X109576234Y-57234666D01*
X109604735Y-57190319D01*
X109657553Y-57137501D01*
X109763996Y-56990994D01*
X109846211Y-56829639D01*
X109902171Y-56657409D01*
X109918109Y-56556781D01*
X109930500Y-56478551D01*
X109930500Y-56297448D01*
X109914019Y-56193397D01*
X109902171Y-56118591D01*
X109871279Y-56023515D01*
X109846212Y-55946363D01*
X109846211Y-55946360D01*
X109817740Y-55890484D01*
X109763996Y-55785006D01*
X109710383Y-55711213D01*
X109657558Y-55638505D01*
X109657554Y-55638500D01*
X109604735Y-55585681D01*
X109571250Y-55524358D01*
X109576234Y-55454666D01*
X109604735Y-55410319D01*
X109626431Y-55388623D01*
X109657553Y-55357501D01*
X109763996Y-55210994D01*
X109846211Y-55049639D01*
X109902171Y-54877409D01*
X109920506Y-54761648D01*
X109930500Y-54698551D01*
X109930500Y-54517448D01*
X109906319Y-54364781D01*
X109902171Y-54338591D01*
X109846211Y-54166361D01*
X109846211Y-54166360D01*
X109817740Y-54110484D01*
X109763996Y-54005006D01*
X109746727Y-53981237D01*
X109657558Y-53858505D01*
X109657554Y-53858500D01*
X109604735Y-53805681D01*
X109571250Y-53744358D01*
X109576234Y-53674666D01*
X109604735Y-53630319D01*
X109657553Y-53577501D01*
X109763996Y-53430994D01*
X109846211Y-53269639D01*
X109902171Y-53097409D01*
X109916765Y-53005259D01*
X109930500Y-52918551D01*
X109930500Y-52737448D01*
X109913249Y-52628534D01*
X109902171Y-52558591D01*
X109859205Y-52426352D01*
X109846212Y-52386363D01*
X109846211Y-52386360D01*
X109812836Y-52320859D01*
X109763996Y-52225006D01*
X109744738Y-52198500D01*
X109657558Y-52078505D01*
X109657554Y-52078500D01*
X109604735Y-52025681D01*
X109602469Y-52021532D01*
X109598498Y-52018966D01*
X109585881Y-51991152D01*
X109571250Y-51964358D01*
X109571587Y-51959642D01*
X109569634Y-51955337D01*
X109574055Y-51925124D01*
X109576234Y-51894666D01*
X109579257Y-51889585D01*
X109579752Y-51886204D01*
X109590194Y-51871205D01*
X109598908Y-51856561D01*
X109601708Y-51853345D01*
X109657553Y-51797501D01*
X109693816Y-51747588D01*
X109697411Y-51743461D01*
X109722420Y-51727477D01*
X109745930Y-51709349D01*
X109752807Y-51708057D01*
X109756285Y-51705835D01*
X109764530Y-51705855D01*
X109790919Y-51700900D01*
X112846307Y-51700900D01*
X112931165Y-51684019D01*
X112972444Y-51675809D01*
X113091264Y-51626592D01*
X113094341Y-51624536D01*
X113198200Y-51555141D01*
X113772121Y-50981218D01*
X113833444Y-50947734D01*
X113859802Y-50944900D01*
X115427972Y-50944900D01*
X115495011Y-50964585D01*
X115535359Y-51006900D01*
X115590120Y-51101749D01*
X115590132Y-51101767D01*
X115670455Y-51206444D01*
X115670459Y-51206449D01*
X115763551Y-51299541D01*
X115763555Y-51299544D01*
X115868232Y-51379867D01*
X115868236Y-51379869D01*
X115868243Y-51379875D01*
X115868250Y-51379879D01*
X115982248Y-51445696D01*
X115982249Y-51445697D01*
X115982252Y-51445698D01*
X115982257Y-51445701D01*
X116104171Y-51496200D01*
X116231338Y-51530275D01*
X116362174Y-51547500D01*
X116362181Y-51547500D01*
X116928000Y-51547500D01*
X116999940Y-51542355D01*
X117137992Y-51501819D01*
X117259032Y-51424031D01*
X117353254Y-51315294D01*
X117413024Y-51184416D01*
X117433500Y-51042000D01*
X117433500Y-49542000D01*
X117428355Y-49470060D01*
X117387819Y-49332008D01*
X117357261Y-49284459D01*
X117310032Y-49210969D01*
X117310028Y-49210965D01*
X117201299Y-49116750D01*
X117201297Y-49116748D01*
X117201294Y-49116746D01*
X117201290Y-49116744D01*
X117070419Y-49056976D01*
X117070414Y-49056975D01*
X116928000Y-49036500D01*
X116362174Y-49036500D01*
X116362166Y-49036500D01*
X116231341Y-49053724D01*
X116104170Y-49087800D01*
X115982249Y-49138302D01*
X115982248Y-49138303D01*
X115868250Y-49204120D01*
X115868232Y-49204132D01*
X115763555Y-49284455D01*
X115763545Y-49284464D01*
X115670464Y-49377545D01*
X115670455Y-49377555D01*
X115590132Y-49482232D01*
X115590120Y-49482250D01*
X115535359Y-49577100D01*
X115484792Y-49625316D01*
X115427972Y-49639100D01*
X113473693Y-49639100D01*
X113347561Y-49664189D01*
X113347555Y-49664191D01*
X113228737Y-49713407D01*
X113121797Y-49784861D01*
X113121796Y-49784862D01*
X112547878Y-50358781D01*
X112486555Y-50392266D01*
X112460197Y-50395100D01*
X109790919Y-50395100D01*
X109757663Y-50385334D01*
X109724143Y-50375584D01*
X109724001Y-50375450D01*
X109723880Y-50375415D01*
X109697411Y-50352539D01*
X109693816Y-50348411D01*
X109657553Y-50298499D01*
X109601708Y-50242654D01*
X109598908Y-50239439D01*
X109586024Y-50211415D01*
X109571250Y-50184358D01*
X109571564Y-50179962D01*
X109569723Y-50175957D01*
X109574034Y-50145424D01*
X109576234Y-50114666D01*
X109578981Y-50110391D01*
X109579492Y-50106774D01*
X109586620Y-50098505D01*
X109604735Y-50070319D01*
X109657553Y-50017501D01*
X109690600Y-49972014D01*
X109745930Y-49929349D01*
X109790919Y-49920900D01*
X111832307Y-49920900D01*
X111917165Y-49904019D01*
X111958444Y-49895809D01*
X112077264Y-49846592D01*
X112077889Y-49846174D01*
X112079139Y-49845340D01*
X112169651Y-49784862D01*
X112184200Y-49775141D01*
X114026121Y-47933218D01*
X114087444Y-47899734D01*
X114113802Y-47896900D01*
X115427972Y-47896900D01*
X115495011Y-47916585D01*
X115535359Y-47958900D01*
X115590120Y-48053749D01*
X115590132Y-48053767D01*
X115656993Y-48140900D01*
X115670459Y-48158449D01*
X115763551Y-48251541D01*
X115763555Y-48251544D01*
X115868232Y-48331867D01*
X115868236Y-48331869D01*
X115868243Y-48331875D01*
X115868250Y-48331879D01*
X115982248Y-48397696D01*
X115982249Y-48397697D01*
X115982252Y-48397698D01*
X115982257Y-48397701D01*
X116104171Y-48448200D01*
X116231338Y-48482275D01*
X116362174Y-48499500D01*
X116362181Y-48499500D01*
X116928000Y-48499500D01*
X116999940Y-48494355D01*
X117137992Y-48453819D01*
X117259032Y-48376031D01*
X117353254Y-48267294D01*
X117394542Y-48176884D01*
X117413023Y-48136419D01*
X117413024Y-48136414D01*
X117419554Y-48090997D01*
X117433500Y-47994000D01*
X117433500Y-46494000D01*
X117428355Y-46422060D01*
X117427741Y-46419970D01*
X117410489Y-46361216D01*
X117387819Y-46284008D01*
X117374771Y-46263705D01*
X117310032Y-46162969D01*
X117310028Y-46162965D01*
X117201299Y-46068750D01*
X117201297Y-46068748D01*
X117201294Y-46068746D01*
X117201290Y-46068744D01*
X117070419Y-46008976D01*
X117070414Y-46008975D01*
X116928000Y-45988500D01*
X116362174Y-45988500D01*
X116362166Y-45988500D01*
X116231341Y-46005724D01*
X116104170Y-46039800D01*
X115982249Y-46090302D01*
X115982248Y-46090303D01*
X115868250Y-46156120D01*
X115868232Y-46156132D01*
X115763555Y-46236455D01*
X115763545Y-46236464D01*
X115670464Y-46329545D01*
X115670455Y-46329555D01*
X115590132Y-46434232D01*
X115590120Y-46434250D01*
X115535359Y-46529100D01*
X115484792Y-46577316D01*
X115427972Y-46591100D01*
X113727693Y-46591100D01*
X113609514Y-46614608D01*
X113609509Y-46614609D01*
X113601559Y-46616190D01*
X113601557Y-46616190D01*
X113482737Y-46665407D01*
X113375797Y-46736861D01*
X113375796Y-46736862D01*
X111533878Y-48578781D01*
X111472555Y-48612266D01*
X111446197Y-48615100D01*
X109790919Y-48615100D01*
X109757663Y-48605334D01*
X109724143Y-48595584D01*
X109724001Y-48595450D01*
X109723880Y-48595415D01*
X109697411Y-48572539D01*
X109693816Y-48568411D01*
X109657553Y-48518499D01*
X109601708Y-48462654D01*
X109598908Y-48459439D01*
X109586024Y-48431415D01*
X109571250Y-48404358D01*
X109571564Y-48399962D01*
X109569723Y-48395957D01*
X109574034Y-48365424D01*
X109576234Y-48334666D01*
X109578981Y-48330391D01*
X109579492Y-48326774D01*
X109586620Y-48318505D01*
X109604735Y-48290319D01*
X109627764Y-48267290D01*
X109657553Y-48237501D01*
X109763996Y-48090994D01*
X109846211Y-47929639D01*
X109902171Y-47757409D01*
X109916765Y-47665259D01*
X109930500Y-47578551D01*
X109930500Y-47397448D01*
X109914019Y-47293397D01*
X109902171Y-47218591D01*
X109846211Y-47046361D01*
X109846211Y-47046360D01*
X109817740Y-46990484D01*
X109763996Y-46885006D01*
X109750396Y-46866287D01*
X109657558Y-46738505D01*
X109657554Y-46738500D01*
X109604735Y-46685681D01*
X109571250Y-46624358D01*
X109576234Y-46554666D01*
X109604735Y-46510319D01*
X109629587Y-46485467D01*
X109657553Y-46457501D01*
X109763996Y-46310994D01*
X109846211Y-46149639D01*
X109902171Y-45977409D01*
X109920210Y-45863515D01*
X109930500Y-45798551D01*
X109930500Y-45617448D01*
X109907414Y-45471696D01*
X109902171Y-45438591D01*
X109870557Y-45341290D01*
X109846212Y-45266363D01*
X109846211Y-45266360D01*
X109775588Y-45127757D01*
X109763996Y-45105006D01*
X109737108Y-45067997D01*
X109657558Y-44958505D01*
X109657554Y-44958500D01*
X109604735Y-44905681D01*
X109602469Y-44901532D01*
X109598498Y-44898966D01*
X109585881Y-44871152D01*
X109571250Y-44844358D01*
X109571587Y-44839642D01*
X109569634Y-44835337D01*
X109574055Y-44805124D01*
X109576234Y-44774666D01*
X109579257Y-44769585D01*
X109579752Y-44766204D01*
X109590194Y-44751205D01*
X109598908Y-44736561D01*
X109601708Y-44733345D01*
X109657553Y-44677501D01*
X109693816Y-44627588D01*
X109697411Y-44623461D01*
X109722420Y-44607477D01*
X109745930Y-44589349D01*
X109752807Y-44588057D01*
X109756285Y-44585835D01*
X109764530Y-44585855D01*
X109790919Y-44580900D01*
X115336787Y-44580900D01*
X115403826Y-44600585D01*
X115449581Y-44653389D01*
X115459726Y-44688714D01*
X115465203Y-44730320D01*
X115469725Y-44764662D01*
X115503800Y-44891829D01*
X115554302Y-45013750D01*
X115554303Y-45013751D01*
X115620120Y-45127749D01*
X115620132Y-45127767D01*
X115697523Y-45228623D01*
X115700459Y-45232449D01*
X115793551Y-45325541D01*
X115793555Y-45325544D01*
X115898232Y-45405867D01*
X115898236Y-45405869D01*
X115898243Y-45405875D01*
X115898250Y-45405879D01*
X116012248Y-45471696D01*
X116012249Y-45471697D01*
X116012252Y-45471698D01*
X116012257Y-45471701D01*
X116134171Y-45522200D01*
X116261338Y-45556275D01*
X116392174Y-45573500D01*
X116392181Y-45573500D01*
X116958000Y-45573500D01*
X117029940Y-45568355D01*
X117167992Y-45527819D01*
X117289032Y-45450031D01*
X117383254Y-45341294D01*
X117443024Y-45210416D01*
X117463500Y-45068000D01*
X117463500Y-43568000D01*
X117458355Y-43496060D01*
X117417819Y-43358008D01*
X117380662Y-43300191D01*
X117340032Y-43236969D01*
X117340028Y-43236965D01*
X117231299Y-43142750D01*
X117231297Y-43142748D01*
X117231294Y-43142746D01*
X117231290Y-43142744D01*
X117100419Y-43082976D01*
X117100414Y-43082975D01*
X116958000Y-43062500D01*
X116392174Y-43062500D01*
X116392166Y-43062500D01*
X116261341Y-43079724D01*
X116134170Y-43113800D01*
X116012249Y-43164302D01*
X116012248Y-43164303D01*
X115898250Y-43230120D01*
X115898243Y-43230125D01*
X115873024Y-43249475D01*
X115807858Y-43274670D01*
X115797539Y-43275100D01*
X109790919Y-43275100D01*
X109757663Y-43265334D01*
X109724143Y-43255584D01*
X109724001Y-43255450D01*
X109723880Y-43255415D01*
X109697411Y-43232539D01*
X109693816Y-43228411D01*
X109657553Y-43178499D01*
X109601708Y-43122654D01*
X109598908Y-43119439D01*
X109586024Y-43091415D01*
X109571250Y-43064358D01*
X109571564Y-43059962D01*
X109569723Y-43055957D01*
X109574034Y-43025424D01*
X109576234Y-42994666D01*
X109578981Y-42990391D01*
X109579492Y-42986774D01*
X109586620Y-42978505D01*
X109604735Y-42950319D01*
X109657553Y-42897501D01*
X109690600Y-42852014D01*
X109745930Y-42809349D01*
X109790919Y-42800900D01*
X115776307Y-42800900D01*
X115861165Y-42784019D01*
X115902444Y-42775809D01*
X116021264Y-42726592D01*
X116031119Y-42720007D01*
X116046344Y-42709835D01*
X116133265Y-42651757D01*
X116134491Y-42653593D01*
X116189640Y-42630140D01*
X116236146Y-42633524D01*
X116261338Y-42640275D01*
X116392174Y-42657500D01*
X116392181Y-42657500D01*
X116958000Y-42657500D01*
X117029940Y-42652355D01*
X117167992Y-42611819D01*
X117289032Y-42534031D01*
X117383254Y-42425294D01*
X117443024Y-42294416D01*
X117463500Y-42152000D01*
X117463500Y-40652000D01*
X117458355Y-40580060D01*
X117417819Y-40442008D01*
X117387261Y-40394459D01*
X117340032Y-40320969D01*
X117340028Y-40320965D01*
X117231299Y-40226750D01*
X117231297Y-40226748D01*
X117231294Y-40226746D01*
X117231290Y-40226744D01*
X117100419Y-40166976D01*
X117100414Y-40166975D01*
X116958000Y-40146500D01*
X116392174Y-40146500D01*
X116392166Y-40146500D01*
X116261341Y-40163724D01*
X116134170Y-40197800D01*
X116012249Y-40248302D01*
X116012248Y-40248303D01*
X115898250Y-40314120D01*
X115898232Y-40314132D01*
X115793555Y-40394455D01*
X115793545Y-40394464D01*
X115700464Y-40487545D01*
X115700455Y-40487555D01*
X115620132Y-40592232D01*
X115620120Y-40592250D01*
X115554303Y-40706248D01*
X115554302Y-40706249D01*
X115503800Y-40828170D01*
X115469724Y-40955341D01*
X115452500Y-41086166D01*
X115452500Y-41371100D01*
X115432815Y-41438139D01*
X115380011Y-41483894D01*
X115328500Y-41495100D01*
X109790919Y-41495100D01*
X109723880Y-41475415D01*
X109690600Y-41443985D01*
X109680755Y-41430434D01*
X109657553Y-41398499D01*
X109529501Y-41270447D01*
X109529499Y-41270445D01*
X109529494Y-41270441D01*
X109382997Y-41164006D01*
X109382996Y-41164005D01*
X109382994Y-41164004D01*
X109304881Y-41124203D01*
X109221639Y-41081788D01*
X109221636Y-41081787D01*
X109049410Y-41025829D01*
X108870551Y-40997500D01*
X108870546Y-40997500D01*
X107789454Y-40997500D01*
X107789449Y-40997500D01*
X107610589Y-41025829D01*
X107438363Y-41081787D01*
X107438360Y-41081788D01*
X107277002Y-41164006D01*
X107130505Y-41270441D01*
X107130500Y-41270445D01*
X107002445Y-41398500D01*
X107002441Y-41398505D01*
X106896006Y-41545002D01*
X106813788Y-41706360D01*
X106813787Y-41706363D01*
X106757829Y-41878589D01*
X106729500Y-42057448D01*
X106729500Y-42238551D01*
X106757829Y-42417410D01*
X106813787Y-42589636D01*
X106813788Y-42589639D01*
X106848366Y-42657500D01*
X106883570Y-42726592D01*
X106896006Y-42750997D01*
X107002441Y-42897494D01*
X107002445Y-42897499D01*
X107055265Y-42950320D01*
X107088749Y-43011643D01*
X107083764Y-43081335D01*
X107055265Y-43125680D01*
X107002445Y-43178500D01*
X107002441Y-43178505D01*
X106896006Y-43325002D01*
X106813788Y-43486360D01*
X106813787Y-43486363D01*
X106757829Y-43658589D01*
X106729500Y-43837448D01*
X106729500Y-44018551D01*
X106757829Y-44197410D01*
X106813787Y-44369636D01*
X106813788Y-44369639D01*
X106866102Y-44472308D01*
X106893367Y-44525819D01*
X106896006Y-44530997D01*
X107002441Y-44677494D01*
X107002445Y-44677499D01*
X107055265Y-44730320D01*
X107088749Y-44791643D01*
X107083764Y-44861335D01*
X107055265Y-44905680D01*
X107002445Y-44958500D01*
X107002441Y-44958505D01*
X106896006Y-45105002D01*
X106813788Y-45266360D01*
X106813787Y-45266363D01*
X106757829Y-45438589D01*
X106729500Y-45617448D01*
X106729500Y-45798551D01*
X106757829Y-45977410D01*
X106813787Y-46149636D01*
X106813788Y-46149639D01*
X106854450Y-46229440D01*
X106882252Y-46284005D01*
X106896006Y-46310997D01*
X107002441Y-46457494D01*
X107002445Y-46457499D01*
X107055265Y-46510320D01*
X107088749Y-46571643D01*
X107083764Y-46641335D01*
X107055265Y-46685680D01*
X107002445Y-46738500D01*
X107002441Y-46738505D01*
X106896006Y-46885002D01*
X106813788Y-47046360D01*
X106813787Y-47046363D01*
X106757829Y-47218589D01*
X106729500Y-47397448D01*
X106729500Y-47578551D01*
X106757829Y-47757410D01*
X106813787Y-47929636D01*
X106813788Y-47929639D01*
X106896006Y-48090997D01*
X107002441Y-48237494D01*
X107002445Y-48237499D01*
X107055265Y-48290320D01*
X107088749Y-48351643D01*
X107083764Y-48421335D01*
X107055265Y-48465680D01*
X107002445Y-48518500D01*
X107002441Y-48518505D01*
X106896006Y-48665002D01*
X106813788Y-48826360D01*
X106813787Y-48826363D01*
X106757829Y-48998589D01*
X106729500Y-49177448D01*
X106729500Y-49358551D01*
X106757829Y-49537410D01*
X106813787Y-49709636D01*
X106813788Y-49709639D01*
X106852117Y-49784862D01*
X106883570Y-49846592D01*
X106896006Y-49870997D01*
X107002441Y-50017494D01*
X107002445Y-50017499D01*
X107055265Y-50070320D01*
X107088749Y-50131643D01*
X107083764Y-50201335D01*
X107055265Y-50245680D01*
X107002445Y-50298500D01*
X107002441Y-50298505D01*
X106896006Y-50445002D01*
X106813788Y-50606360D01*
X106813787Y-50606363D01*
X106757829Y-50778589D01*
X106729500Y-50957448D01*
X106729500Y-51138551D01*
X106757829Y-51317410D01*
X106813787Y-51489636D01*
X106813788Y-51489639D01*
X106868166Y-51596359D01*
X106886671Y-51632678D01*
X106896006Y-51650997D01*
X107002441Y-51797494D01*
X107002445Y-51797499D01*
X107055265Y-51850320D01*
X107088749Y-51911643D01*
X107083764Y-51981335D01*
X107055265Y-52025680D01*
X107002445Y-52078500D01*
X107002441Y-52078505D01*
X106896006Y-52225002D01*
X106813788Y-52386360D01*
X106813787Y-52386363D01*
X106757829Y-52558589D01*
X106729500Y-52737448D01*
X106729500Y-52918551D01*
X106757829Y-53097410D01*
X106813787Y-53269636D01*
X106813788Y-53269639D01*
X106896006Y-53430997D01*
X107002441Y-53577494D01*
X107002445Y-53577499D01*
X107055265Y-53630320D01*
X107088749Y-53691643D01*
X107083764Y-53761335D01*
X107055265Y-53805680D01*
X107002445Y-53858500D01*
X107002441Y-53858505D01*
X106896006Y-54005002D01*
X106813788Y-54166360D01*
X106813787Y-54166363D01*
X106757829Y-54338589D01*
X106729500Y-54517448D01*
X106729500Y-54698551D01*
X106757829Y-54877410D01*
X106813787Y-55049636D01*
X106813788Y-55049639D01*
X106869664Y-55159300D01*
X106874371Y-55168538D01*
X106896006Y-55210997D01*
X107002441Y-55357494D01*
X107002445Y-55357499D01*
X107055265Y-55410320D01*
X107088749Y-55471643D01*
X107083764Y-55541335D01*
X107055265Y-55585680D01*
X107002445Y-55638500D01*
X107002441Y-55638505D01*
X106896006Y-55785002D01*
X106813788Y-55946360D01*
X106813787Y-55946363D01*
X106757829Y-56118589D01*
X106729500Y-56297448D01*
X106729500Y-56478551D01*
X106757829Y-56657410D01*
X106813787Y-56829636D01*
X106813788Y-56829639D01*
X106896006Y-56990997D01*
X107002441Y-57137494D01*
X107002445Y-57137499D01*
X107055265Y-57190320D01*
X107088749Y-57251643D01*
X107083764Y-57321335D01*
X107055265Y-57365680D01*
X107002445Y-57418500D01*
X107002441Y-57418505D01*
X106896006Y-57565002D01*
X106813788Y-57726360D01*
X106813787Y-57726363D01*
X106757829Y-57898589D01*
X106729500Y-58077448D01*
X106729500Y-58258551D01*
X106757829Y-58437410D01*
X106813787Y-58609636D01*
X106813788Y-58609639D01*
X106848605Y-58677969D01*
X106895100Y-58769220D01*
X106896006Y-58770997D01*
X107002441Y-58917494D01*
X107002445Y-58917499D01*
X107055265Y-58970320D01*
X107088749Y-59031643D01*
X107083764Y-59101335D01*
X107055265Y-59145680D01*
X107002445Y-59198500D01*
X107002441Y-59198505D01*
X106896006Y-59345002D01*
X106813788Y-59506360D01*
X106813787Y-59506363D01*
X106757829Y-59678589D01*
X106729500Y-59857448D01*
X106729500Y-60038551D01*
X106757829Y-60217410D01*
X106813787Y-60389636D01*
X106813788Y-60389639D01*
X106847163Y-60455139D01*
X106883569Y-60526590D01*
X106896006Y-60550997D01*
X107002441Y-60697494D01*
X107002445Y-60697499D01*
X107055265Y-60750320D01*
X107088749Y-60811643D01*
X107083764Y-60881335D01*
X107055265Y-60925680D01*
X107002445Y-60978500D01*
X107002441Y-60978505D01*
X106896006Y-61125002D01*
X106813788Y-61286360D01*
X106813787Y-61286363D01*
X106757829Y-61458589D01*
X106729500Y-61637448D01*
X106729500Y-61818551D01*
X106757829Y-61997410D01*
X106813787Y-62169636D01*
X106813788Y-62169639D01*
X106896006Y-62330997D01*
X107002441Y-62477494D01*
X107002445Y-62477499D01*
X107055265Y-62530320D01*
X107088749Y-62591643D01*
X107083764Y-62661335D01*
X107055265Y-62705680D01*
X107002445Y-62758500D01*
X107002441Y-62758505D01*
X106896006Y-62905002D01*
X106813788Y-63066360D01*
X106813787Y-63066363D01*
X106757829Y-63238589D01*
X106729500Y-63417448D01*
X106729500Y-63598551D01*
X106757829Y-63777410D01*
X106813787Y-63949636D01*
X106813788Y-63949639D01*
X106896006Y-64110997D01*
X107002441Y-64257494D01*
X107002445Y-64257499D01*
X107055265Y-64310320D01*
X107088749Y-64371643D01*
X107083764Y-64441335D01*
X107055265Y-64485680D01*
X107002445Y-64538500D01*
X107002441Y-64538505D01*
X106896006Y-64685002D01*
X106813788Y-64846360D01*
X106813787Y-64846363D01*
X106757829Y-65018589D01*
X106729500Y-65197448D01*
X106729500Y-65378551D01*
X106757829Y-65557410D01*
X106813787Y-65729636D01*
X106813788Y-65729639D01*
X106896006Y-65890997D01*
X107002441Y-66037494D01*
X107002445Y-66037499D01*
X107055265Y-66090320D01*
X107088749Y-66151643D01*
X107083764Y-66221335D01*
X107055265Y-66265680D01*
X107002445Y-66318500D01*
X107002441Y-66318505D01*
X106896006Y-66465002D01*
X106813788Y-66626360D01*
X106813787Y-66626363D01*
X106757829Y-66798589D01*
X106729500Y-66977448D01*
X106729500Y-67158551D01*
X106757829Y-67337410D01*
X106813787Y-67509636D01*
X106813788Y-67509639D01*
X106869664Y-67619300D01*
X106893638Y-67666351D01*
X106896006Y-67670997D01*
X107002441Y-67817494D01*
X107002445Y-67817499D01*
X107055265Y-67870320D01*
X107088749Y-67931643D01*
X107083764Y-68001335D01*
X107055265Y-68045680D01*
X107002445Y-68098500D01*
X107002441Y-68098505D01*
X106896006Y-68245002D01*
X106813788Y-68406360D01*
X106813787Y-68406363D01*
X106757829Y-68578589D01*
X106729500Y-68757448D01*
X106729500Y-68938551D01*
X106757829Y-69117410D01*
X106813787Y-69289636D01*
X106813788Y-69289639D01*
X106842104Y-69345210D01*
X106891823Y-69442789D01*
X106896006Y-69450997D01*
X107002441Y-69597494D01*
X107002445Y-69597499D01*
X107055265Y-69650320D01*
X107088749Y-69711643D01*
X107083764Y-69781335D01*
X107055265Y-69825680D01*
X107002445Y-69878500D01*
X107002441Y-69878505D01*
X106896006Y-70025002D01*
X106813788Y-70186360D01*
X106813787Y-70186363D01*
X106757829Y-70358589D01*
X106729500Y-70537448D01*
X106729500Y-70718551D01*
X106757829Y-70897410D01*
X106813787Y-71069636D01*
X106813788Y-71069639D01*
X106869664Y-71179300D01*
X106888510Y-71216287D01*
X106896006Y-71230997D01*
X107002441Y-71377494D01*
X107002445Y-71377499D01*
X107055265Y-71430320D01*
X107088749Y-71491643D01*
X107083764Y-71561335D01*
X107055265Y-71605680D01*
X107002445Y-71658500D01*
X107002441Y-71658505D01*
X106896006Y-71805002D01*
X106813788Y-71966360D01*
X106813787Y-71966363D01*
X106757829Y-72138589D01*
X106729500Y-72317448D01*
X106729500Y-72498551D01*
X106757829Y-72677410D01*
X106813787Y-72849636D01*
X106813788Y-72849639D01*
X106896006Y-73010997D01*
X107002441Y-73157494D01*
X107002445Y-73157499D01*
X107055265Y-73210320D01*
X107088749Y-73271643D01*
X107083764Y-73341335D01*
X107055265Y-73385680D01*
X107002445Y-73438500D01*
X107002441Y-73438505D01*
X106896006Y-73585002D01*
X106813788Y-73746360D01*
X106813787Y-73746363D01*
X106757829Y-73918589D01*
X106729500Y-74097448D01*
X106729500Y-74278551D01*
X106757829Y-74457410D01*
X106813787Y-74629636D01*
X106813788Y-74629639D01*
X106896006Y-74790997D01*
X107002441Y-74937494D01*
X107002445Y-74937499D01*
X107055265Y-74990320D01*
X107088749Y-75051643D01*
X107083764Y-75121335D01*
X107055265Y-75165680D01*
X107002445Y-75218500D01*
X107002441Y-75218505D01*
X106896006Y-75365002D01*
X106813788Y-75526360D01*
X106813787Y-75526363D01*
X106757829Y-75698589D01*
X106729500Y-75877448D01*
X106729500Y-76058551D01*
X106757829Y-76237410D01*
X106813787Y-76409636D01*
X106813788Y-76409639D01*
X106896006Y-76570997D01*
X107002441Y-76717494D01*
X107002445Y-76717499D01*
X107055265Y-76770320D01*
X107088749Y-76831643D01*
X107083764Y-76901335D01*
X107055265Y-76945680D01*
X107002445Y-76998500D01*
X107002441Y-76998505D01*
X106896006Y-77145002D01*
X106813788Y-77306360D01*
X106813787Y-77306363D01*
X106757829Y-77478589D01*
X106729500Y-77657448D01*
X106729500Y-77838551D01*
X106757829Y-78017410D01*
X106813787Y-78189636D01*
X106813788Y-78189639D01*
X106896006Y-78350997D01*
X107002441Y-78497494D01*
X107002445Y-78497499D01*
X107055265Y-78550320D01*
X107088749Y-78611643D01*
X107083764Y-78681335D01*
X107055265Y-78725680D01*
X107002445Y-78778500D01*
X107002441Y-78778505D01*
X106896006Y-78925002D01*
X106813788Y-79086360D01*
X106813787Y-79086363D01*
X106757829Y-79258589D01*
X106729500Y-79437448D01*
X106729500Y-79618551D01*
X106757829Y-79797410D01*
X106813787Y-79969636D01*
X106813788Y-79969639D01*
X106896006Y-80130997D01*
X107002441Y-80277494D01*
X107002445Y-80277499D01*
X107055265Y-80330320D01*
X107088749Y-80391643D01*
X107083764Y-80461335D01*
X107055265Y-80505680D01*
X107002445Y-80558500D01*
X107002441Y-80558505D01*
X106896006Y-80705002D01*
X106813788Y-80866360D01*
X106813787Y-80866363D01*
X106757829Y-81038589D01*
X106729500Y-81217448D01*
X106729500Y-81398551D01*
X106757829Y-81577410D01*
X106813787Y-81749636D01*
X106813788Y-81749639D01*
X106847163Y-81815139D01*
X106883570Y-81886592D01*
X106896006Y-81910997D01*
X107002441Y-82057494D01*
X107002445Y-82057499D01*
X107055265Y-82110320D01*
X107088749Y-82171643D01*
X107083764Y-82241335D01*
X107055265Y-82285680D01*
X107002445Y-82338500D01*
X107002441Y-82338505D01*
X106896006Y-82485002D01*
X106813788Y-82646360D01*
X106813787Y-82646363D01*
X106757829Y-82818589D01*
X106729500Y-82997448D01*
X106729500Y-83178551D01*
X106757829Y-83357410D01*
X106813787Y-83529636D01*
X106813788Y-83529639D01*
X106896006Y-83690997D01*
X107002441Y-83837494D01*
X107002445Y-83837499D01*
X107055265Y-83890320D01*
X107088749Y-83951643D01*
X107083764Y-84021335D01*
X107055265Y-84065680D01*
X107002445Y-84118500D01*
X107002441Y-84118505D01*
X106896006Y-84265002D01*
X106813788Y-84426360D01*
X106813787Y-84426363D01*
X106757829Y-84598589D01*
X106729500Y-84777448D01*
X106729500Y-84958551D01*
X106757829Y-85137410D01*
X106813787Y-85309636D01*
X106813788Y-85309639D01*
X106896006Y-85470997D01*
X107002441Y-85617494D01*
X107002445Y-85617499D01*
X107055265Y-85670320D01*
X107088749Y-85731643D01*
X107083764Y-85801335D01*
X107055265Y-85845680D01*
X107002445Y-85898500D01*
X107002441Y-85898505D01*
X106896006Y-86045002D01*
X106813788Y-86206360D01*
X106813787Y-86206363D01*
X106757829Y-86378589D01*
X106729500Y-86557448D01*
X106729500Y-86738551D01*
X106757829Y-86917410D01*
X106813787Y-87089636D01*
X106813788Y-87089639D01*
X106847162Y-87155137D01*
X106883570Y-87226592D01*
X106896006Y-87250997D01*
X107002441Y-87397494D01*
X107002445Y-87397499D01*
X107055265Y-87450320D01*
X107088749Y-87511643D01*
X107083764Y-87581335D01*
X107055265Y-87625680D01*
X107002445Y-87678500D01*
X107002441Y-87678505D01*
X106896006Y-87825002D01*
X106813788Y-87986360D01*
X106813787Y-87986363D01*
X106757829Y-88158589D01*
X106729500Y-88337448D01*
X106729500Y-88518551D01*
X106757829Y-88697410D01*
X106813787Y-88869636D01*
X106813788Y-88869639D01*
X106896006Y-89030997D01*
X107002441Y-89177494D01*
X107002445Y-89177499D01*
X107130500Y-89305554D01*
X107130505Y-89305558D01*
X107277001Y-89411993D01*
X107277003Y-89411994D01*
X107277006Y-89411996D01*
X107302228Y-89424847D01*
X107353024Y-89472821D01*
X107369819Y-89540642D01*
X107347282Y-89606777D01*
X107333615Y-89623013D01*
X107258598Y-89698030D01*
X107171052Y-89829051D01*
X107171047Y-89829060D01*
X107110743Y-89974648D01*
X107110741Y-89974656D01*
X107080000Y-90129202D01*
X107080000Y-90286797D01*
X107110741Y-90441343D01*
X107110743Y-90441351D01*
X107171047Y-90586939D01*
X107171052Y-90586948D01*
X107258598Y-90717969D01*
X107258601Y-90717973D01*
X107370024Y-90829396D01*
X107370032Y-90829403D01*
X107403434Y-90851721D01*
X107403435Y-90851721D01*
X107861980Y-90393175D01*
X107864075Y-90400993D01*
X107929901Y-90515007D01*
X108022993Y-90608099D01*
X108137007Y-90673925D01*
X108144822Y-90676019D01*
X107812841Y-91007999D01*
X107830465Y-91050548D01*
X107837934Y-91120017D01*
X107830465Y-91145452D01*
X107812841Y-91188000D01*
X108144822Y-91519980D01*
X108137007Y-91522075D01*
X108022993Y-91587901D01*
X107929901Y-91680993D01*
X107864075Y-91795007D01*
X107861980Y-91802821D01*
X107403435Y-91344276D01*
X107370033Y-91366596D01*
X107370031Y-91366598D01*
X107258597Y-91478031D01*
X107171052Y-91609051D01*
X107171047Y-91609060D01*
X107110743Y-91754648D01*
X107110741Y-91754656D01*
X107080000Y-91909202D01*
X107080000Y-92066797D01*
X107110741Y-92221343D01*
X107110743Y-92221351D01*
X107171047Y-92366939D01*
X107171052Y-92366948D01*
X107258598Y-92497969D01*
X107258601Y-92497973D01*
X107333614Y-92572986D01*
X107367099Y-92634309D01*
X107362115Y-92704001D01*
X107320243Y-92759934D01*
X107302230Y-92771150D01*
X107277008Y-92784001D01*
X107277006Y-92784003D01*
X107130505Y-92890441D01*
X107130500Y-92890445D01*
X107002445Y-93018500D01*
X107002441Y-93018505D01*
X106896006Y-93165002D01*
X106813788Y-93326360D01*
X106813787Y-93326363D01*
X106757829Y-93498589D01*
X106729500Y-93677448D01*
X106729500Y-93858551D01*
X106757829Y-94037410D01*
X106813787Y-94209636D01*
X106813788Y-94209639D01*
X106896006Y-94370997D01*
X107002441Y-94517494D01*
X107002445Y-94517499D01*
X107055265Y-94570320D01*
X107088749Y-94631643D01*
X107083764Y-94701335D01*
X107055265Y-94745680D01*
X107002445Y-94798500D01*
X107002441Y-94798505D01*
X106896006Y-94945002D01*
X106813788Y-95106360D01*
X106813787Y-95106363D01*
X106757829Y-95278589D01*
X106729500Y-95457448D01*
X106729500Y-95638551D01*
X106757829Y-95817410D01*
X106813787Y-95989636D01*
X106813788Y-95989639D01*
X106869664Y-96099300D01*
X106894234Y-96147521D01*
X106896006Y-96150997D01*
X107002441Y-96297494D01*
X107002445Y-96297499D01*
X107111159Y-96406213D01*
X107144644Y-96467536D01*
X107139660Y-96537228D01*
X107126581Y-96562784D01*
X107088702Y-96619474D01*
X107088701Y-96619477D01*
X107080000Y-96663220D01*
X107080000Y-97992771D01*
X107088703Y-98036526D01*
X107088704Y-98036529D01*
X107121856Y-98086143D01*
X107171473Y-98119296D01*
X107171477Y-98119298D01*
X107215221Y-98127999D01*
X107269998Y-98127998D01*
X107276709Y-98111797D01*
X107281342Y-98104863D01*
X107282439Y-98099821D01*
X107303590Y-98071567D01*
X107363934Y-98011223D01*
X107861980Y-97513177D01*
X107864075Y-97520993D01*
X107929901Y-97635007D01*
X108022993Y-97728099D01*
X108137007Y-97793925D01*
X108144821Y-97796019D01*
X107812841Y-98127998D01*
X107812842Y-98127999D01*
X108847157Y-98127999D01*
X108847157Y-98127998D01*
X108515178Y-97796019D01*
X108522993Y-97793925D01*
X108637007Y-97728099D01*
X108730099Y-97635007D01*
X108795925Y-97520993D01*
X108798019Y-97513177D01*
X109356408Y-98071566D01*
X109383289Y-98111797D01*
X109390000Y-98127999D01*
X109444772Y-98127999D01*
X109488526Y-98119296D01*
X109488529Y-98119295D01*
X109538143Y-98086143D01*
X109571296Y-98036526D01*
X109571298Y-98036522D01*
X109579999Y-97992779D01*
X109579999Y-96663228D01*
X109571296Y-96619473D01*
X109571295Y-96619470D01*
X109533419Y-96562785D01*
X109524735Y-96535052D01*
X109513362Y-96508308D01*
X109514420Y-96502109D01*
X109512541Y-96496108D01*
X109520229Y-96468079D01*
X109525120Y-96439435D01*
X109529939Y-96432685D01*
X109531025Y-96428727D01*
X109544976Y-96410255D01*
X109546848Y-96408205D01*
X109657553Y-96297501D01*
X109694682Y-96246395D01*
X109699374Y-96241261D01*
X109723544Y-96226610D01*
X109745930Y-96209349D01*
X109754759Y-96207690D01*
X109759125Y-96205045D01*
X109767652Y-96205269D01*
X109790919Y-96200900D01*
X113260197Y-96200900D01*
X113327236Y-96220585D01*
X113347878Y-96237219D01*
X114391798Y-97281139D01*
X114477507Y-97338408D01*
X114477508Y-97338408D01*
X114484616Y-97343157D01*
X114498735Y-97352592D01*
X114547952Y-97372977D01*
X114617556Y-97401809D01*
X114617560Y-97401809D01*
X114617561Y-97401810D01*
X114743692Y-97426900D01*
X114743695Y-97426900D01*
X115427972Y-97426900D01*
X115495011Y-97446585D01*
X115535359Y-97488900D01*
X115590120Y-97583749D01*
X115590132Y-97583767D01*
X115670455Y-97688444D01*
X115670459Y-97688449D01*
X115763551Y-97781541D01*
X115772892Y-97788709D01*
X115868232Y-97861867D01*
X115868236Y-97861869D01*
X115868243Y-97861875D01*
X115868250Y-97861879D01*
X115982248Y-97927696D01*
X115982249Y-97927697D01*
X115982252Y-97927698D01*
X115982257Y-97927701D01*
X116104171Y-97978200D01*
X116231338Y-98012275D01*
X116362174Y-98029500D01*
X116362181Y-98029500D01*
X116928000Y-98029500D01*
X116999940Y-98024355D01*
X117137992Y-97983819D01*
X117259032Y-97906031D01*
X117353254Y-97797294D01*
X117406835Y-97679969D01*
X117413023Y-97666419D01*
X117413024Y-97666414D01*
X117414190Y-97658303D01*
X117433500Y-97524000D01*
X117433500Y-96024000D01*
X117431042Y-95989636D01*
X117428355Y-95952059D01*
X117403148Y-95866214D01*
X117387819Y-95814008D01*
X117357261Y-95766459D01*
X117310032Y-95692969D01*
X117310028Y-95692965D01*
X117201299Y-95598750D01*
X117201297Y-95598748D01*
X117201294Y-95598746D01*
X117201290Y-95598744D01*
X117070419Y-95538976D01*
X117070414Y-95538975D01*
X116928000Y-95518500D01*
X116362174Y-95518500D01*
X116362166Y-95518500D01*
X116231341Y-95535724D01*
X116104170Y-95569800D01*
X115982249Y-95620302D01*
X115982248Y-95620303D01*
X115868250Y-95686120D01*
X115868232Y-95686132D01*
X115763555Y-95766455D01*
X115763545Y-95766464D01*
X115670464Y-95859545D01*
X115670455Y-95859555D01*
X115590132Y-95964232D01*
X115590120Y-95964250D01*
X115535359Y-96059100D01*
X115484792Y-96107316D01*
X115427972Y-96121100D01*
X115129802Y-96121100D01*
X115062763Y-96101415D01*
X115042121Y-96084781D01*
X113998205Y-95040863D01*
X113998204Y-95040862D01*
X113978543Y-95027725D01*
X113891264Y-94969408D01*
X113871023Y-94961024D01*
X113772444Y-94920191D01*
X113763943Y-94918500D01*
X113646307Y-94895100D01*
X113646305Y-94895100D01*
X109790919Y-94895100D01*
X109757663Y-94885334D01*
X109724143Y-94875584D01*
X109724001Y-94875450D01*
X109723880Y-94875415D01*
X109697411Y-94852539D01*
X109693816Y-94848411D01*
X109657553Y-94798499D01*
X109601708Y-94742654D01*
X109598908Y-94739439D01*
X109586024Y-94711415D01*
X109571250Y-94684358D01*
X109571564Y-94679962D01*
X109569723Y-94675957D01*
X109574034Y-94645424D01*
X109576234Y-94614666D01*
X109578981Y-94610391D01*
X109579492Y-94606774D01*
X109586620Y-94598505D01*
X109604735Y-94570319D01*
X109627114Y-94547940D01*
X109657553Y-94517501D01*
X109721114Y-94430015D01*
X109776444Y-94387349D01*
X109821433Y-94378900D01*
X115457972Y-94378900D01*
X115525011Y-94398585D01*
X115565359Y-94440900D01*
X115620120Y-94535749D01*
X115620132Y-94535767D01*
X115693702Y-94631643D01*
X115700459Y-94640449D01*
X115793551Y-94733541D01*
X115793555Y-94733544D01*
X115898232Y-94813867D01*
X115898236Y-94813869D01*
X115898243Y-94813875D01*
X115898250Y-94813879D01*
X116012248Y-94879696D01*
X116012249Y-94879697D01*
X116012252Y-94879698D01*
X116012257Y-94879701D01*
X116134171Y-94930200D01*
X116261338Y-94964275D01*
X116392174Y-94981500D01*
X116392181Y-94981500D01*
X116958000Y-94981500D01*
X117029940Y-94976355D01*
X117167992Y-94935819D01*
X117289032Y-94858031D01*
X117383254Y-94749294D01*
X117432964Y-94640444D01*
X117443023Y-94618419D01*
X117443024Y-94618414D01*
X117443563Y-94614666D01*
X117463500Y-94476000D01*
X117463500Y-92976000D01*
X117458355Y-92904060D01*
X117417819Y-92766008D01*
X117399494Y-92737494D01*
X117340032Y-92644969D01*
X117340028Y-92644965D01*
X117231299Y-92550750D01*
X117231297Y-92550748D01*
X117231294Y-92550746D01*
X117231290Y-92550744D01*
X117100419Y-92490976D01*
X117100414Y-92490975D01*
X116958000Y-92470500D01*
X116392174Y-92470500D01*
X116392166Y-92470500D01*
X116261341Y-92487724D01*
X116134170Y-92521800D01*
X116012249Y-92572302D01*
X116012248Y-92572303D01*
X115898250Y-92638120D01*
X115898232Y-92638132D01*
X115793555Y-92718455D01*
X115793545Y-92718464D01*
X115700464Y-92811545D01*
X115700455Y-92811555D01*
X115620132Y-92916232D01*
X115620120Y-92916250D01*
X115565359Y-93011100D01*
X115514792Y-93059316D01*
X115457972Y-93073100D01*
X109760404Y-93073100D01*
X109693365Y-93053415D01*
X109660089Y-93021990D01*
X109657553Y-93018499D01*
X109529501Y-92890447D01*
X109529499Y-92890445D01*
X109529494Y-92890441D01*
X109382995Y-92784004D01*
X109357770Y-92771151D01*
X109306975Y-92723176D01*
X109290180Y-92655355D01*
X109312718Y-92589220D01*
X109326385Y-92572985D01*
X109401402Y-92497968D01*
X109488947Y-92366948D01*
X109488952Y-92366939D01*
X109549256Y-92221351D01*
X109549258Y-92221343D01*
X109579999Y-92066797D01*
X109580000Y-92066794D01*
X109580000Y-91909206D01*
X109579999Y-91909202D01*
X109549258Y-91754656D01*
X109549256Y-91754648D01*
X109488952Y-91609060D01*
X109488947Y-91609051D01*
X109401402Y-91478031D01*
X109289967Y-91366597D01*
X109256564Y-91344277D01*
X109256563Y-91344277D01*
X108798018Y-91802821D01*
X108795925Y-91795007D01*
X108730099Y-91680993D01*
X108637007Y-91587901D01*
X108522993Y-91522075D01*
X108515177Y-91519980D01*
X108847158Y-91188000D01*
X108829534Y-91145453D01*
X108822065Y-91075984D01*
X108829534Y-91050547D01*
X108847158Y-91007999D01*
X108515177Y-90676019D01*
X108522993Y-90673925D01*
X108637007Y-90608099D01*
X108730099Y-90515007D01*
X108795925Y-90400993D01*
X108798019Y-90393177D01*
X109256563Y-90851721D01*
X109256565Y-90851722D01*
X109289965Y-90829404D01*
X109289973Y-90829398D01*
X109401398Y-90717973D01*
X109401401Y-90717969D01*
X109488947Y-90586948D01*
X109488952Y-90586939D01*
X109549256Y-90441351D01*
X109549258Y-90441343D01*
X109579999Y-90286797D01*
X109580000Y-90286794D01*
X109580000Y-90129206D01*
X109579999Y-90129202D01*
X109549258Y-89974656D01*
X109549256Y-89974648D01*
X109488952Y-89829060D01*
X109488947Y-89829051D01*
X109401401Y-89698030D01*
X109401398Y-89698026D01*
X109326385Y-89623013D01*
X109292900Y-89561690D01*
X109297884Y-89491998D01*
X109339756Y-89436065D01*
X109357765Y-89424850D01*
X109382994Y-89411996D01*
X109529501Y-89305553D01*
X109657553Y-89177501D01*
X109657561Y-89177488D01*
X109659544Y-89175169D01*
X109660526Y-89174527D01*
X109660998Y-89174056D01*
X109661097Y-89174155D01*
X109718051Y-89136976D01*
X109753835Y-89131700D01*
X115621089Y-89131700D01*
X115688128Y-89151385D01*
X115733883Y-89204189D01*
X115744379Y-89268950D01*
X115743500Y-89277122D01*
X115743500Y-91072870D01*
X115743501Y-91072876D01*
X115749908Y-91132483D01*
X115800202Y-91267328D01*
X115800206Y-91267335D01*
X115886452Y-91382544D01*
X115886455Y-91382547D01*
X116001664Y-91468793D01*
X116001671Y-91468797D01*
X116136517Y-91519091D01*
X116136516Y-91519091D01*
X116143444Y-91519835D01*
X116196127Y-91525500D01*
X117991872Y-91525499D01*
X118051483Y-91519091D01*
X118186331Y-91468796D01*
X118301546Y-91382546D01*
X118335583Y-91337077D01*
X118391512Y-91295210D01*
X118461204Y-91290225D01*
X118522525Y-91323707D01*
X118522528Y-91323710D01*
X119020981Y-91822163D01*
X119054466Y-91883486D01*
X119057300Y-91909844D01*
X119057300Y-99479156D01*
X119048655Y-99508596D01*
X119042132Y-99538583D01*
X119038377Y-99543598D01*
X119037615Y-99546195D01*
X119020981Y-99566837D01*
X118870837Y-99716981D01*
X118809514Y-99750466D01*
X118783156Y-99753300D01*
X91261442Y-99753300D01*
X91261422Y-99753299D01*
X91255308Y-99753299D01*
X91116691Y-99753299D01*
X91116689Y-99753299D01*
X90980743Y-99780341D01*
X90980735Y-99780343D01*
X90852676Y-99833386D01*
X90737416Y-99910400D01*
X90688408Y-99959408D01*
X90639400Y-100008417D01*
X90639397Y-100008420D01*
X87628837Y-103018981D01*
X87567514Y-103052466D01*
X87541156Y-103055300D01*
X63334844Y-103055300D01*
X63267805Y-103035615D01*
X63247163Y-103018981D01*
X55350019Y-95121837D01*
X55316534Y-95060514D01*
X55313700Y-95034156D01*
X55313700Y-71395402D01*
X55333385Y-71328363D01*
X55386189Y-71282608D01*
X55455347Y-71272664D01*
X55518903Y-71301689D01*
X55525381Y-71307721D01*
X57368795Y-73151136D01*
X57368798Y-73151139D01*
X57423218Y-73187501D01*
X57475729Y-73222588D01*
X57475735Y-73222591D01*
X57475736Y-73222592D01*
X57594556Y-73271809D01*
X57594560Y-73271809D01*
X57594561Y-73271810D01*
X57720692Y-73296900D01*
X57720695Y-73296900D01*
X69020197Y-73296900D01*
X69087236Y-73316585D01*
X69107878Y-73333219D01*
X82929798Y-87155139D01*
X82929801Y-87155141D01*
X83036736Y-87226592D01*
X83155556Y-87275809D01*
X83155560Y-87275809D01*
X83155561Y-87275810D01*
X83281692Y-87300900D01*
X83281695Y-87300900D01*
X86169081Y-87300900D01*
X86202336Y-87310665D01*
X86235857Y-87320416D01*
X86235998Y-87320549D01*
X86236120Y-87320585D01*
X86262589Y-87343461D01*
X86266184Y-87347588D01*
X86302447Y-87397501D01*
X86358283Y-87453337D01*
X86361091Y-87456561D01*
X86373973Y-87484583D01*
X86388749Y-87511643D01*
X86388434Y-87516038D01*
X86390276Y-87520044D01*
X86385963Y-87550584D01*
X86383764Y-87581335D01*
X86381018Y-87585607D01*
X86380507Y-87589227D01*
X86373376Y-87597497D01*
X86355265Y-87625680D01*
X86302447Y-87678498D01*
X86269400Y-87723985D01*
X86214070Y-87766651D01*
X86169081Y-87775100D01*
X82145916Y-87775100D01*
X82078877Y-87755415D01*
X82054452Y-87734379D01*
X82054411Y-87734421D01*
X82053859Y-87733869D01*
X82052692Y-87732864D01*
X82051545Y-87731556D01*
X82051541Y-87731551D01*
X81958449Y-87638459D01*
X81941797Y-87625681D01*
X81853767Y-87558132D01*
X81853749Y-87558120D01*
X81739751Y-87492303D01*
X81739750Y-87492302D01*
X81738948Y-87491970D01*
X81617829Y-87441800D01*
X81490662Y-87407725D01*
X81490661Y-87407724D01*
X81490658Y-87407724D01*
X81359833Y-87390500D01*
X81359826Y-87390500D01*
X80794000Y-87390500D01*
X80793997Y-87390500D01*
X80722059Y-87395644D01*
X80584005Y-87436182D01*
X80462969Y-87513967D01*
X80462965Y-87513971D01*
X80368750Y-87622700D01*
X80368744Y-87622709D01*
X80308976Y-87753580D01*
X80308975Y-87753585D01*
X80288500Y-87895999D01*
X80288500Y-89396002D01*
X80293644Y-89467940D01*
X80317790Y-89550171D01*
X80333891Y-89605006D01*
X80334182Y-89605994D01*
X80411967Y-89727030D01*
X80411968Y-89727031D01*
X80411969Y-89727032D01*
X80520706Y-89821254D01*
X80520708Y-89821254D01*
X80525134Y-89825090D01*
X80562908Y-89883869D01*
X80562908Y-89953738D01*
X80525133Y-90012516D01*
X80510972Y-90023118D01*
X80462967Y-90053969D01*
X80462965Y-90053971D01*
X80368750Y-90162700D01*
X80368744Y-90162709D01*
X80308976Y-90293580D01*
X80308975Y-90293585D01*
X80288500Y-90435999D01*
X80288500Y-91936002D01*
X80293644Y-92007940D01*
X80334182Y-92145994D01*
X80411967Y-92267030D01*
X80411968Y-92267031D01*
X80411969Y-92267032D01*
X80520706Y-92361254D01*
X80520708Y-92361254D01*
X80525134Y-92365090D01*
X80562908Y-92423869D01*
X80562908Y-92493738D01*
X80525133Y-92552516D01*
X80510972Y-92563118D01*
X80462967Y-92593969D01*
X80462965Y-92593971D01*
X80368750Y-92702700D01*
X80368744Y-92702709D01*
X80308976Y-92833580D01*
X80308975Y-92833585D01*
X80288500Y-92975999D01*
X80288500Y-94476002D01*
X80293644Y-94547940D01*
X80320807Y-94640444D01*
X80333701Y-94684358D01*
X80334182Y-94685994D01*
X80411967Y-94807030D01*
X80411968Y-94807031D01*
X80411969Y-94807032D01*
X80520706Y-94901254D01*
X80520708Y-94901254D01*
X80525134Y-94905090D01*
X80562908Y-94963869D01*
X80562908Y-95033738D01*
X80525133Y-95092516D01*
X80510972Y-95103118D01*
X80462967Y-95133969D01*
X80462965Y-95133971D01*
X80368750Y-95242700D01*
X80368744Y-95242709D01*
X80308976Y-95373580D01*
X80308975Y-95373585D01*
X80288500Y-95515999D01*
X80288500Y-97016002D01*
X80293644Y-97087940D01*
X80334182Y-97225994D01*
X80411967Y-97347030D01*
X80411971Y-97347034D01*
X80527408Y-97447062D01*
X80525362Y-97449422D01*
X80560997Y-97490545D01*
X80570941Y-97559703D01*
X80541917Y-97623260D01*
X80515243Y-97646373D01*
X80462970Y-97679967D01*
X80462965Y-97679971D01*
X80368750Y-97788700D01*
X80368744Y-97788709D01*
X80308976Y-97919580D01*
X80308975Y-97919585D01*
X80288500Y-98061999D01*
X80288500Y-99562002D01*
X80293644Y-99633940D01*
X80318028Y-99716981D01*
X80328692Y-99753300D01*
X80334182Y-99771994D01*
X80411967Y-99893030D01*
X80411968Y-99893031D01*
X80411969Y-99893032D01*
X80520706Y-99987254D01*
X80520707Y-99987254D01*
X80521158Y-99987645D01*
X80558932Y-100046424D01*
X80558932Y-100116293D01*
X80521157Y-100175071D01*
X80506996Y-100185672D01*
X80462972Y-100213965D01*
X80462965Y-100213971D01*
X80368750Y-100322700D01*
X80368744Y-100322709D01*
X80308976Y-100453580D01*
X80308975Y-100453585D01*
X80288500Y-100595999D01*
X80288500Y-102096002D01*
X80293644Y-102167940D01*
X80334182Y-102305994D01*
X80411967Y-102427030D01*
X80411971Y-102427034D01*
X80520700Y-102521249D01*
X80520706Y-102521254D01*
X80561174Y-102539735D01*
X80651580Y-102581023D01*
X80651583Y-102581023D01*
X80651584Y-102581024D01*
X80794000Y-102601500D01*
X80794003Y-102601500D01*
X81359819Y-102601500D01*
X81359826Y-102601500D01*
X81490662Y-102584275D01*
X81617829Y-102550200D01*
X81739743Y-102499701D01*
X81853757Y-102433875D01*
X81958449Y-102353541D01*
X82051541Y-102260449D01*
X82131875Y-102155757D01*
X82186641Y-102060900D01*
X82237208Y-102012684D01*
X82294028Y-101998900D01*
X84138307Y-101998900D01*
X84223165Y-101982019D01*
X84264444Y-101973809D01*
X84383264Y-101924592D01*
X84390392Y-101919829D01*
X84490200Y-101853141D01*
X85343141Y-101000199D01*
X85414592Y-100893264D01*
X85463809Y-100774443D01*
X85464261Y-100772171D01*
X85480554Y-100690266D01*
X85488900Y-100648307D01*
X85488900Y-98238802D01*
X85497544Y-98209361D01*
X85504068Y-98179375D01*
X85507822Y-98174359D01*
X85508585Y-98171763D01*
X85525219Y-98151121D01*
X85659121Y-98017219D01*
X85720444Y-97983734D01*
X85746802Y-97980900D01*
X86169081Y-97980900D01*
X86236120Y-98000585D01*
X86269399Y-98032014D01*
X86291184Y-98061999D01*
X86302447Y-98077501D01*
X86430500Y-98205554D01*
X86430505Y-98205558D01*
X86558287Y-98298396D01*
X86577006Y-98311996D01*
X86682484Y-98365740D01*
X86738360Y-98394211D01*
X86738363Y-98394212D01*
X86824476Y-98422191D01*
X86910591Y-98450171D01*
X86993429Y-98463291D01*
X87089449Y-98478500D01*
X87089454Y-98478500D01*
X88170551Y-98478500D01*
X88257259Y-98464765D01*
X88349409Y-98450171D01*
X88521639Y-98394211D01*
X88682994Y-98311996D01*
X88829501Y-98205553D01*
X88957553Y-98077501D01*
X89063996Y-97930994D01*
X89146211Y-97769639D01*
X89202171Y-97597409D01*
X89222319Y-97470200D01*
X89230500Y-97418551D01*
X89230500Y-97237448D01*
X89204891Y-97075767D01*
X89202171Y-97058591D01*
X89146211Y-96886361D01*
X89146211Y-96886360D01*
X89112836Y-96820859D01*
X89063996Y-96725006D01*
X89044738Y-96698500D01*
X88957558Y-96578505D01*
X88957554Y-96578500D01*
X88904735Y-96525681D01*
X88871250Y-96464358D01*
X88876234Y-96394666D01*
X88904735Y-96350319D01*
X88926362Y-96328692D01*
X88957553Y-96297501D01*
X89063996Y-96150994D01*
X89146211Y-95989639D01*
X89202171Y-95817409D01*
X89219131Y-95710327D01*
X89230500Y-95638551D01*
X89230500Y-95457448D01*
X89206779Y-95307686D01*
X89202171Y-95278591D01*
X89155181Y-95133969D01*
X89146212Y-95106363D01*
X89146211Y-95106360D01*
X89109207Y-95033738D01*
X89063996Y-94945006D01*
X89044738Y-94918500D01*
X88957558Y-94798505D01*
X88957554Y-94798500D01*
X88904735Y-94745681D01*
X88871250Y-94684358D01*
X88876234Y-94614666D01*
X88904735Y-94570319D01*
X88927114Y-94547940D01*
X88957553Y-94517501D01*
X89063996Y-94370994D01*
X89146211Y-94209639D01*
X89202171Y-94037409D01*
X89216765Y-93945259D01*
X89230500Y-93858551D01*
X89230500Y-93677448D01*
X89214019Y-93573397D01*
X89202171Y-93498591D01*
X89146211Y-93326361D01*
X89146211Y-93326360D01*
X89117740Y-93270484D01*
X89063996Y-93165006D01*
X89032149Y-93121172D01*
X88957558Y-93018505D01*
X88957554Y-93018500D01*
X88904735Y-92965681D01*
X88871250Y-92904358D01*
X88876234Y-92834666D01*
X88904735Y-92790319D01*
X88929049Y-92766005D01*
X88957553Y-92737501D01*
X89063996Y-92590994D01*
X89146211Y-92429639D01*
X89202171Y-92257409D01*
X89216765Y-92165259D01*
X89230500Y-92078551D01*
X89230500Y-91897448D01*
X89209457Y-91764592D01*
X89202171Y-91718591D01*
X89146211Y-91546361D01*
X89146211Y-91546360D01*
X89087527Y-91431188D01*
X89063996Y-91385006D01*
X89029177Y-91337081D01*
X88957558Y-91238505D01*
X88957554Y-91238500D01*
X88904735Y-91185681D01*
X88871250Y-91124358D01*
X88876234Y-91054666D01*
X88904735Y-91010319D01*
X88907055Y-91007999D01*
X88957553Y-90957501D01*
X89063996Y-90810994D01*
X89146211Y-90649639D01*
X89202171Y-90477409D01*
X89218196Y-90376232D01*
X89230500Y-90298551D01*
X89230500Y-90117448D01*
X89209794Y-89986722D01*
X89202171Y-89938591D01*
X89174191Y-89852476D01*
X89146212Y-89766363D01*
X89146211Y-89766360D01*
X89111392Y-89698026D01*
X89063996Y-89605006D01*
X89031620Y-89560444D01*
X88957558Y-89458505D01*
X88957554Y-89458500D01*
X88904735Y-89405681D01*
X88871250Y-89344358D01*
X88876234Y-89274666D01*
X88904735Y-89230319D01*
X88930865Y-89204189D01*
X88957553Y-89177501D01*
X89063996Y-89030994D01*
X89146211Y-88869639D01*
X89202171Y-88697409D01*
X89216765Y-88605259D01*
X89230500Y-88518551D01*
X89230500Y-88337448D01*
X89214019Y-88233397D01*
X89202171Y-88158591D01*
X89146211Y-87986361D01*
X89146211Y-87986360D01*
X89100169Y-87895999D01*
X89063996Y-87825006D01*
X89050396Y-87806287D01*
X88957558Y-87678505D01*
X88957554Y-87678500D01*
X88904735Y-87625681D01*
X88871250Y-87564358D01*
X88876234Y-87494666D01*
X88904735Y-87450319D01*
X88918873Y-87436181D01*
X88957553Y-87397501D01*
X89063996Y-87250994D01*
X89146211Y-87089639D01*
X89202171Y-86917409D01*
X89216765Y-86825259D01*
X89230500Y-86738551D01*
X89230500Y-86557448D01*
X89214019Y-86453397D01*
X89202171Y-86378591D01*
X89174191Y-86292476D01*
X89146212Y-86206363D01*
X89146211Y-86206360D01*
X89117740Y-86150484D01*
X89063996Y-86045006D01*
X89050396Y-86026287D01*
X88957558Y-85898505D01*
X88957554Y-85898500D01*
X88904735Y-85845681D01*
X88871250Y-85784358D01*
X88876234Y-85714666D01*
X88904735Y-85670319D01*
X88923631Y-85651423D01*
X88957553Y-85617501D01*
X89063996Y-85470994D01*
X89146211Y-85309639D01*
X89202171Y-85137409D01*
X89216765Y-85045259D01*
X89230500Y-84958551D01*
X89230500Y-84777448D01*
X89214019Y-84673397D01*
X89202171Y-84598591D01*
X89146211Y-84426361D01*
X89146211Y-84426360D01*
X89117740Y-84370484D01*
X89063996Y-84265006D01*
X89050396Y-84246287D01*
X88957558Y-84118505D01*
X88957554Y-84118500D01*
X88904735Y-84065681D01*
X88871250Y-84004358D01*
X88876234Y-83934666D01*
X88904735Y-83890319D01*
X88957553Y-83837501D01*
X89063996Y-83690994D01*
X89146211Y-83529639D01*
X89202171Y-83357409D01*
X89218857Y-83252059D01*
X89230500Y-83178551D01*
X89230500Y-82997448D01*
X89214019Y-82893397D01*
X89202171Y-82818591D01*
X89146211Y-82646361D01*
X89146211Y-82646360D01*
X89117740Y-82590484D01*
X89063996Y-82485006D01*
X89050396Y-82466287D01*
X88957558Y-82338505D01*
X88957554Y-82338500D01*
X88904735Y-82285681D01*
X88871250Y-82224358D01*
X88876234Y-82154666D01*
X88904735Y-82110319D01*
X88957553Y-82057501D01*
X89063996Y-81910994D01*
X89146211Y-81749639D01*
X89202171Y-81577409D01*
X89216765Y-81485259D01*
X89230500Y-81398551D01*
X89230500Y-81217448D01*
X89214019Y-81113397D01*
X89202171Y-81038591D01*
X89146211Y-80866361D01*
X89146211Y-80866360D01*
X89117740Y-80810484D01*
X89063996Y-80705006D01*
X89050396Y-80686287D01*
X88957558Y-80558505D01*
X88957554Y-80558500D01*
X88904735Y-80505681D01*
X88871250Y-80444358D01*
X88876234Y-80374666D01*
X88904735Y-80330319D01*
X88957553Y-80277501D01*
X89063996Y-80130994D01*
X89146211Y-79969639D01*
X89202171Y-79797409D01*
X89216765Y-79705259D01*
X89230500Y-79618551D01*
X89230500Y-79437448D01*
X89214019Y-79333397D01*
X89202171Y-79258591D01*
X89146211Y-79086361D01*
X89146211Y-79086360D01*
X89117740Y-79030484D01*
X89063996Y-78925006D01*
X89050396Y-78906287D01*
X88957558Y-78778505D01*
X88957554Y-78778500D01*
X88904735Y-78725681D01*
X88871250Y-78664358D01*
X88876234Y-78594666D01*
X88904735Y-78550319D01*
X88957553Y-78497501D01*
X89063996Y-78350994D01*
X89146211Y-78189639D01*
X89202171Y-78017409D01*
X89216765Y-77925259D01*
X89230500Y-77838551D01*
X89230500Y-77657448D01*
X89214019Y-77553397D01*
X89202171Y-77478591D01*
X89146211Y-77306361D01*
X89146211Y-77306360D01*
X89117740Y-77250484D01*
X89063996Y-77145006D01*
X89050396Y-77126287D01*
X88957558Y-76998505D01*
X88957554Y-76998500D01*
X88904735Y-76945681D01*
X88871250Y-76884358D01*
X88876234Y-76814666D01*
X88904735Y-76770319D01*
X88957553Y-76717501D01*
X89063996Y-76570994D01*
X89146211Y-76409639D01*
X89202171Y-76237409D01*
X89216765Y-76145259D01*
X89230500Y-76058551D01*
X89230500Y-75877448D01*
X89214019Y-75773397D01*
X89202171Y-75698591D01*
X89146211Y-75526361D01*
X89146211Y-75526360D01*
X89117740Y-75470484D01*
X89063996Y-75365006D01*
X89050396Y-75346287D01*
X88957558Y-75218505D01*
X88957554Y-75218500D01*
X88904735Y-75165681D01*
X88871250Y-75104358D01*
X88876234Y-75034666D01*
X88904735Y-74990319D01*
X88957553Y-74937501D01*
X89063996Y-74790994D01*
X89146211Y-74629639D01*
X89202171Y-74457409D01*
X89216765Y-74365259D01*
X89230500Y-74278551D01*
X89230500Y-74097448D01*
X89214019Y-73993397D01*
X89202171Y-73918591D01*
X89146211Y-73746361D01*
X89146211Y-73746360D01*
X89117740Y-73690484D01*
X89063996Y-73585006D01*
X89050396Y-73566287D01*
X88957558Y-73438505D01*
X88957554Y-73438500D01*
X88904735Y-73385681D01*
X88871250Y-73324358D01*
X88876234Y-73254666D01*
X88904735Y-73210319D01*
X88927554Y-73187500D01*
X88957553Y-73157501D01*
X89063996Y-73010994D01*
X89146211Y-72849639D01*
X89202171Y-72677409D01*
X89216765Y-72585259D01*
X89230500Y-72498551D01*
X89230500Y-72317448D01*
X89214019Y-72213397D01*
X89202171Y-72138591D01*
X89174191Y-72052476D01*
X89146212Y-71966363D01*
X89146211Y-71966360D01*
X89117740Y-71910484D01*
X89063996Y-71805006D01*
X89050396Y-71786287D01*
X88957558Y-71658505D01*
X88957554Y-71658500D01*
X88904735Y-71605681D01*
X88871250Y-71544358D01*
X88876234Y-71474666D01*
X88904735Y-71430319D01*
X88930554Y-71404500D01*
X88957553Y-71377501D01*
X89063996Y-71230994D01*
X89146211Y-71069639D01*
X89202171Y-70897409D01*
X89219878Y-70785610D01*
X89230500Y-70718551D01*
X89230500Y-70537448D01*
X89210081Y-70408534D01*
X89202171Y-70358591D01*
X89169616Y-70258394D01*
X89146212Y-70186363D01*
X89146211Y-70186360D01*
X89077413Y-70051339D01*
X89063996Y-70025006D01*
X89009215Y-69949606D01*
X88957558Y-69878505D01*
X88957554Y-69878500D01*
X88904735Y-69825681D01*
X88871250Y-69764358D01*
X88876234Y-69694666D01*
X88904735Y-69650319D01*
X88957553Y-69597501D01*
X89063996Y-69450994D01*
X89146211Y-69289639D01*
X89202171Y-69117409D01*
X89222079Y-68991715D01*
X89230500Y-68938551D01*
X89230500Y-68757448D01*
X89214019Y-68653397D01*
X89202171Y-68578591D01*
X89152189Y-68424759D01*
X89146212Y-68406363D01*
X89146211Y-68406360D01*
X89117740Y-68350484D01*
X89063996Y-68245006D01*
X89015021Y-68177597D01*
X88957558Y-68098505D01*
X88957554Y-68098500D01*
X88904735Y-68045681D01*
X88871250Y-67984358D01*
X88876234Y-67914666D01*
X88904735Y-67870319D01*
X88906520Y-67868534D01*
X88957553Y-67817501D01*
X89063996Y-67670994D01*
X89146211Y-67509639D01*
X89202171Y-67337409D01*
X89216765Y-67245259D01*
X89230500Y-67158551D01*
X89230500Y-66977448D01*
X89211895Y-66859985D01*
X89202171Y-66798591D01*
X89146211Y-66626361D01*
X89146211Y-66626360D01*
X89073322Y-66483310D01*
X89063996Y-66465006D01*
X88991662Y-66365446D01*
X88957558Y-66318505D01*
X88957554Y-66318500D01*
X88904735Y-66265681D01*
X88871250Y-66204358D01*
X88876234Y-66134666D01*
X88904735Y-66090319D01*
X88957553Y-66037501D01*
X89063996Y-65890994D01*
X89146211Y-65729639D01*
X89202171Y-65557409D01*
X89216765Y-65465259D01*
X89230500Y-65378551D01*
X89230500Y-65197448D01*
X89214019Y-65093397D01*
X89202171Y-65018591D01*
X89146211Y-64846361D01*
X89146211Y-64846360D01*
X89081554Y-64719466D01*
X89063996Y-64685006D01*
X89050396Y-64666287D01*
X88957558Y-64538505D01*
X88957554Y-64538500D01*
X88904735Y-64485681D01*
X88871250Y-64424358D01*
X88876234Y-64354666D01*
X88904735Y-64310319D01*
X88957553Y-64257501D01*
X89063996Y-64110994D01*
X89146211Y-63949639D01*
X89202171Y-63777409D01*
X89223378Y-63643515D01*
X89230500Y-63598551D01*
X89230500Y-63417448D01*
X89211713Y-63298835D01*
X89202171Y-63238591D01*
X89146211Y-63066361D01*
X89146211Y-63066360D01*
X89103848Y-62983219D01*
X89063996Y-62905006D01*
X89011520Y-62832778D01*
X88957558Y-62758505D01*
X88957554Y-62758500D01*
X88904735Y-62705681D01*
X88871250Y-62644358D01*
X88876234Y-62574666D01*
X88904735Y-62530319D01*
X88957553Y-62477501D01*
X89063996Y-62330994D01*
X89146211Y-62169639D01*
X89202171Y-61997409D01*
X89224538Y-61856189D01*
X89230500Y-61818551D01*
X89230500Y-61637448D01*
X89214019Y-61533397D01*
X89202171Y-61458591D01*
X89146211Y-61286361D01*
X89146211Y-61286360D01*
X89077490Y-61151490D01*
X89063996Y-61125006D01*
X89048382Y-61103515D01*
X88957558Y-60978505D01*
X88957554Y-60978500D01*
X88904735Y-60925681D01*
X88871250Y-60864358D01*
X88876234Y-60794666D01*
X88904735Y-60750319D01*
X88957553Y-60697501D01*
X89063996Y-60550994D01*
X89146211Y-60389639D01*
X89202171Y-60217409D01*
X89229264Y-60046352D01*
X89230500Y-60038551D01*
X89230500Y-59857448D01*
X89214019Y-59753397D01*
X89202171Y-59678591D01*
X89146211Y-59506361D01*
X89146211Y-59506360D01*
X89114832Y-59444776D01*
X89063996Y-59345006D01*
X89050396Y-59326287D01*
X88957558Y-59198505D01*
X88957554Y-59198500D01*
X88829499Y-59070445D01*
X88829494Y-59070441D01*
X88682995Y-58964004D01*
X88657770Y-58951151D01*
X88633258Y-58928000D01*
X89281000Y-58928000D01*
X89281000Y-57404000D01*
X88633816Y-57404000D01*
X88639756Y-57396065D01*
X88657765Y-57384850D01*
X88682994Y-57371996D01*
X88829501Y-57265553D01*
X88957553Y-57137501D01*
X89063996Y-56990994D01*
X89146211Y-56829639D01*
X89202171Y-56657409D01*
X89218109Y-56556781D01*
X89230500Y-56478551D01*
X89230500Y-56297448D01*
X89214019Y-56193397D01*
X89202171Y-56118591D01*
X89171279Y-56023515D01*
X89146212Y-55946363D01*
X89146211Y-55946360D01*
X89117740Y-55890484D01*
X89063996Y-55785006D01*
X89010383Y-55711213D01*
X88957558Y-55638505D01*
X88957554Y-55638500D01*
X88904735Y-55585681D01*
X88871250Y-55524358D01*
X88876234Y-55454666D01*
X88904735Y-55410319D01*
X88926431Y-55388623D01*
X88957553Y-55357501D01*
X89063996Y-55210994D01*
X89146211Y-55049639D01*
X89202171Y-54877409D01*
X89220506Y-54761648D01*
X89230500Y-54698551D01*
X89230500Y-54517448D01*
X89206319Y-54364781D01*
X89202171Y-54338591D01*
X89146211Y-54166361D01*
X89146211Y-54166360D01*
X89117740Y-54110484D01*
X89063996Y-54005006D01*
X89046727Y-53981237D01*
X88957558Y-53858505D01*
X88957554Y-53858500D01*
X88904735Y-53805681D01*
X88871250Y-53744358D01*
X88876234Y-53674666D01*
X88904735Y-53630319D01*
X88957553Y-53577501D01*
X89063996Y-53430994D01*
X89146211Y-53269639D01*
X89202171Y-53097409D01*
X89216765Y-53005259D01*
X89230500Y-52918551D01*
X89230500Y-52737448D01*
X89213249Y-52628534D01*
X89202171Y-52558591D01*
X89159205Y-52426352D01*
X89146212Y-52386363D01*
X89146211Y-52386360D01*
X89112836Y-52320859D01*
X89063996Y-52225006D01*
X89044738Y-52198500D01*
X88957558Y-52078505D01*
X88957554Y-52078500D01*
X88904735Y-52025681D01*
X88871250Y-51964358D01*
X88876234Y-51894666D01*
X88904735Y-51850319D01*
X88930278Y-51824776D01*
X88957553Y-51797501D01*
X89063996Y-51650994D01*
X89146211Y-51489639D01*
X89202171Y-51317409D01*
X89218912Y-51211713D01*
X89230500Y-51138551D01*
X89230500Y-50957448D01*
X89214019Y-50853397D01*
X89202171Y-50778591D01*
X89146211Y-50606361D01*
X89146211Y-50606360D01*
X89117740Y-50550484D01*
X89063996Y-50445006D01*
X89050396Y-50426287D01*
X88957558Y-50298505D01*
X88957554Y-50298500D01*
X88904735Y-50245681D01*
X88871250Y-50184358D01*
X88876234Y-50114666D01*
X88904735Y-50070319D01*
X88957553Y-50017501D01*
X89063996Y-49870994D01*
X89146211Y-49709639D01*
X89202171Y-49537409D01*
X89216765Y-49445259D01*
X89230500Y-49358551D01*
X89230500Y-49177448D01*
X89208175Y-49036500D01*
X89202171Y-48998591D01*
X89146211Y-48826361D01*
X89146211Y-48826360D01*
X89067413Y-48671713D01*
X89063996Y-48665006D01*
X89034556Y-48624485D01*
X88957558Y-48518505D01*
X88957554Y-48518500D01*
X88904735Y-48465681D01*
X88871250Y-48404358D01*
X88876234Y-48334666D01*
X88904735Y-48290319D01*
X88927764Y-48267290D01*
X88957553Y-48237501D01*
X89063996Y-48090994D01*
X89146211Y-47929639D01*
X89202171Y-47757409D01*
X89216765Y-47665259D01*
X89230500Y-47578551D01*
X89230500Y-47397448D01*
X89214019Y-47293397D01*
X89202171Y-47218591D01*
X89146211Y-47046361D01*
X89146211Y-47046360D01*
X89117740Y-46990484D01*
X89063996Y-46885006D01*
X89050396Y-46866287D01*
X88957558Y-46738505D01*
X88957554Y-46738500D01*
X88904735Y-46685681D01*
X88871250Y-46624358D01*
X88876234Y-46554666D01*
X88904735Y-46510319D01*
X88929587Y-46485467D01*
X88957553Y-46457501D01*
X89063996Y-46310994D01*
X89146211Y-46149639D01*
X89202171Y-45977409D01*
X89220210Y-45863515D01*
X89230500Y-45798551D01*
X89230500Y-45617448D01*
X89207414Y-45471696D01*
X89202171Y-45438591D01*
X89170557Y-45341290D01*
X89146212Y-45266363D01*
X89146211Y-45266360D01*
X89075588Y-45127757D01*
X89063996Y-45105006D01*
X89037108Y-45067997D01*
X88957558Y-44958505D01*
X88957554Y-44958500D01*
X88904735Y-44905681D01*
X88871250Y-44844358D01*
X88876234Y-44774666D01*
X88904735Y-44730319D01*
X88911951Y-44723103D01*
X88957553Y-44677501D01*
X89063996Y-44530994D01*
X89146211Y-44369639D01*
X89202171Y-44197409D01*
X89225344Y-44051100D01*
X89230500Y-44018551D01*
X89230500Y-43837448D01*
X89214019Y-43733397D01*
X89202171Y-43658591D01*
X89158757Y-43524975D01*
X89146212Y-43486363D01*
X89146211Y-43486360D01*
X89089251Y-43374572D01*
X89063996Y-43325006D01*
X89028598Y-43276284D01*
X88957558Y-43178505D01*
X88957554Y-43178500D01*
X88904735Y-43125681D01*
X88871250Y-43064358D01*
X88876234Y-42994666D01*
X88904735Y-42950319D01*
X88957553Y-42897501D01*
X89063996Y-42750994D01*
X89146211Y-42589639D01*
X89202171Y-42417409D01*
X89218469Y-42314508D01*
X89230500Y-42238551D01*
X89230500Y-42057448D01*
X89211022Y-41934477D01*
X89202171Y-41878591D01*
X89165892Y-41766935D01*
X89146212Y-41706363D01*
X89146211Y-41706360D01*
X89117740Y-41650484D01*
X89063996Y-41545006D01*
X89039132Y-41510784D01*
X88957558Y-41398505D01*
X88957554Y-41398500D01*
X88829499Y-41270445D01*
X88829494Y-41270441D01*
X88682997Y-41164006D01*
X88682996Y-41164005D01*
X88682994Y-41164004D01*
X88604881Y-41124203D01*
X88521639Y-41081788D01*
X88521633Y-41081786D01*
X88419383Y-41048564D01*
X88361707Y-41009127D01*
X88334508Y-40944769D01*
X88333700Y-40930633D01*
X88333700Y-39953443D01*
X88333701Y-39953422D01*
X88333701Y-39808689D01*
X88306658Y-39672743D01*
X88306657Y-39672739D01*
X88259833Y-39559695D01*
X88259832Y-39559692D01*
X88253613Y-39544677D01*
X88253611Y-39544674D01*
X88253611Y-39544673D01*
X88176600Y-39429417D01*
X88176598Y-39429414D01*
X88075487Y-39328303D01*
X88075456Y-39328274D01*
X86275940Y-37528758D01*
X86275920Y-37528736D01*
X86173585Y-37426401D01*
X86058323Y-37349386D01*
X85930264Y-37296343D01*
X85930256Y-37296341D01*
X85794310Y-37269299D01*
X85794308Y-37269299D01*
X85655692Y-37269299D01*
X85649578Y-37269299D01*
X85649558Y-37269300D01*
X80212443Y-37269300D01*
X80212423Y-37269299D01*
X80206309Y-37269299D01*
X80067692Y-37269299D01*
X80067690Y-37269299D01*
X79931743Y-37296341D01*
X79931735Y-37296343D01*
X79803676Y-37349387D01*
X79775390Y-37368287D01*
X79708712Y-37389164D01*
X79641332Y-37370679D01*
X79594643Y-37318700D01*
X79582500Y-37265184D01*
X79582500Y-37231713D01*
X79549246Y-37021760D01*
X79549246Y-37021757D01*
X79483557Y-36819588D01*
X79387051Y-36630184D01*
X79387049Y-36630181D01*
X79387048Y-36630179D01*
X79262109Y-36458213D01*
X79111790Y-36307894D01*
X79111785Y-36307890D01*
X79090352Y-36292318D01*
X79047686Y-36236988D01*
X79041707Y-36167375D01*
X79074312Y-36105580D01*
X79135151Y-36071223D01*
X79163237Y-36068000D01*
X121034000Y-36068000D01*
X121101039Y-36087685D01*
G37*
%TD.AperFunction*%
%TA.AperFunction,Conductor*%
G36*
X56591194Y-69294190D02*
G01*
X56591766Y-69293122D01*
X56597133Y-69295991D01*
X56631935Y-69310406D01*
X56715956Y-69345209D01*
X56715960Y-69345209D01*
X56715961Y-69345210D01*
X56842092Y-69370300D01*
X56842095Y-69370300D01*
X57008699Y-69370300D01*
X57075738Y-69389985D01*
X57121493Y-69442789D01*
X57131437Y-69511947D01*
X57111801Y-69563191D01*
X57051124Y-69653999D01*
X57051119Y-69654008D01*
X56979508Y-69826894D01*
X56979506Y-69826902D01*
X56964171Y-69904000D01*
X57946589Y-69904000D01*
X57920259Y-69949606D01*
X57893000Y-70051339D01*
X57893000Y-70156661D01*
X57920259Y-70258394D01*
X57946590Y-70304000D01*
X56964171Y-70304000D01*
X56979506Y-70381097D01*
X56979508Y-70381105D01*
X57051119Y-70553991D01*
X57051124Y-70554000D01*
X57155086Y-70709589D01*
X57155089Y-70709593D01*
X57287406Y-70841910D01*
X57287410Y-70841913D01*
X57442999Y-70945875D01*
X57443008Y-70945880D01*
X57615894Y-71017491D01*
X57615902Y-71017493D01*
X57799428Y-71053999D01*
X57799431Y-71054000D01*
X58093000Y-71054000D01*
X58093000Y-70450410D01*
X58138606Y-70476741D01*
X58240339Y-70504000D01*
X58345661Y-70504000D01*
X58447394Y-70476741D01*
X58493000Y-70450410D01*
X58493000Y-71054000D01*
X58786569Y-71054000D01*
X58786571Y-71053999D01*
X58970097Y-71017493D01*
X58970105Y-71017491D01*
X59142991Y-70945880D01*
X59143000Y-70945875D01*
X59298589Y-70841913D01*
X59298593Y-70841910D01*
X59430910Y-70709593D01*
X59430913Y-70709589D01*
X59534875Y-70554000D01*
X59534880Y-70553991D01*
X59606491Y-70381105D01*
X59606493Y-70381097D01*
X59621829Y-70304000D01*
X58639410Y-70304000D01*
X58665741Y-70258394D01*
X58693000Y-70156661D01*
X58693000Y-70051339D01*
X58665741Y-69949606D01*
X58639411Y-69904000D01*
X59621829Y-69904000D01*
X59606493Y-69826902D01*
X59606491Y-69826894D01*
X59534880Y-69654008D01*
X59534875Y-69653999D01*
X59474199Y-69563191D01*
X59453321Y-69496513D01*
X59471806Y-69429133D01*
X59523784Y-69382443D01*
X59577301Y-69370300D01*
X67125597Y-69370300D01*
X67192636Y-69389985D01*
X67213278Y-69406619D01*
X69605912Y-71799253D01*
X69639397Y-71860576D01*
X69634413Y-71930268D01*
X69592541Y-71986201D01*
X69527077Y-72010618D01*
X69494040Y-72008551D01*
X69406308Y-71991100D01*
X69406305Y-71991100D01*
X58106802Y-71991100D01*
X58039763Y-71971415D01*
X58019121Y-71954781D01*
X56442219Y-70377878D01*
X56427515Y-70350950D01*
X56410923Y-70325132D01*
X56410031Y-70318931D01*
X56408734Y-70316555D01*
X56405900Y-70290197D01*
X56405900Y-69400199D01*
X56425585Y-69333160D01*
X56478389Y-69287405D01*
X56547547Y-69277461D01*
X56591194Y-69294190D01*
G37*
%TD.AperFunction*%
%TA.AperFunction,Conductor*%
G36*
X86202336Y-53490665D02*
G01*
X86235857Y-53500416D01*
X86236018Y-53500555D01*
X86236120Y-53500585D01*
X86236821Y-53501247D01*
X86262589Y-53523461D01*
X86266184Y-53527588D01*
X86302447Y-53577501D01*
X86358283Y-53633337D01*
X86361091Y-53636561D01*
X86373973Y-53664583D01*
X86388749Y-53691643D01*
X86388434Y-53696038D01*
X86390276Y-53700044D01*
X86385963Y-53730584D01*
X86383764Y-53761335D01*
X86381123Y-53764862D01*
X86380507Y-53769227D01*
X86355265Y-53805680D01*
X86302445Y-53858500D01*
X86302441Y-53858505D01*
X86196006Y-54005002D01*
X86113788Y-54166360D01*
X86113787Y-54166363D01*
X86057829Y-54338589D01*
X86029500Y-54517448D01*
X86029500Y-54698551D01*
X86057829Y-54877410D01*
X86113787Y-55049636D01*
X86113788Y-55049639D01*
X86169664Y-55159300D01*
X86174371Y-55168538D01*
X86196006Y-55210997D01*
X86302441Y-55357494D01*
X86302445Y-55357499D01*
X86355265Y-55410320D01*
X86388749Y-55471643D01*
X86383764Y-55541335D01*
X86355265Y-55585680D01*
X86302445Y-55638500D01*
X86302441Y-55638505D01*
X86196006Y-55785002D01*
X86113788Y-55946360D01*
X86113787Y-55946363D01*
X86057829Y-56118589D01*
X86029500Y-56297448D01*
X86029500Y-56478551D01*
X86057829Y-56657410D01*
X86113787Y-56829636D01*
X86113788Y-56829639D01*
X86196006Y-56990997D01*
X86302441Y-57137494D01*
X86302445Y-57137499D01*
X86430500Y-57265554D01*
X86430505Y-57265558D01*
X86577001Y-57371993D01*
X86577003Y-57371994D01*
X86577006Y-57371996D01*
X86602228Y-57384847D01*
X86622508Y-57404000D01*
X86267637Y-57404000D01*
X86258400Y-58928000D01*
X86629177Y-58928000D01*
X86620243Y-58939934D01*
X86602230Y-58951150D01*
X86577008Y-58964001D01*
X86577006Y-58964003D01*
X86430505Y-59070441D01*
X86430500Y-59070445D01*
X86302447Y-59198498D01*
X86269400Y-59243985D01*
X86214070Y-59286651D01*
X86169081Y-59295100D01*
X79015002Y-59295100D01*
X78947963Y-59275415D01*
X78927321Y-59258781D01*
X75295405Y-55626863D01*
X75295402Y-55626860D01*
X75283747Y-55619073D01*
X75238942Y-55565461D01*
X75230235Y-55496136D01*
X75260390Y-55433108D01*
X75283747Y-55412869D01*
X75346200Y-55371141D01*
X77200121Y-53517218D01*
X77261444Y-53483734D01*
X77287802Y-53480900D01*
X86169081Y-53480900D01*
X86202336Y-53490665D01*
G37*
%TD.AperFunction*%
%TA.AperFunction,Conductor*%
G36*
X85449195Y-38696385D02*
G01*
X85469837Y-38713019D01*
X86889981Y-40133163D01*
X86923466Y-40194486D01*
X86926300Y-40220844D01*
X86926300Y-40930633D01*
X86906615Y-40997672D01*
X86853811Y-41043427D01*
X86840617Y-41048564D01*
X86738366Y-41081786D01*
X86738360Y-41081788D01*
X86577002Y-41164006D01*
X86430505Y-41270441D01*
X86430500Y-41270445D01*
X86302445Y-41398500D01*
X86302441Y-41398505D01*
X86196006Y-41545002D01*
X86113788Y-41706360D01*
X86113787Y-41706363D01*
X86057829Y-41878589D01*
X86029500Y-42057448D01*
X86029500Y-42238551D01*
X86057829Y-42417410D01*
X86113787Y-42589636D01*
X86113788Y-42589639D01*
X86148366Y-42657500D01*
X86183570Y-42726592D01*
X86196006Y-42750997D01*
X86302441Y-42897494D01*
X86302445Y-42897499D01*
X86355265Y-42950320D01*
X86357530Y-42954468D01*
X86361500Y-42957034D01*
X86374116Y-42984844D01*
X86388749Y-43011643D01*
X86388411Y-43016356D01*
X86390365Y-43020662D01*
X86385942Y-43050881D01*
X86383764Y-43081335D01*
X86380742Y-43086413D01*
X86380247Y-43089796D01*
X86369803Y-43104797D01*
X86361091Y-43119439D01*
X86358283Y-43122662D01*
X86302447Y-43178499D01*
X86266184Y-43228411D01*
X86262589Y-43232539D01*
X86237577Y-43248524D01*
X86214070Y-43266651D01*
X86207193Y-43267942D01*
X86203716Y-43270165D01*
X86195469Y-43270144D01*
X86169081Y-43275100D01*
X85039693Y-43275100D01*
X84922057Y-43298500D01*
X84913556Y-43300191D01*
X84913555Y-43300191D01*
X84794736Y-43349407D01*
X84687798Y-43420860D01*
X84687795Y-43420863D01*
X83839878Y-44268781D01*
X83778555Y-44302266D01*
X83752197Y-44305100D01*
X78106984Y-44305100D01*
X78039945Y-44285415D01*
X78038093Y-44284202D01*
X77978450Y-44244350D01*
X77831898Y-44183647D01*
X77831889Y-44183644D01*
X77676319Y-44152700D01*
X77676315Y-44152700D01*
X77517685Y-44152700D01*
X77517680Y-44152700D01*
X77362110Y-44183644D01*
X77362101Y-44183647D01*
X77215553Y-44244348D01*
X77215540Y-44244355D01*
X77083651Y-44332481D01*
X77083647Y-44332484D01*
X76971484Y-44444647D01*
X76971479Y-44444653D01*
X76953001Y-44472308D01*
X76899389Y-44517112D01*
X76830064Y-44525819D01*
X76767036Y-44495664D01*
X76730318Y-44436220D01*
X76725900Y-44403416D01*
X76725900Y-43599286D01*
X76745585Y-43532247D01*
X76798389Y-43486492D01*
X76867547Y-43476548D01*
X76931103Y-43505573D01*
X76949164Y-43524972D01*
X77024454Y-43625546D01*
X77068594Y-43658589D01*
X77139664Y-43711793D01*
X77139671Y-43711797D01*
X77274517Y-43762091D01*
X77274516Y-43762091D01*
X77281444Y-43762835D01*
X77334127Y-43768500D01*
X79129872Y-43768499D01*
X79189483Y-43762091D01*
X79324331Y-43711796D01*
X79439546Y-43625546D01*
X79525796Y-43510331D01*
X79576091Y-43375483D01*
X79582500Y-43315873D01*
X79582499Y-43221236D01*
X79589888Y-43196071D01*
X79593536Y-43170096D01*
X79599575Y-43163079D01*
X79602183Y-43154199D01*
X79622005Y-43137021D01*
X79639118Y-43117142D01*
X79650078Y-43112695D01*
X79654986Y-43108443D01*
X79671174Y-43102375D01*
X79676664Y-43100743D01*
X79707262Y-43094657D01*
X79835327Y-43041611D01*
X79844009Y-43035809D01*
X79852864Y-43029894D01*
X79917568Y-42986659D01*
X79950583Y-42964600D01*
X80048600Y-42866583D01*
X80048601Y-42866580D01*
X80055667Y-42859515D01*
X80055670Y-42859511D01*
X80585579Y-42329602D01*
X80585583Y-42329600D01*
X80683600Y-42231583D01*
X80696134Y-42212823D01*
X80703447Y-42205128D01*
X80724854Y-42192719D01*
X80743842Y-42176849D01*
X80754554Y-42175503D01*
X80763895Y-42170089D01*
X80788614Y-42171223D01*
X80813166Y-42168139D01*
X80822904Y-42172797D01*
X80833691Y-42173293D01*
X80853874Y-42187613D01*
X80876195Y-42198291D01*
X80881868Y-42207475D01*
X80890675Y-42213723D01*
X80899912Y-42236681D01*
X80912917Y-42257732D01*
X80913359Y-42270104D01*
X80916755Y-42278543D01*
X80914150Y-42292183D01*
X80914729Y-42308360D01*
X80915597Y-42308446D01*
X80915000Y-42314508D01*
X80915000Y-42511495D01*
X80953427Y-42704681D01*
X80953430Y-42704693D01*
X81028808Y-42886674D01*
X81080748Y-42964407D01*
X81080749Y-42964408D01*
X81446980Y-42598176D01*
X81449075Y-42605993D01*
X81514901Y-42720007D01*
X81607993Y-42813099D01*
X81722007Y-42878925D01*
X81729822Y-42881019D01*
X81363591Y-43247250D01*
X81363591Y-43247252D01*
X81441320Y-43299188D01*
X81441323Y-43299190D01*
X81623306Y-43374569D01*
X81623318Y-43374572D01*
X81816504Y-43412999D01*
X81816508Y-43413000D01*
X82013492Y-43413000D01*
X82013495Y-43412999D01*
X82206681Y-43374572D01*
X82206693Y-43374569D01*
X82388673Y-43299191D01*
X82388675Y-43299190D01*
X82466408Y-43247251D01*
X82466408Y-43247250D01*
X82100177Y-42881019D01*
X82107993Y-42878925D01*
X82222007Y-42813099D01*
X82315099Y-42720007D01*
X82380925Y-42605993D01*
X82383019Y-42598177D01*
X82749250Y-42964408D01*
X82749251Y-42964408D01*
X82801190Y-42886675D01*
X82801191Y-42886673D01*
X82876569Y-42704693D01*
X82876572Y-42704681D01*
X82914999Y-42511495D01*
X82915000Y-42511492D01*
X82915000Y-42314508D01*
X82914999Y-42314504D01*
X82876572Y-42121318D01*
X82876569Y-42121306D01*
X82801190Y-41939323D01*
X82801188Y-41939320D01*
X82749252Y-41861591D01*
X82749250Y-41861591D01*
X82383019Y-42227822D01*
X82380925Y-42220007D01*
X82315099Y-42105993D01*
X82222007Y-42012901D01*
X82107993Y-41947075D01*
X82100176Y-41944980D01*
X82466408Y-41578749D01*
X82466407Y-41578748D01*
X82388676Y-41526810D01*
X82232355Y-41462060D01*
X82177952Y-41418219D01*
X82155887Y-41351925D01*
X82173166Y-41284226D01*
X82224303Y-41236615D01*
X82279806Y-41223499D01*
X82812872Y-41223499D01*
X82872483Y-41217091D01*
X83007331Y-41166796D01*
X83122546Y-41080546D01*
X83208796Y-40965331D01*
X83259091Y-40830483D01*
X83265500Y-40770873D01*
X83265499Y-38975128D01*
X83259091Y-38915517D01*
X83254278Y-38902612D01*
X83232430Y-38844032D01*
X83227446Y-38774341D01*
X83260932Y-38713018D01*
X83322255Y-38679534D01*
X83348612Y-38676700D01*
X85382156Y-38676700D01*
X85449195Y-38696385D01*
G37*
%TD.AperFunction*%
%TA.AperFunction,Conductor*%
G36*
X81017127Y-41223500D02*
G01*
X81550193Y-41223499D01*
X81617230Y-41243183D01*
X81662985Y-41295987D01*
X81672929Y-41365146D01*
X81643904Y-41428702D01*
X81597644Y-41462060D01*
X81441326Y-41526809D01*
X81441318Y-41526813D01*
X81363590Y-41578748D01*
X81729823Y-41944980D01*
X81722007Y-41947075D01*
X81607993Y-42012901D01*
X81514901Y-42105993D01*
X81449075Y-42220007D01*
X81446980Y-42227822D01*
X81080748Y-41861590D01*
X81080748Y-41861591D01*
X81067804Y-41880964D01*
X81041813Y-41902684D01*
X81016214Y-41924868D01*
X81015073Y-41925031D01*
X81014192Y-41925769D01*
X80980611Y-41929987D01*
X80947055Y-41934812D01*
X80946007Y-41934333D01*
X80944867Y-41934477D01*
X80914335Y-41919869D01*
X80883499Y-41905788D01*
X80882876Y-41904819D01*
X80881839Y-41904323D01*
X80864053Y-41875531D01*
X80845724Y-41847010D01*
X80845508Y-41845508D01*
X80845120Y-41844880D01*
X80840701Y-41812075D01*
X80840701Y-41766935D01*
X80840701Y-41713691D01*
X80840700Y-41713685D01*
X80840700Y-41342577D01*
X80860385Y-41275538D01*
X80913189Y-41229783D01*
X80977954Y-41219288D01*
X81017127Y-41223500D01*
G37*
%TD.AperFunction*%
%TD*%
%TA.AperFunction,Conductor*%
%TO.N,GND*%
G36*
X86689370Y-57429248D02*
G01*
X86738360Y-57454211D01*
X86738363Y-57454212D01*
X86824476Y-57482191D01*
X86910591Y-57510171D01*
X86993429Y-57523291D01*
X87089449Y-57538500D01*
X87089454Y-57538500D01*
X88170551Y-57538500D01*
X88257259Y-57524765D01*
X88349409Y-57510171D01*
X88521639Y-57454211D01*
X88620183Y-57404000D01*
X89281000Y-57404000D01*
X89281000Y-58928000D01*
X88612333Y-58928000D01*
X88521639Y-58881788D01*
X88521636Y-58881787D01*
X88349410Y-58825829D01*
X88170551Y-58797500D01*
X88170546Y-58797500D01*
X87089454Y-58797500D01*
X87089449Y-58797500D01*
X86910589Y-58825829D01*
X86738363Y-58881787D01*
X86738360Y-58881788D01*
X86647666Y-58928000D01*
X86258400Y-58928000D01*
X86267637Y-57404000D01*
X86639817Y-57404000D01*
X86689370Y-57429248D01*
G37*
%TD.AperFunction*%
%TD*%
M02*
