%TF.GenerationSoftware,KiCad,Pcbnew,9.0.7*%
%TF.CreationDate,2026-03-20T04:33:47+09:00*%
%TF.ProjectId,KiCad_HD63701Y0_27256_EPROM_Adapter,4b694361-645f-4484-9436-333730315930,rev?*%
%TF.SameCoordinates,Original*%
%TF.FileFunction,Soldermask,Top*%
%TF.FilePolarity,Negative*%
%FSLAX46Y46*%
G04 Gerber Fmt 4.6, Leading zero omitted, Abs format (unit mm)*
G04 Created by KiCad (PCBNEW 9.0.7) date 2026-03-20 04:33:47*
%MOMM*%
%LPD*%
G01*
G04 APERTURE LIST*
G04 Aperture macros list*
%AMRoundRect*
0 Rectangle with rounded corners*
0 $1 Rounding radius*
0 $2 $3 $4 $5 $6 $7 $8 $9 X,Y pos of 4 corners*
0 Add a 4 corners polygon primitive as box body*
4,1,4,$2,$3,$4,$5,$6,$7,$8,$9,$2,$3,0*
0 Add four circle primitives for the rounded corners*
1,1,$1+$1,$2,$3*
1,1,$1+$1,$4,$5*
1,1,$1+$1,$6,$7*
1,1,$1+$1,$8,$9*
0 Add four rect primitives between the rounded corners*
20,1,$1+$1,$2,$3,$4,$5,0*
20,1,$1+$1,$4,$5,$6,$7,0*
20,1,$1+$1,$6,$7,$8,$9,0*
20,1,$1+$1,$8,$9,$2,$3,0*%
%AMFreePoly0*
4,1,23,0.000000,0.745722,0.065263,0.745722,0.191342,0.711940,0.304381,0.646677,0.396677,0.554381,0.461940,0.441342,0.495722,0.315263,0.495722,0.250000,0.500000,0.250000,0.500000,-0.250000,0.495722,-0.250000,0.495722,-0.315263,0.461940,-0.441342,0.396677,-0.554381,0.304381,-0.646677,0.191342,-0.711940,0.065263,-0.745722,0.000000,-0.745722,0.000000,-0.750000,-0.500000,-0.750000,
-0.500000,0.750000,0.000000,0.750000,0.000000,0.745722,0.000000,0.745722,$1*%
%AMFreePoly1*
4,1,23,0.500000,-0.750000,0.000000,-0.750000,0.000000,-0.745722,-0.065263,-0.745722,-0.191342,-0.711940,-0.304381,-0.646677,-0.396677,-0.554381,-0.461940,-0.441342,-0.495722,-0.315263,-0.495722,-0.250000,-0.500000,-0.250000,-0.500000,0.250000,-0.495722,0.250000,-0.495722,0.315263,-0.461940,0.441342,-0.396677,0.554381,-0.304381,0.646677,-0.191342,0.711940,-0.065263,0.745722,0.000000,0.745722,
0.000000,0.750000,0.500000,0.750000,0.500000,-0.750000,0.500000,-0.750000,$1*%
G04 Aperture macros list end*
%ADD10C,1.700000*%
%ADD11R,1.700000X1.700000*%
%ADD12FreePoly0,180.000000*%
%ADD13FreePoly1,180.000000*%
%ADD14FreePoly1,0.000000*%
%ADD15FreePoly0,0.000000*%
%ADD16O,2.400000X1.600000*%
%ADD17RoundRect,0.250000X-0.950000X-0.550000X0.950000X-0.550000X0.950000X0.550000X-0.950000X0.550000X0*%
%ADD18O,2.200000X1.300000*%
%ADD19R,2.200000X1.300000*%
G04 APERTURE END LIST*
%TO.C,JP1*%
G36*
X117228000Y-97524000D02*
G01*
X116928000Y-97524000D01*
X116928000Y-96024000D01*
X117228000Y-96024000D01*
X117228000Y-97524000D01*
G37*
%TO.C,JP2*%
G36*
X117258000Y-94476000D02*
G01*
X116958000Y-94476000D01*
X116958000Y-92976000D01*
X117258000Y-92976000D01*
X117258000Y-94476000D01*
G37*
%TO.C,JP4*%
G36*
X117228000Y-51042000D02*
G01*
X116928000Y-51042000D01*
X116928000Y-49542000D01*
X117228000Y-49542000D01*
X117228000Y-51042000D01*
G37*
%TO.C,JP5*%
G36*
X117228000Y-47994000D02*
G01*
X116928000Y-47994000D01*
X116928000Y-46494000D01*
X117228000Y-46494000D01*
X117228000Y-47994000D01*
G37*
%TO.C,JP6*%
G36*
X117258000Y-45068000D02*
G01*
X116958000Y-45068000D01*
X116958000Y-43568000D01*
X117258000Y-43568000D01*
X117258000Y-45068000D01*
G37*
%TO.C,JP7*%
G36*
X117258000Y-42152000D02*
G01*
X116958000Y-42152000D01*
X116958000Y-40652000D01*
X117258000Y-40652000D01*
X117258000Y-42152000D01*
G37*
%TO.C,JP9*%
G36*
X80494000Y-98062000D02*
G01*
X80794000Y-98062000D01*
X80794000Y-99562000D01*
X80494000Y-99562000D01*
X80494000Y-98062000D01*
G37*
%TO.C,JP10*%
G36*
X80494000Y-95516000D02*
G01*
X80794000Y-95516000D01*
X80794000Y-97016000D01*
X80494000Y-97016000D01*
X80494000Y-95516000D01*
G37*
%TO.C,JP11*%
G36*
X80494000Y-92976000D02*
G01*
X80794000Y-92976000D01*
X80794000Y-94476000D01*
X80494000Y-94476000D01*
X80494000Y-92976000D01*
G37*
%TO.C,JP12*%
G36*
X80494000Y-90436000D02*
G01*
X80794000Y-90436000D01*
X80794000Y-91936000D01*
X80494000Y-91936000D01*
X80494000Y-90436000D01*
G37*
%TO.C,JP13*%
G36*
X80494000Y-87896000D02*
G01*
X80794000Y-87896000D01*
X80794000Y-89396000D01*
X80494000Y-89396000D01*
X80494000Y-87896000D01*
G37*
%TO.C,JP3*%
G36*
X117258000Y-84824000D02*
G01*
X116958000Y-84824000D01*
X116958000Y-83324000D01*
X117258000Y-83324000D01*
X117258000Y-84824000D01*
G37*
%TO.C,JP8*%
G36*
X80494000Y-100596000D02*
G01*
X80794000Y-100596000D01*
X80794000Y-102096000D01*
X80494000Y-102096000D01*
X80494000Y-100596000D01*
G37*
%TD*%
D10*
%TO.C,J1*%
X117094000Y-87635000D03*
D11*
X117094000Y-90175000D03*
%TD*%
D10*
%TO.C,J2*%
X78232000Y-37338000D03*
X78232000Y-39878000D03*
D11*
X78232000Y-42418000D03*
%TD*%
D10*
%TO.C,J3*%
X81915000Y-42413000D03*
D11*
X81915000Y-39873000D03*
%TD*%
D12*
%TO.C,JP1*%
X116428000Y-96774000D03*
D13*
X117728000Y-96774000D03*
%TD*%
D12*
%TO.C,JP2*%
X116458000Y-93726000D03*
D13*
X117758000Y-93726000D03*
%TD*%
D12*
%TO.C,JP4*%
X116428000Y-50292000D03*
D13*
X117728000Y-50292000D03*
%TD*%
D12*
%TO.C,JP5*%
X116428000Y-47244000D03*
D13*
X117728000Y-47244000D03*
%TD*%
D12*
%TO.C,JP6*%
X116458000Y-44318000D03*
D13*
X117758000Y-44318000D03*
%TD*%
D12*
%TO.C,JP7*%
X116458000Y-41402000D03*
D13*
X117758000Y-41402000D03*
%TD*%
D14*
%TO.C,JP9*%
X79994000Y-98812000D03*
D15*
X81294000Y-98812000D03*
%TD*%
D14*
%TO.C,JP10*%
X79994000Y-96266000D03*
D15*
X81294000Y-96266000D03*
%TD*%
%TO.C,JP11*%
X81294000Y-93726000D03*
D14*
X79994000Y-93726000D03*
%TD*%
D15*
%TO.C,JP12*%
X81294000Y-91186000D03*
D14*
X79994000Y-91186000D03*
%TD*%
D15*
%TO.C,JP13*%
X81294000Y-88646000D03*
D14*
X79994000Y-88646000D03*
%TD*%
D13*
%TO.C,JP3*%
X117758000Y-84074000D03*
D12*
X116458000Y-84074000D03*
%TD*%
D15*
%TO.C,JP8*%
X81294000Y-101346000D03*
D14*
X79994000Y-101346000D03*
%TD*%
D16*
%TO.C,U2*%
X73533000Y-37084000D03*
X73533000Y-39624000D03*
X73533000Y-42164000D03*
X73533000Y-44704000D03*
X73533000Y-47244000D03*
X73533000Y-49784000D03*
X73533000Y-52324000D03*
X73533000Y-54864000D03*
X73533000Y-57404000D03*
X73533000Y-59944000D03*
X73533000Y-62484000D03*
X73533000Y-65024000D03*
X73533000Y-67564000D03*
X73533000Y-70104000D03*
X58293000Y-70104000D03*
X58293000Y-67564000D03*
X58293000Y-65024000D03*
X58293000Y-62484000D03*
X58293000Y-59944000D03*
X58293000Y-57404000D03*
X58293000Y-54864000D03*
X58293000Y-52324000D03*
X58293000Y-49784000D03*
X58293000Y-47244000D03*
X58293000Y-44704000D03*
X58293000Y-42164000D03*
X58293000Y-39624000D03*
D17*
X58293000Y-37084000D03*
%TD*%
D18*
%TO.C,U1*%
X87630000Y-97328000D03*
X87630000Y-95548000D03*
X87630000Y-93768000D03*
X87630000Y-91988000D03*
X87630000Y-90208000D03*
X87630000Y-88428000D03*
X87630000Y-86648000D03*
X87630000Y-84868000D03*
X87630000Y-83088000D03*
X87630000Y-81308000D03*
X87630000Y-79528000D03*
X87630000Y-77748000D03*
X87630000Y-75968000D03*
X87630000Y-74188000D03*
X87630000Y-72408000D03*
X87630000Y-70628000D03*
X87630000Y-68848000D03*
X87630000Y-67068000D03*
X87630000Y-65288000D03*
X87630000Y-63508000D03*
X87630000Y-61728000D03*
X87630000Y-59948000D03*
X87630000Y-58168000D03*
X87630000Y-56388000D03*
X87630000Y-54608000D03*
X87630000Y-52828000D03*
X87630000Y-51048000D03*
X87630000Y-49268000D03*
X87630000Y-47488000D03*
X87630000Y-45708000D03*
X87630000Y-43928000D03*
X87630000Y-42148000D03*
X108330000Y-42148000D03*
X108330000Y-43928000D03*
X108330000Y-45708000D03*
X108330000Y-47488000D03*
X108330000Y-49268000D03*
X108330000Y-51048000D03*
X108330000Y-52828000D03*
X108330000Y-54608000D03*
X108330000Y-56388000D03*
X108330000Y-58168000D03*
X108330000Y-59948000D03*
X108330000Y-61728000D03*
X108330000Y-63508000D03*
X108330000Y-65288000D03*
X108330000Y-67068000D03*
X108330000Y-68848000D03*
X108330000Y-70628000D03*
X108330000Y-72408000D03*
X108330000Y-74188000D03*
X108330000Y-75968000D03*
X108330000Y-77748000D03*
X108330000Y-79528000D03*
X108330000Y-81308000D03*
X108330000Y-83088000D03*
X108330000Y-84868000D03*
X108330000Y-86648000D03*
X108330000Y-88428000D03*
X108330000Y-90208000D03*
X108330000Y-91988000D03*
X108330000Y-93768000D03*
X108330000Y-95548000D03*
D19*
X108330000Y-97328000D03*
%TD*%
M02*
